<svg xmlns="http://www.w3.org/2000/svg" width="468" height="456" viewBox="0 0 468 456">
    <g fill="none" fill-rule="evenodd">
        <path fill="#F8F4EC" d="M98.485 100.902l-.809.836c-10.341 10.681-27.484 11.055-38.291.836L15.359 60.94C4.552 50.722 4.174 33.778 14.514 23.097l.81-.836c10.34-10.68 27.484-11.054 38.29-.834L97.642 63.06c10.806 10.22 11.185 27.163.844 37.842"/>
        <path stroke="#F8F4EC" stroke-width="2" d="M98.485 100.902l-.809.836c-10.341 10.681-27.484 11.055-38.291.836L15.359 60.94C4.552 50.722 4.174 33.778 14.514 23.097l.81-.836c10.34-10.68 27.484-11.054 38.29-.834L97.642 63.06c10.806 10.22 11.185 27.163.844 37.842z"/>
        <path fill="#4892F7" d="M150.9 156.637L79.126 89 73 95.307l71.773 67.636a2.509 2.509 0 0 1 .08 3.586 2.292 2.292 0 0 0 .196 3.38l13.031 10.663c2.538 2.076 6.273 1.866 8.554-.482l2.623-2.7a6.12 6.12 0 0 0 .111-8.438l-11.39-12.35a2.374 2.374 0 0 0-3.437-.044 2.604 2.604 0 0 1-3.641.079"/>
        <path stroke="#FFF" stroke-width="2" d="M150.9 156.637L79.126 89 73 95.307l71.773 67.636a2.509 2.509 0 0 1 .08 3.586 2.292 2.292 0 0 0 .196 3.38l13.031 10.663c2.538 2.076 6.273 1.866 8.554-.482l2.623-2.7a6.12 6.12 0 0 0 .111-8.438l-11.39-12.35a2.374 2.374 0 0 0-3.437-.044 2.604 2.604 0 0 1-3.641.079z"/>
        <path fill="#4892F7" d="M92.485 105.903l-.81.835c-10.34 10.682-27.484 11.054-38.29.835L9.36 65.94C-1.448 55.721-1.825 38.778 8.514 28.097l.809-.836c10.341-10.68 27.484-11.054 38.291-.834L91.641 68.06c10.807 10.22 11.185 27.163.844 37.844"/>
        <path stroke="#FFF" stroke-width="2" d="M92.485 105.903l-.81.835c-10.34 10.682-27.484 11.054-38.29.835L9.36 65.94C-1.448 55.721-1.825 38.778 8.514 28.097l.809-.836c10.341-10.68 27.484-11.054 38.291-.834L91.641 68.06c10.807 10.22 11.185 27.163.844 37.844z"/>
        <path stroke="#F8F4EC" stroke-width="2" d="M3 36l80 77M17 22l79 76"/>
        <path fill="#FFF" d="M186.583 454.252l-9.869-3.193c-8.11-2.623-12.575-11.382-9.972-19.56l3.02-9.499L209 434.697l-3.022 9.497c-2.602 8.18-11.286 12.682-19.395 10.058"/>
        <path stroke="#FFF" stroke-width="2" d="M186.583 454.252l-9.869-3.193c-8.11-2.623-12.575-11.382-9.972-19.56l3.02-9.499L209 434.697l-3.022 9.497c-2.602 8.18-11.286 12.682-19.395 10.058z"/>
        <path fill="#FFF" d="M296.08 396.47l17.455-95.187c2.56-13.949-5.668-27.624-19.222-31.955l-96.916-30.974c-13.555-4.332-28.232 2.024-34.3 14.851l-41.395 87.536c-3.707 7.839-1.195 17.197 5.946 22.146l14.552 10.085c13.751 9.53 20.272 26.455 16.451 42.703-2.12 9.01 3.065 18.133 11.911 20.96l29.769 9.513c8.848 2.826 18.391-1.587 21.93-10.144 6.383-15.43 21.57-25.417 38.322-25.2l17.726.23c8.697.115 16.208-6.04 17.77-14.564"/>
        <path stroke="#FFF" stroke-width="2" d="M296.08 396.47l17.455-95.187c2.56-13.949-5.668-27.624-19.222-31.955l-96.916-30.974c-13.555-4.332-28.232 2.024-34.3 14.851l-41.395 87.536c-3.707 7.839-1.195 17.197 5.946 22.146l14.552 10.085c13.751 9.53 20.272 26.455 16.451 42.703-2.12 9.01 3.065 18.133 11.911 20.96l29.769 9.513c8.848 2.826 18.391-1.587 21.93-10.144 6.383-15.43 21.57-25.417 38.322-25.2l17.726.23c8.697.115 16.208-6.04 17.77-14.564z"/>
        <path fill="#FFF" d="M151.253 396.558l88.277 28.37"/>
        <path stroke="#FFF" stroke-linecap="round" stroke-width="2" d="M151.253 396.558l88.277 28.37"/>
        <path fill="#FFF" d="M151.38 407.972l82.002 26.283"/>
        <path stroke="#FFF" stroke-linecap="round" stroke-width="2" d="M151.38 407.972l82.002 26.283"/>
        <path fill="#FFF" d="M151.329 418.872l75.721 24.268"/>
        <path stroke="#FFF" stroke-linecap="round" stroke-width="2" d="M151.329 418.872l75.721 24.268"/>
        <path fill="#FFF" d="M181.583 452.252l-9.869-3.192c-8.11-2.624-12.575-11.383-9.972-19.562l3.02-9.498L204 432.697l-3.022 9.497c-2.602 8.18-11.286 12.682-19.395 10.058"/>
        <path stroke="#FFF" stroke-width="2" d="M181.583 452.252l-9.869-3.192c-8.11-2.624-12.575-11.383-9.972-19.562l3.02-9.498L204 432.697l-3.022 9.497c-2.602 8.18-11.286 12.682-19.395 10.058z"/>
        <path fill="#4892F7" d="M386.154 132.223c17.492-54.363-13.878-112.682-69.777-127.77C266.714-8.95 214.205 17.753 195.95 65.714c-8.56 22.494-8.526 45.92-1.657 66.891 13.851 42.283 13.488 87.916-.14 130.27L184 294.427 263.937 320l10.693-33.233c13.582-42.205 40.761-78.372 76.273-105.036 16.046-12.048 28.646-28.983 35.25-49.508"/>
        <path stroke="#FFF" stroke-width="2" d="M386.154 132.223c17.492-54.363-13.878-112.682-69.777-127.77C266.714-8.95 214.205 17.753 195.95 65.714c-8.56 22.494-8.526 45.92-1.657 66.891 13.851 42.283 13.488 87.916-.14 130.27L184 294.427 263.937 320l10.693-33.233c13.582-42.205 40.761-78.372 76.273-105.036 16.046-12.048 28.646-28.983 35.25-49.508z"/>
        <path fill="#4892F7" d="M269.221 200.486c.537-.797.972-1.682 1.283-2.642 1.736-5.373-1.233-11.351-6.583-13.233-5.685-2-11.868 1.078-13.697 6.751-.279.867-.44 1.741-.491 2.61-.19 3.217-1.437 6.335-3.953 8.367a13.56 13.56 0 0 0-4.398 6.409L224 262.652 250.154 271l17.38-53.903c.844-2.617.85-5.3.169-7.763-.833-3.01-.226-6.253 1.518-8.848"/>
        <path stroke="#FFF" stroke-width="2" d="M269.221 200.486c.537-.797.972-1.682 1.283-2.642 1.736-5.373-1.233-11.351-6.583-13.233-5.685-2-11.868 1.078-13.697 6.751-.279.867-.44 1.741-.491 2.61-.19 3.217-1.437 6.335-3.953 8.367a13.56 13.56 0 0 0-4.398 6.409L224 262.652 250.154 271l17.38-53.903c.844-2.617.85-5.3.169-7.763-.833-3.01-.226-6.253 1.518-8.848z"/>
        <path fill="#4892F7" d="M291.08 394.47l17.455-95.187c2.56-13.949-5.667-27.625-19.222-31.955l-96.916-30.974c-13.554-4.332-28.232 2.024-34.3 14.851l-41.395 87.535c-3.707 7.84-1.195 17.198 5.946 22.147L137.2 370.97c13.753 9.53 20.272 26.456 16.451 42.703-2.118 9.011 3.065 18.134 11.911 20.96l29.769 9.513c8.848 2.828 18.391-1.587 21.93-10.143 6.383-15.43 21.57-25.417 38.323-25.2l17.725.232c8.697.113 16.208-6.043 17.77-14.566"/>
        <path stroke="#FFF" stroke-width="2" d="M291.08 394.47l17.455-95.187c2.56-13.949-5.667-27.625-19.222-31.955l-96.916-30.974c-13.554-4.332-28.232 2.024-34.3 14.851l-41.395 87.535c-3.707 7.84-1.195 17.198 5.946 22.147L137.2 370.97c13.753 9.53 20.272 26.456 16.451 42.703-2.118 9.011 3.065 18.134 11.911 20.96l29.769 9.513c8.848 2.828 18.391-1.587 21.93-10.143 6.383-15.43 21.57-25.417 38.323-25.2l17.725.232c8.697.113 16.208-6.043 17.77-14.566z"/>
        <path stroke="#FFF" stroke-linecap="round" stroke-linejoin="round" stroke-width="2" d="M135 345a309.74 309.74 0 0 0 137 44"/>
        <path fill="#FFF" d="M220.186 313.441c-6.196-1.961-9.607-8.503-7.62-14.611l6.429-19.758c1.988-6.11 8.622-9.473 14.818-7.514 6.197 1.96 9.609 8.503 7.62 14.613l-6.428 19.756c-1.988 6.11-8.622 9.475-14.819 7.514"/>
        <path stroke="#FFF" stroke-linecap="round" stroke-linejoin="round" stroke-width="2" d="M222.472 341.707c-1.855 5.52-8.048 8.56-13.831 6.789-5.784-1.772-8.968-7.682-7.112-13.203 1.855-5.52 8.047-8.56 13.83-6.788 5.783 1.771 8.967 7.681 7.113 13.202z"/>
        <path stroke="#FFF" stroke-linecap="round" stroke-width="2" d="M252.416 187l3.275-10.606c.699-2.267.178-4.684-1.212-6.774-1.387-2.105-3.665-3.865-6.482-4.803-4.938-1.648-8.304-5.897-7.975-10.086L244.446 99M329 126l-29.213 47.457c-1.099 1.777-3.002 3.02-5.28 3.624-2.291.585-4.956.532-7.56-.279-5.98-1.863-12.004.243-13.482 4.712L270 192"/>
        <path stroke="#FFF" stroke-linecap="round" stroke-width="6.567" d="M243 113l1-14M328 126l-7 12"/>
        <path stroke="#FFF" stroke-width="2" d="M244 100c10.924 2.85 34.367 6.391 45.093 3.612 7.563-1.96 15.071-5.683 18.525-12.122 3.452-6.438 1.056-15.892-6.368-18.709-6.375-2.417-13.924 1.058-16.966 6.548-3.044 5.492-2.32 12.301.146 18.208 4.872 11.67 30.33 25.765 43.57 28.463"/>
        <path stroke="#FFF" stroke-linecap="round" stroke-width="2" d="M146 393l89 29M146 405l82 27M146 417l75 25"/>
        <path fill="#F8F4EC" d="M449.836 341.56l-53.386.44c-9.559.078-17.37-7.594-17.45-17.136-.08-9.544 7.606-17.343 17.164-17.421l53.385-.442c9.559-.078 17.372 7.593 17.45 17.137.08 9.543-7.604 17.343-17.163 17.422"/>
        <path stroke="#F8F4EC" stroke-width="2" d="M449.836 341.56l-53.386.44c-9.559.078-17.37-7.594-17.45-17.136-.08-9.544 7.606-17.343 17.164-17.421l53.385-.442c9.559-.078 17.372 7.593 17.45 17.137.08 9.543-7.604 17.343-17.163 17.422z"/>
        <path fill="#F8F4EC" d="M449.836 401.56l-53.386.44c-9.559.078-17.37-7.594-17.45-17.136-.08-9.544 7.606-17.344 17.164-17.423l53.385-.44c9.56-.08 17.372 7.593 17.45 17.136.08 9.543-7.604 17.344-17.163 17.423"/>
        <path stroke="#F8F4EC" stroke-width="2" d="M449.836 401.56l-53.386.44c-9.559.078-17.37-7.594-17.45-17.136-.08-9.544 7.606-17.344 17.164-17.423l53.385-.44c9.56-.08 17.372 7.593 17.45 17.136.08 9.543-7.604 17.344-17.163 17.423z"/>
        <path fill="#4892F7" d="M382 390.773l-27.3.226c-20.07.165-36.533-16.023-36.699-36.09-.166-20.063 16.028-36.522 36.098-36.688L380.81 318l.074 8.803-26.714.222c-15.214.126-27.49 12.602-27.364 27.811.125 15.212 12.606 27.485 27.82 27.36l27.3-.226.073 8.803z"/>
        <path stroke="#FFF" stroke-width="2" d="M382 390.773l-27.3.226c-20.07.165-36.533-16.023-36.699-36.09-.166-20.063 16.028-36.522 36.098-36.688L380.81 318l.074 8.803-26.714.222c-15.214.126-27.49 12.602-27.364 27.811.125 15.212 12.606 27.485 27.82 27.36l27.3-.226.073 8.803z"/>
        <path fill="#4892F7" d="M440.836 341.56l-53.385.44c-9.559.078-17.372-7.594-17.45-17.136-.08-9.544 7.605-17.344 17.163-17.423l53.386-.44c9.559-.08 17.37 7.593 17.45 17.136.08 9.543-7.605 17.344-17.164 17.423"/>
        <path stroke="#FFF" stroke-width="2" d="M440.836 341.56l-53.385.44c-9.559.078-17.372-7.594-17.45-17.136-.08-9.544 7.605-17.344 17.163-17.423l53.386-.44c9.559-.08 17.37 7.593 17.45 17.136.08 9.543-7.605 17.344-17.164 17.423z"/>
        <path fill="#4892F7" d="M440.836 401.559l-53.386.44c-9.558.08-17.37-7.593-17.45-17.135v-.001c-.078-9.544 7.606-17.343 17.164-17.422l53.386-.44c9.558-.08 17.37 7.593 17.45 17.136.078 9.543-7.606 17.343-17.164 17.422"/>
        <path stroke="#FFF" stroke-width="2" d="M440.836 401.559l-53.386.44c-9.558.08-17.37-7.593-17.45-17.135v-.001c-.078-9.544 7.606-17.343 17.164-17.422l53.386-.44c9.558-.08 17.37 7.593 17.45 17.136.078 9.543-7.606 17.343-17.164 17.422z"/>
        <path fill="#4892F7" d="M324.888 340l.112 13.376-34.997.288c-.969-3.831-4.472-6.656-8.631-6.622-4.15.033-7.615 2.917-8.519 6.763l-23.8.195-.053-6.35 17.011-7.166 58.877-.484z"/>
        <path stroke="#FFF" stroke-width="2" d="M324.888 340l.112 13.376-34.997.288c-.969-3.831-4.472-6.656-8.631-6.622-4.15.033-7.615 2.917-8.519 6.763l-23.8.195-.053-6.35 17.011-7.166 58.877-.484z"/>
        <path fill="#4892F7" d="M325.888 357l.112 13.51-59.02.49-16.927-6.956-.053-6.414 23.782-.198c.975 3.87 4.477 6.714 8.623 6.68 4.157-.034 7.6-2.937 8.513-6.821l34.97-.291z"/>
        <path stroke="#FFF" stroke-width="2" d="M325.888 357l.112 13.51-59.02.49-16.927-6.956-.053-6.414 23.782-.198c.975 3.87 4.477 6.714 8.623 6.68 4.157-.034 7.6-2.937 8.513-6.821l34.97-.291z"/>
        <path fill="#4892F7" d="M341 354.355c.079 9.665-7.691 17.564-17.356 17.644-9.663.08-17.562-7.69-17.643-17.354-.08-9.665 7.691-17.565 17.355-17.644 9.663-.08 17.563 7.69 17.643 17.354"/>
        <path stroke="#FFF" stroke-width="2" d="M341 354.355c.079 9.665-7.691 17.564-17.356 17.644-9.663.08-17.562-7.69-17.643-17.354-.08-9.665 7.691-17.565 17.355-17.644 9.663-.08 17.563 7.69 17.643 17.354z"/>
        <path fill="#4892F7" d="M226.358 294.62l3.868 5.806-6.449 2.557 2.58-8.362zm3.988-12.92l3.859 5.838-6.435 2.507 2.576-8.345zm-.166-3.683c-.55-.099-1.089.235-1.253.778l-3.305 10.71-2.273-3.416a1.11 1.11 0 0 0-.718-.488 1.1 1.1 0 0 0-1.153.49 1.14 1.14 0 0 0 .032 1.27l2.704 4.07-4.498 1.744a1.124 1.124 0 0 0-.62.597c-.12.274-.128.585-.022.866.105.281.315.507.586.629.269.123.574.13.849.022l3.783-1.477-3.31 10.726a1.14 1.14 0 0 0 .298 1.159c.311.295.759.383 1.155.227l9.886-3.908c.32-.12.567-.384.669-.716.102-.33.047-.69-.146-.976l-5.206-7.799 8.656-3.38a1.11 1.11 0 0 0 .655-.71c.101-.326.05-.68-.138-.966l-5.913-8.964a1.105 1.105 0 0 0-.718-.488z"/>
    </g>
</svg>
