<svg xmlns="http://www.w3.org/2000/svg" width="534" height="423" viewBox="0 0 534 423">
    <g fill="none" fill-rule="evenodd">
        <rect width="437" height="239" x="1" y="1" fill-rule="nonzero" stroke="#FF8183" stroke-width="2" rx="2" transform="translate(10 136)"/>
        <rect width="436.763" height="239.143" x="1" y="1" fill-rule="nonzero" stroke="#FF8183" stroke-width="2" rx="2" transform="translate(9.775 135.82)"/>
        <path stroke="#FF8183" stroke-width="2" d="M361.809 3.587l-42.051 72.781h84.102z"/>
        <path fill="#FF8183" d="M509.07 294.393H215.254c-12.912 0-23.379-10.46-23.379-23.36V79.362c0-12.902 10.467-23.36 23.379-23.36H509.07c12.912 0 23.378 10.458 23.378 23.36v191.67c0 12.9-10.466 23.36-23.378 23.36"/>
        <path stroke="#FF8183" stroke-width="2" d="M509.07 294.393H215.254c-12.912 0-23.379-10.46-23.379-23.36V79.362c0-12.902 10.467-23.36 23.379-23.36H509.07c12.912 0 23.378 10.458 23.378 23.36v191.67c0 12.9-10.466 23.36-23.378 23.36z"/>
        <path fill="#F4F4F4" d="M503.595 284.765H217.48c-8.445 0-15.291-6.84-15.291-15.28V80.91c0-8.44 6.846-15.281 15.29-15.281h286.115c8.445 0 15.29 6.84 15.29 15.28v188.577c0 8.439-6.845 15.28-15.29 15.28"/>
        <path stroke="#FF8183" stroke-width="1.849" d="M503.595 284.765H217.48c-8.445 0-15.291-6.84-15.291-15.28V80.91c0-8.44 6.846-15.281 15.29-15.281h286.115c8.445 0 15.29 6.84 15.29 15.28v188.577c0 8.439-6.845 15.28-15.29 15.28z"/>
        <path fill="#F4F4F4" d="M373.854 119.943H241.311a5.823 5.823 0 0 1-5.824-5.82v-1.005a5.822 5.822 0 0 1 5.824-5.82h132.543a5.822 5.822 0 0 1 5.825 5.82v1.005a5.823 5.823 0 0 1-5.825 5.82"/>
        <path stroke="#FF8183" stroke-width="2" d="M373.854 119.943H241.311a5.823 5.823 0 0 1-5.824-5.82v-1.005a5.822 5.822 0 0 1 5.824-5.82h132.543a5.822 5.822 0 0 1 5.825 5.82v1.005a5.823 5.823 0 0 1-5.825 5.82z"/>
        <path fill="#F4F4F4" d="M479.763 195.574h-238.45a5.822 5.822 0 0 1-5.825-5.82v-1.005a5.822 5.822 0 0 1 5.824-5.82h238.451a5.822 5.822 0 0 1 5.825 5.82v1.005a5.822 5.822 0 0 1-5.825 5.82"/>
        <path stroke="#FF8183" stroke-width="2" d="M479.763 195.574h-238.45a5.822 5.822 0 0 1-5.825-5.82v-1.005a5.822 5.822 0 0 1 5.824-5.82h238.451a5.822 5.822 0 0 1 5.825 5.82v1.005a5.822 5.822 0 0 1-5.825 5.82z"/>
        <path fill="#F4F4F4" d="M479.763 220.785h-238.45a5.822 5.822 0 0 1-5.825-5.82v-1.006a5.822 5.822 0 0 1 5.824-5.82h238.451a5.822 5.822 0 0 1 5.825 5.82v1.005a5.822 5.822 0 0 1-5.825 5.82"/>
        <path stroke="#FF8183" stroke-width="2" d="M479.763 220.785h-238.45a5.822 5.822 0 0 1-5.825-5.82v-1.006a5.822 5.822 0 0 1 5.824-5.82h238.451a5.822 5.822 0 0 1 5.825 5.82v1.005a5.822 5.822 0 0 1-5.825 5.82z"/>
        <path fill="#F4F4F4" d="M479.763 245.995h-238.45a5.822 5.822 0 0 1-5.825-5.82v-1.006a5.822 5.822 0 0 1 5.824-5.819h238.451a5.822 5.822 0 0 1 5.825 5.82v1.005a5.822 5.822 0 0 1-5.825 5.82"/>
        <path stroke="#FF8183" stroke-width="2" d="M479.763 245.995h-238.45a5.822 5.822 0 0 1-5.825-5.82v-1.006a5.822 5.822 0 0 1 5.824-5.819h238.451a5.822 5.822 0 0 1 5.825 5.82v1.005a5.822 5.822 0 0 1-5.825 5.82z"/>
        <path fill="#F4F4F4" d="M297.07 143.794h-55.759a5.824 5.824 0 0 1-5.824-5.821v-1.004a5.823 5.823 0 0 1 5.824-5.82h55.76a5.823 5.823 0 0 1 5.824 5.82v1.004a5.824 5.824 0 0 1-5.824 5.82"/>
        <path stroke="#FF8183" stroke-width="2" d="M297.07 143.794h-55.759a5.824 5.824 0 0 1-5.824-5.821v-1.004a5.823 5.823 0 0 1 5.824-5.82h55.76a5.823 5.823 0 0 1 5.824 5.82v1.004a5.824 5.824 0 0 1-5.824 5.82z"/>
        <path fill="#FF8183" d="M305.376 316.108c-5.53 49.39-38.46 89.064-81.955 105.599l-92.36-.51c-37.297-14.581-65.46-45.876-76.414-83.784-4.555-15.71-6.146-32.552-4.214-49.806a130.024 130.024 0 0 1 2.696-15.503c.02-.077.026-.142.055-.204 5.423-22.7 16.78-42.805 32.203-58.816 16.178-16.832 36.828-29.136 59.778-35.185 14.902-3.948 30.764-5.24 46.996-3.426 70.398 7.87 121.09 71.287 113.215 141.635"/>
        <path stroke="#FF8183" stroke-width="2" d="M305.376 316.108c-5.53 49.39-38.46 89.064-81.955 105.599l-92.36-.51c-37.297-14.581-65.46-45.876-76.414-83.784-4.555-15.71-6.146-32.552-4.214-49.806a130.024 130.024 0 0 1 2.696-15.503c.02-.077.026-.142.055-.204 5.423-22.7 16.78-42.805 32.203-58.816 16.178-16.832 36.828-29.136 59.778-35.185 14.902-3.948 30.764-5.24 46.996-3.426 70.398 7.87 121.09 71.287 113.215 141.635z"/>
        <path fill="#F4F4F4" d="M232.139 332.075c-30.808 55.097-92.925 79.025-138.741 53.443-45.817-25.58-57.984-90.983-27.176-146.08 30.807-55.098 92.924-79.024 138.74-53.444 45.818 25.58 57.984 90.984 27.177 146.081"/>
        <path stroke="#FF8183" stroke-width="2" d="M232.139 332.075c-30.808 55.097-92.925 79.025-138.741 53.443-45.817-25.58-57.984-90.983-27.176-146.08 30.807-55.098 92.924-79.024 138.74-53.444 45.818 25.58 57.984 90.984 27.177 146.081z"/>
        <path fill="#F4F4F4" d="M222.768 325.502c-28.047 50.159-84.597 71.943-126.307 48.654-41.71-23.29-52.787-82.83-24.742-132.99 28.048-50.16 84.597-71.942 126.308-48.653 41.711 23.288 52.788 82.83 24.74 132.989"/>
        <path stroke="#FF8183" stroke-width="2" d="M222.768 325.502c-28.047 50.159-84.597 71.943-126.307 48.654-41.71-23.29-52.787-82.83-24.742-132.99 28.048-50.16 84.597-71.942 126.308-48.653 41.711 23.288 52.788 82.83 24.74 132.989z"/>
        <path stroke="#FF8183" stroke-linecap="round" stroke-linejoin="round" stroke-width="2" d="M234.899 295.458l-82.634.238-7.393-27.748-11.555 50.456-3.022-33.607-3.612 15.356-5.266-51.136-7.114 68.71-5.208-30.676-4.338 17.55-2.233-13.877-4.367 7.318-6.598-5.825-35.1.1"/>
        <path fill="#FF9296" d="M272.565 421.707H1.63"/>
        <path stroke="#FF8183" stroke-linecap="round" stroke-linejoin="round" stroke-width="2" d="M272.565 421.707H1.63"/>
        <path fill="#F4F4F4" d="M113.15 411.124v5.755"/>
        <path stroke="#F4F4F4" stroke-linecap="round" stroke-linejoin="round" stroke-width="1.981" d="M113.15 411.124v5.755"/>
        <path fill="#F4F4F4" d="M121.57 411.124v5.755"/>
        <path stroke="#F4F4F4" stroke-linecap="round" stroke-linejoin="round" stroke-width="1.981" d="M121.57 411.124v5.755"/>
        <path fill="#F4F4F4" d="M129.99 411.124v5.755"/>
        <path stroke="#F4F4F4" stroke-linecap="round" stroke-linejoin="round" stroke-width="1.981" d="M129.99 411.124v5.755"/>
        <path fill="#F4F4F4" d="M138.41 411.124v5.755"/>
        <path stroke="#F4F4F4" stroke-linecap="round" stroke-linejoin="round" stroke-width="1.981" d="M138.41 411.124v5.755"/>
        <path fill="#F4F4F4" d="M146.83 411.124v5.755"/>
        <path stroke="#F4F4F4" stroke-linecap="round" stroke-linejoin="round" stroke-width="1.981" d="M146.83 411.124v5.755"/>
        <path fill="#F4F4F4" d="M155.25 411.124v5.755"/>
        <path stroke="#F4F4F4" stroke-linecap="round" stroke-linejoin="round" stroke-width="1.981" d="M155.25 411.124v5.755"/>
        <path fill="#F4F4F4" d="M163.67 411.124v5.755"/>
        <path stroke="#F4F4F4" stroke-linecap="round" stroke-linejoin="round" stroke-width="1.981" d="M163.67 411.124v5.755"/>
        <path fill="#F4F4F4" d="M172.092 411.124v5.755"/>
        <path stroke="#F4F4F4" stroke-linecap="round" stroke-linejoin="round" stroke-width="1.981" d="M172.092 411.124v5.755"/>
        <path fill="#F4F4F4" d="M180.512 411.124v5.755"/>
        <path stroke="#F4F4F4" stroke-linecap="round" stroke-linejoin="round" stroke-width="1.981" d="M180.512 411.124v5.755"/>
        <path fill="#F4F4F4" d="M188.932 411.124v5.755"/>
        <path stroke="#F4F4F4" stroke-linecap="round" stroke-linejoin="round" stroke-width="1.981" d="M188.932 411.124v5.755"/>
        <g>
            <path fill="#F4F4F4" d="M197.352 411.124v5.755"/>
            <path stroke="#F4F4F4" stroke-linecap="round" stroke-linejoin="round" stroke-width="1.981" d="M197.352 411.124v5.755"/>
        </g>
        <g>
            <path fill="#F4F4F4" d="M205.773 411.124v5.755"/>
            <path stroke="#F4F4F4" stroke-linecap="round" stroke-linejoin="round" stroke-width="1.981" d="M205.773 411.124v5.755"/>
        </g>
        <g>
            <path fill="#F4F4F4" d="M214.193 411.124v5.755"/>
            <path stroke="#F4F4F4" stroke-linecap="round" stroke-linejoin="round" stroke-width="1.981" d="M214.193 411.124v5.755"/>
        </g>
        <g>
            <path fill="#F4F4F4" d="M222.613 411.124v5.755"/>
            <path stroke="#F4F4F4" stroke-linecap="round" stroke-linejoin="round" stroke-width="1.981" d="M222.613 411.124v5.755"/>
        </g>
        <g>
            <path fill="#F4F4F4" d="M231.034 411.124v5.755"/>
            <path stroke="#F4F4F4" stroke-linecap="round" stroke-linejoin="round" stroke-width="1.981" d="M231.034 411.124v5.755"/>
        </g>
        <g>
            <path fill="#F4F4F4" d="M239.454 411.124v5.755"/>
            <path stroke="#F4F4F4" stroke-linecap="round" stroke-linejoin="round" stroke-width="1.981" d="M239.454 411.124v5.755"/>
        </g>
        <path fill="#FF8183" d="M369.11 8.626a6.945 6.945 0 0 1-6.948 6.942 6.945 6.945 0 0 1-6.947-6.942 6.945 6.945 0 0 1 6.947-6.942 6.945 6.945 0 0 1 6.947 6.942"/>
        <path stroke="#FF8183" stroke-width="2" d="M369.11 8.626a6.945 6.945 0 0 1-6.948 6.942 6.945 6.945 0 0 1-6.947-6.942 6.945 6.945 0 0 1 6.947-6.942 6.945 6.945 0 0 1 6.947 6.942z"/>
        <path stroke="#FF8183" stroke-linecap="round" stroke-linejoin="round" stroke-width="2" d="M472.136 129.25l6.095-14.776-6.146-14.756-14.788-6.091-14.767 6.142-6.094 14.777 6.146 14.756 14.787 6.09zM466.832 138.78v21.723l-9.666-7.515-9.887 7.515v-21.724"/>
    </g>
</svg>
