<svg xmlns="http://www.w3.org/2000/svg" width="98" height="121" viewBox="0 0 98 121">
    <g fill="none" fill-rule="evenodd">
        <path fill="#131415" d="M1 1v107.764h66.47L86.823 88.55V1z"/>
        <path stroke="#131415" stroke-linecap="round" stroke-linejoin="round" stroke-width="2" d="M86.823 1v87.55L67.47 108.764H1V1z"/>
        <path fill="#FFF" d="M10.465 12.186V119.95h66.47l19.352-20.213V12.186z"/>
        <path stroke="#131415" stroke-linecap="round" stroke-linejoin="round" stroke-width="2" d="M96.288 12.186v87.55l-19.353 20.215h-66.47V12.186z"/>
        <path fill="#FFF" d="M76.94 99.941v20.01l19.347-20.01z"/>
        <path stroke="#131415" stroke-linecap="round" stroke-linejoin="round" stroke-width="2" d="M96.288 99.942L76.94 119.95V99.94zM28.208 74.784h50.336M35.092 83.818H71.66"/>
        <path fill="#131415" d="M39.733 35.147c.026 4.089 1.445 8.916 3.916 13.302 2.583 4.582 6.026 8.239 9.72 10.333 3.529-2.067 7-5.71 9.562-10.042 2.677-4.53 4.123-9.34 4.089-13.585-3.554-2.023-8.444-3.207-13.478-3.26-5.26-.054-10.148 1.099-13.81 3.252zm13.646 24.887l-.266-.146c-3.973-2.163-7.671-6.035-10.415-10.903-2.624-4.656-4.103-9.816-4.056-14.153l.003-.303.258-.157c3.86-2.36 9.062-3.622 14.65-3.57 5.346.057 10.552 1.356 14.286 3.566l.26.153.008.303c.113 4.52-1.392 9.66-4.236 14.47-2.72 4.602-6.448 8.462-10.23 10.59l-.262.15z"/>
        <path stroke="#131415" stroke-linecap="round" stroke-linejoin="round" d="M39.733 35.147c.026 4.089 1.445 8.916 3.916 13.302 2.583 4.582 6.026 8.239 9.72 10.333 3.529-2.067 7-5.71 9.562-10.042 2.677-4.53 4.123-9.34 4.089-13.585-3.554-2.023-8.444-3.207-13.478-3.26-5.26-.054-10.148 1.099-13.81 3.252zm13.646 24.887l-.266-.146c-3.973-2.163-7.671-6.035-10.415-10.903-2.624-4.656-4.103-9.816-4.056-14.153l.003-.303.258-.157c3.86-2.36 9.062-3.622 14.65-3.57 5.346.057 10.552 1.356 14.286 3.566l.26.153.008.303c.113 4.52-1.392 9.66-4.236 14.47-2.72 4.602-6.448 8.462-10.23 10.59l-.262.15z"/>
        <path fill="#131415" d="M59.51 38.087a2.108 2.108 0 0 0-2.024 2c-.019.484.13.932.39 1.296.557.787.137 3.376-.554 4.6-.632 1.122-1.893 2.356-2.584 2.635-.405.164-.724-.122-1.362-.122-.638 0-.957.286-1.362.122-.69-.279-1.952-1.513-2.584-2.635-.69-1.224-1.11-3.813-.553-4.6a2.08 2.08 0 0 0 .39-1.297 2.108 2.108 0 0 0-2.025-1.999 2.087 2.087 0 0 0-2.148 2.086c0 .686.337 1.29.844 1.676.447.34.72.816.925 1.41a17.407 17.407 0 0 0 1.447 3.202c.702 1.245 2.57 3.477 2.944 4.623.292.894 1.142 1.586 2.122 1.586s1.83-.692 2.122-1.586c.375-1.146 2.242-3.378 2.944-4.623a17.407 17.407 0 0 0 1.447-3.203c.206-.593.48-1.069.925-1.409.508-.387.844-.99.844-1.676 0-1.173-.967-2.12-2.148-2.086"/>
        <path stroke="#131415" stroke-width=".5" d="M59.51 38.087a2.108 2.108 0 0 0-2.024 2c-.019.484.13.932.39 1.296.557.787.137 3.376-.554 4.6-.632 1.122-1.893 2.356-2.584 2.635-.405.164-.724-.122-1.362-.122-.638 0-.957.286-1.362.122-.69-.279-1.952-1.513-2.584-2.635-.69-1.224-1.11-3.813-.553-4.6a2.08 2.08 0 0 0 .39-1.297 2.108 2.108 0 0 0-2.025-1.999 2.087 2.087 0 0 0-2.148 2.086c0 .686.337 1.29.844 1.676.447.34.72.816.925 1.41a17.407 17.407 0 0 0 1.447 3.202c.702 1.245 2.57 3.477 2.944 4.623.292.894 1.142 1.586 2.122 1.586s1.83-.692 2.122-1.586c.375-1.146 2.242-3.378 2.944-4.623a17.407 17.407 0 0 0 1.447-3.203c.206-.593.48-1.069.925-1.409.508-.387.844-.99.844-1.676 0-1.173-.967-2.12-2.148-2.086z"/>
    </g>
</svg>
