<svg xmlns="http://www.w3.org/2000/svg" width="20" height="21" viewBox="0 0 20 21">
    <path fill="#D2D2D2" fill-rule="evenodd" d="M4.766 19.065H7.16v-3.144H4.766v3.144zM2.81 14.651h1.249v-1.624H2.81v1.624zm0-2.893h1.249v-1.624H2.81v1.624zm0-2.874h1.249V7.26H2.81v1.624zm0-2.892h1.249V4.368H2.81v1.624zm2.519 8.66h1.249v-1.624H5.329v1.623zm0-2.894h1.249v-1.624H5.329v1.624zm0-2.874h1.249V7.26H5.329v1.624zm0-2.892h1.249V4.368H5.329v1.624zm2.518 8.66h1.249v-1.624H7.847v1.624zm0-2.894h1.249v-1.624H7.847v1.624zm0-2.874h1.249V7.261H7.847v1.623zm0-2.892h1.249V4.368H7.847v1.624zm5.33 11.553h1.249v-1.623h-1.249v1.623zm0-2.893h1.249v-1.624h-1.249v1.624zm0-2.895h1.249v-1.623h-1.249v1.623zm2.518 5.79h1.249v-1.625h-1.249v1.624zm0-2.895h1.249v-1.624h-1.249v1.624zm0-2.894h1.249v-1.624h-1.249v1.624zM0 20.314h19.776v-1.249h-1.249v-9.3c0-.74-.496-1.39-1.21-1.587l-3.622-.992a1.644 1.644 0 0 0-2.079 1.586v10.271h-.937V1.645A1.645 1.645 0 0 0 8.461.105L2.32 2.386a1.645 1.645 0 0 0-1.071 1.541v15.136H0v1.25z"/>
</svg>
