<svg xmlns="http://www.w3.org/2000/svg" width="118" height="89" viewBox="0 0 118 89">
    <g fill="none" fill-rule="evenodd">
        <path fill="#131415" d="M116.041 3.596v75.468a2.595 2.595 0 0 1-2.596 2.595H3.596A2.595 2.595 0 0 1 1 79.064V3.596A2.596 2.596 0 0 1 3.596 1h109.85a2.596 2.596 0 0 1 2.595 2.596"/>
        <path stroke="#131415" stroke-linecap="round" stroke-linejoin="round" stroke-width="2" d="M116.041 3.596v75.468a2.595 2.595 0 0 1-2.596 2.595H3.596A2.595 2.595 0 0 1 1 79.064V3.596A2.596 2.596 0 0 1 3.596 1h109.85a2.596 2.596 0 0 1 2.595 2.596z"/>
        <path fill="#FFF" d="M116.041 11.31v74.064a2.596 2.596 0 0 1-2.596 2.597H3.596A2.596 2.596 0 0 1 1 85.374V11.31h115.041z"/>
        <path stroke="#131415" stroke-linecap="round" stroke-linejoin="round" stroke-width="2" d="M116.041 11.31v74.064a2.596 2.596 0 0 1-2.596 2.597H3.596A2.596 2.596 0 0 1 1 85.374V11.31h115.041z"/>
        <path fill="#FFF" d="M82.464 48.422c0 13.224-10.72 23.943-23.943 23.943S34.578 61.646 34.578 48.422c0-13.224 10.72-23.942 23.943-23.942s23.943 10.718 23.943 23.942"/>
        <path stroke="#131415" stroke-linecap="round" stroke-linejoin="round" stroke-width="2" d="M82.464 48.422c0 13.224-10.72 23.943-23.943 23.943S34.578 61.646 34.578 48.422c0-13.224 10.72-23.942 23.943-23.942s23.943 10.718 23.943 23.942z"/>
        <path fill="#FFF" d="M67.248 49.864L55.742 57.26c-.343.245-.735.341-1.175.341-.342 0-.684-.096-1.03-.245-.683-.39-1.125-1.075-1.125-1.86V40.71c0-.785.44-1.52 1.126-1.863a2.016 2.016 0 0 1 2.154.099l11.506 7.395c.637.39.979 1.075.979 1.81 0 .734-.294 1.321-.93 1.713"/>
        <path stroke="#131415" stroke-linecap="round" stroke-linejoin="round" stroke-width="2" d="M67.248 49.864L55.742 57.26c-.343.245-.735.341-1.175.341-.342 0-.684-.096-1.03-.245-.683-.39-1.125-1.075-1.125-1.86V40.71c0-.785.44-1.52 1.126-1.863a2.016 2.016 0 0 1 2.154.099l11.506 7.395c.637.39.979 1.075.979 1.81 0 .734-.294 1.321-.93 1.713z"/>
        <path fill="#131415" d="M53.865 6.117h9.311"/>
        <path stroke="#FFF" stroke-linecap="round" stroke-linejoin="round" stroke-width="2" d="M53.865 6.117h9.311"/>
    </g>
</svg>
