<svg xmlns="http://www.w3.org/2000/svg" xmlns:xlink="http://www.w3.org/1999/xlink" width="20" height="16" viewBox="0 0 20 16">
    <defs>
        <path id="a" d="M0 0h19.62v15.901H0z"/>
    </defs>
    <g fill="none" fill-rule="evenodd">
        <mask id="b" fill="#fff">
            <use xlink:href="#a"/>
        </mask>
        <path fill="#D2D2D2" d="M.279 0h3.296c.066 0 .129.025.179.07L4.96 1.174c.25.229.566.355.892.355H17c.154 0 .279.137.279.306v2.446c0 .168-.125.306-.28.306H3.158c-.63 0-1.181.464-1.345 1.13L.219 12.185c-.016.066-.077.104-.137.086-.048-.014-.082-.062-.082-.119V.306C0 .138.125 0 .279 0m19.334 6.492l-1.99 9.174c-.03.139-.142.235-.271.235H1.06c-.154 0-.28-.137-.28-.306a.29.29 0 0 1 .01-.079l2.205-8.948c.066-.267.287-.453.538-.453h15.808c.155 0 .279.138.279.307a.279.279 0 0 1-.008.07" mask="url(#b)"/>
    </g>
</svg>
