<svg xmlns="http://www.w3.org/2000/svg" width="123" height="115" viewBox="0 0 123 115">
    <g fill="none" fill-rule="evenodd">
        <path fill="#FFF" d="M1 112h88V0H1z"/>
        <path stroke="#131415" stroke-linecap="round" stroke-linejoin="round" stroke-width="2" d="M1 114h88V2H1zM35 97h18M29 103h32M21 15h46"/>
        <path fill="#131415" d="M41.264 53.254a1.008 1.008 0 0 0 1.112.221c.382-.157.627-.532.623-.945l-.273-24.774a1.014 1.014 0 0 0-1.027-1.004 25.725 25.725 0 0 0-17.886 7.47 1.017 1.017 0 0 0-.008 1.436l17.46 17.596z"/>
        <path stroke="#131415" stroke-linecap="round" stroke-linejoin="round" stroke-width="2" d="M41.264 53.254a1.008 1.008 0 0 0 1.112.221c.382-.157.627-.532.623-.945l-.273-24.774a1.014 1.014 0 0 0-1.027-1.004 25.725 25.725 0 0 0-17.886 7.47 1.017 1.017 0 0 0-.008 1.436l17.46 17.596z"/>
        <path fill="#FFF" d="M40.072 59.39a1.016 1.016 0 0 0-.29-.795l-17.46-17.6c-.188-.19-.445-.3-.717-.298a1.044 1.044 0 0 0-.718.294c-5.015 4.959-7.734 11.567-7.656 18.603a25.551 25.551 0 0 0 4.928 14.854 1.011 1.011 0 0 0 1.417.226l20.08-14.548a.996.996 0 0 0 .416-.735"/>
        <path stroke="#131415" stroke-linecap="round" stroke-linejoin="round" stroke-width="2" d="M40.072 59.39a1.016 1.016 0 0 0-.29-.795l-17.46-17.6c-.188-.19-.445-.3-.717-.298a1.044 1.044 0 0 0-.718.294c-5.015 4.959-7.734 11.567-7.656 18.603a25.551 25.551 0 0 0 4.928 14.854 1.011 1.011 0 0 0 1.417.226l20.08-14.548a.996.996 0 0 0 .416-.735z"/>
        <path fill="#FFF" d="M74.249 62.943a27.064 27.064 0 0 0-.482-4.632 26.063 26.063 0 0 0-2.44-7.027 25.917 25.917 0 0 0-1.197-2.078 25.873 25.873 0 0 0-2.842-3.685 26.32 26.32 0 0 0-2.408-2.296 26.564 26.564 0 0 0-2.7-2 25.723 25.723 0 0 0-3.018-1.683 25.633 25.633 0 0 0-2.56-1.048 25.04 25.04 0 0 0-3.692-.998c-.407-.078-.818-.143-1.232-.207-.963-.135-1.97-.22-2.984-.247-.351-.01-.703-.019-1.054-.014a1.505 1.505 0 0 0-1.492 1.522l.267 23.994-19.447 14.09a1.521 1.521 0 0 0-.608.99c-.061.395.035.786.27 1.117l.1.13c.435.584.912 1.172 1.467 1.8.226.259.456.511.688.756a26.675 26.675 0 0 0 2.45 2.254 25.937 25.937 0 0 0 2.082 1.54c.244.159.495.313.744.46l.147.089a26.17 26.17 0 0 0 3.087 1.605c.723.318 1.494.607 2.358.892a26.513 26.513 0 0 0 3.741.94c.418.073.838.125 1.257.178 1.143.138 2.284.207 3.368.197l.1.001c.476-.005.948-.024 1.414-.055a25.828 25.828 0 0 0 5.634-.988 26.028 26.028 0 0 0 10.264-5.72 25.948 25.948 0 0 0 2.326-2.375 26.269 26.269 0 0 0 3.35-4.883 26.064 26.064 0 0 0 2.152-5.492c.18-.676.325-1.299.438-1.912.23-1.23.373-2.483.43-3.735.018-.465.025-.936.02-1.407l.002-.073z"/>
        <path stroke="#131415" stroke-linecap="round" stroke-linejoin="round" stroke-width="2" d="M74.249 62.943a27.064 27.064 0 0 0-.482-4.632 26.063 26.063 0 0 0-2.44-7.027 25.917 25.917 0 0 0-1.197-2.078 25.873 25.873 0 0 0-2.842-3.685 26.32 26.32 0 0 0-2.408-2.296 26.564 26.564 0 0 0-2.7-2 25.723 25.723 0 0 0-3.018-1.683 25.633 25.633 0 0 0-2.56-1.048 25.04 25.04 0 0 0-3.692-.998c-.407-.078-.818-.143-1.232-.207-.963-.135-1.97-.22-2.984-.247-.351-.01-.703-.019-1.054-.014a1.505 1.505 0 0 0-1.492 1.522l.267 23.994-19.447 14.09a1.521 1.521 0 0 0-.608.99c-.061.395.035.786.27 1.117l.1.13c.435.584.912 1.172 1.467 1.8.226.259.456.511.688.756a26.675 26.675 0 0 0 2.45 2.254 25.937 25.937 0 0 0 2.082 1.54c.244.159.495.313.744.46l.147.089a26.17 26.17 0 0 0 3.087 1.605c.723.318 1.494.607 2.358.892a26.513 26.513 0 0 0 3.741.94c.418.073.838.125 1.257.178 1.143.138 2.284.207 3.368.197l.1.001c.476-.005.948-.024 1.414-.055a25.828 25.828 0 0 0 5.634-.988 26.028 26.028 0 0 0 10.264-5.72 25.948 25.948 0 0 0 2.326-2.375 26.269 26.269 0 0 0 3.35-4.883 26.064 26.064 0 0 0 2.152-5.492c.18-.676.325-1.299.438-1.912.23-1.23.373-2.483.43-3.735.018-.465.025-.936.02-1.407l.002-.073z"/>
        <path fill="#FFF" d="M106.765 86.584a1.698 1.698 0 0 1-2.375.33L83.528 71.155a1.691 1.691 0 0 1-.33-2.371 1.697 1.697 0 0 1 2.375-.329l20.862 15.758c.748.563.896 1.625.33 2.37"/>
        <path stroke="#131415" stroke-linecap="round" stroke-linejoin="round" stroke-width="2" d="M120.764 105.913c-1.116 1.913-3.38 2.321-4.918.814L86.382 77.8c-1.39-1.364-1.652-3.816-.63-5.571 1.117-1.914 3.384-2.321 4.92-.813l29.463 28.927c1.39 1.363 1.653 3.815.63 5.57z"/>
        <path fill="#FFF" d="M95.95 58.14a26.236 26.236 0 0 1-2.54 12.471 26.945 26.945 0 0 1-4.521 6.693l-.332.344c-10.196 10.61-27.088 10.958-37.714.777-6.191-5.929-8.903-14.133-8.036-22.058a26.206 26.206 0 0 1 4.705-12.505 26.805 26.805 0 0 1 2.552-3.094c10.195-10.63 27.088-10.978 37.714-.777A26.512 26.512 0 0 1 95.95 58.14"/>
        <path fill="#FFF" stroke="#131415" stroke-linecap="round" stroke-linejoin="round" stroke-width="2" d="M99.05 58.016a29.33 29.33 0 0 1-2.837 13.932 30.108 30.108 0 0 1-5.045 7.475l-.37.382c-11.384 11.854-30.242 12.242-42.104.87-6.912-6.622-9.94-15.787-8.971-24.639.497-4.924 2.26-9.736 5.252-13.97a29.73 29.73 0 0 1 2.849-3.455c11.381-11.875 30.24-12.263 42.103-.87 5.785 5.556 8.827 12.86 9.123 20.275z"/>
        <path fill="#FFF" d="M89.57 68.791a22.685 22.685 0 0 1-3.806 5.628l-.281.292a22.277 22.277 0 0 1-7.769 5.246c-7.926 3.206-17.357 1.703-23.924-4.596a22.248 22.248 0 0 1-6.758-18.542c.37-3.71 1.706-7.33 3.951-10.513a23.132 23.132 0 0 1 2.145-2.601 22.304 22.304 0 0 1 16.515-6.883 22.257 22.257 0 0 1 15.19 6.233 22.302 22.302 0 0 1 6.87 15.256 22.032 22.032 0 0 1-2.133 10.48"/>
        <path stroke="#131415" stroke-linecap="round" stroke-linejoin="round" stroke-width="2" d="M89.57 68.791a22.685 22.685 0 0 1-3.806 5.628l-.281.292a22.277 22.277 0 0 1-7.769 5.246c-7.926 3.206-17.357 1.703-23.924-4.596a22.248 22.248 0 0 1-6.758-18.542c.37-3.71 1.706-7.33 3.951-10.513a23.132 23.132 0 0 1 2.145-2.601 22.304 22.304 0 0 1 16.515-6.883 22.257 22.257 0 0 1 15.19 6.233 22.302 22.302 0 0 1 6.87 15.256 22.032 22.032 0 0 1-2.133 10.48z"/>
        <path fill="#FFF" d="M81.621 58.366a26.311 26.311 0 0 0-.28-1.658 32.842 32.842 0 0 0-.854-3.474c-.145-.484-.314-.966-.482-1.447a34.62 34.62 0 0 0-1.258-3.07 19.367 19.367 0 0 0-.628-1.291 35.91 35.91 0 0 0-1.583-2.746 21.24 21.24 0 0 0-.764-1.154 34.676 34.676 0 0 0-2.087-2.702c-.293-.348-.596-.684-.899-1.02a39.603 39.603 0 0 0-2.167-2.141c-.325-.292-.64-.583-.977-.84a22.306 22.306 0 0 0-16.514 6.882 23.132 23.132 0 0 0-2.145 2.6c-2.245 3.185-3.581 6.804-3.951 10.514a22.25 22.25 0 0 0 6.758 18.543c6.568 6.298 15.998 7.8 23.924 4.595.09-.146.168-.303.248-.448a33.871 33.871 0 0 0 2.84-7.253c.235-.897.426-1.716.584-2.522.302-1.637.493-3.285.56-4.943.034-.618.034-1.234.034-1.862v-.09a35.941 35.941 0 0 0-.359-4.473"/>
        <path stroke="#131415" stroke-linecap="round" stroke-linejoin="round" stroke-width="2" d="M81.621 58.366a26.311 26.311 0 0 0-.28-1.658 32.842 32.842 0 0 0-.854-3.474c-.145-.484-.314-.966-.482-1.447a34.62 34.62 0 0 0-1.258-3.07 19.367 19.367 0 0 0-.628-1.291 35.91 35.91 0 0 0-1.583-2.746 21.24 21.24 0 0 0-.764-1.154 34.676 34.676 0 0 0-2.087-2.702c-.293-.348-.596-.684-.899-1.02a39.603 39.603 0 0 0-2.167-2.141c-.325-.292-.64-.583-.977-.84a22.306 22.306 0 0 0-16.514 6.882 23.132 23.132 0 0 0-2.145 2.6c-2.245 3.185-3.581 6.804-3.951 10.514a22.25 22.25 0 0 0 6.758 18.543c6.568 6.298 15.998 7.8 23.924 4.595.09-.146.168-.303.248-.448a33.871 33.871 0 0 0 2.84-7.253c.235-.897.426-1.716.584-2.522.302-1.637.493-3.285.56-4.943.034-.618.034-1.234.034-1.862v-.09a35.941 35.941 0 0 0-.359-4.473z"/>
        <path fill="#FFF" d="M48.092 57.666l3.976-.142v-12.19"/>
        <path stroke="#131415" stroke-linecap="round" stroke-linejoin="round" stroke-width="2" d="M48.092 57.666l3.976-.142v-12.19"/>
    </g>
</svg>
