<svg xmlns="http://www.w3.org/2000/svg" xmlns:xlink="http://www.w3.org/1999/xlink" width="15" height="15" viewBox="0 0 15 15">
    <defs>
        <path id="a" d="M0 0h15v15H0z"/>
    </defs>
    <g fill="none" fill-rule="evenodd">
        <g>
            <mask id="b" fill="#fff">
                <use xlink:href="#a"/>
            </mask>
            <path fill="#FFF" d="M11.963 3.838a.949.949 0 0 1 0-1.896.95.95 0 0 1 0 1.896M7.5 11.6A4.106 4.106 0 0 1 3.399 7.5 4.106 4.106 0 0 1 7.5 3.399 4.106 4.106 0 0 1 11.601 7.5 4.106 4.106 0 0 1 7.5 11.601M10.94 0H4.06A4.065 4.065 0 0 0 0 4.06v6.88A4.065 4.065 0 0 0 4.06 15h6.88A4.065 4.065 0 0 0 15 10.94V4.06A4.065 4.065 0 0 0 10.94 0" mask="url(#b)"/>
        </g>
        <path fill="#FFF" d="M7.5 5A2.503 2.503 0 0 0 5 7.5C5 8.878 6.122 10 7.5 10 8.879 10 10 8.878 10 7.5 10 6.121 8.879 5 7.5 5"/>
    </g>
</svg>
