<svg xmlns="http://www.w3.org/2000/svg" xmlns:xlink="http://www.w3.org/1999/xlink" width="19" height="19" viewBox="0 0 19 19">
    <defs>
        <path id="a" d="M0 .045h18.955V19H0z"/>
        <path id="c" d="M0 19.955h18.955V1H0z"/>
    </defs>
    <g fill="none" fill-rule="evenodd" transform="translate(0 -1)">
        <g transform="translate(0 .955)">
            <mask id="b" fill="#fff">
                <use xlink:href="#a"/>
            </mask>
            <path fill="#D2D2D2" d="M0 9.522a9.478 9.478 0 1 1 18.956 0A9.478 9.478 0 0 1 0 9.523" mask="url(#b)"/>
        </g>
        <mask id="d" fill="#fff">
            <use xlink:href="#c"/>
        </mask>
        <path fill="#FFF" d="M4.852 15.006h2.187V8.429H4.852v6.577zM5.96 5.258c-.748 0-1.238.49-1.238 1.136 0 .63.476 1.137 1.209 1.137h.015c.762 0 1.237-.506 1.237-1.137-.015-.645-.475-1.136-1.223-1.136zm8.964 5.976v3.772h-2.187v-3.52c0-.883-.316-1.486-1.108-1.486-.604 0-.963.406-1.121.8-.058.14-.073.336-.073.533v3.673H8.248s.029-5.96 0-6.577h2.187v.93c-.004.009-.01.016-.014.023h.014V9.36c.291-.447.809-1.086 1.971-1.086 1.439 0 2.518.94 2.518 2.96z" mask="url(#d)"/>
    </g>
</svg>
