<svg xmlns="http://www.w3.org/2000/svg" xmlns:xlink="http://www.w3.org/1999/xlink" width="34" height="34" viewBox="0 0 34 34">
    <defs>
        <path id="a" d="M0 0h34v34H0z"/>
    </defs>
    <g fill="none" fill-rule="evenodd">
        <mask id="b" fill="#fff">
            <use xlink:href="#a"/>
        </mask>
        <path fill="#333537" stroke="#F4F4F4" stroke-width="2" d="M17 21.251a4.264 4.264 0 0 1-4.25-4.249A4.265 4.265 0 0 1 17 12.749a4.263 4.263 0 0 1 4.249 4.253A4.262 4.262 0 0 1 17 21.251M17 8.5c-4.676 0-8.499 3.825-8.499 8.502 0 4.674 3.823 8.498 8.499 8.498h8.499c4.676 0 8.501-3.824 8.501-8.498C34 7.605 26.393 0 17 0S0 7.605 0 17.002C0 26.395 7.607 34 17 34h17v-4.249H17A12.73 12.73 0 0 1 4.25 17.002 12.733 12.733 0 0 1 17 4.249c7.054 0 12.75 5.696 12.75 12.753a4.263 4.263 0 0 1-4.251 4.249h-1.19c.723-1.276 1.19-2.68 1.19-4.249 0-4.677-3.825-8.502-8.499-8.502" mask="url(#b)"/>
    </g>
</svg>
