<svg xmlns="http://www.w3.org/2000/svg" width="22" height="35" viewBox="0 0 22 35">
    <g fill="none" fill-rule="evenodd">
        <path fill="#333537" d="M20.167 15c-.46 0-.834.387-.834.864v2.59c0 4.762-3.738 8.637-8.333 8.637-4.595 0-8.333-3.875-8.333-8.636v-2.591c0-.477-.374-.864-.834-.864-.46 0-.833.387-.833.864v2.59c0 5.424 4.042 9.885 9.167 10.325v3.494h-5c-.46 0-.834.387-.834.863 0 .477.374.864.834.864h11.666c.46 0 .834-.387.834-.864 0-.476-.374-.863-.834-.863h-5v-3.494C16.958 28.34 21 23.88 21 18.455v-2.591c0-.477-.373-.864-.833-.864"/>
        <path stroke="#333537" stroke-width=".75" d="M20.167 15c-.46 0-.834.387-.834.864v2.59c0 4.762-3.738 8.637-8.333 8.637-4.595 0-8.333-3.875-8.333-8.636v-2.591c0-.477-.374-.864-.834-.864-.46 0-.833.387-.833.864v2.59c0 5.424 4.042 9.885 9.167 10.325v3.494h-5c-.46 0-.834.387-.834.863 0 .477.374.864.834.864h11.666c.46 0 .834-.387.834-.864 0-.476-.374-.863-.834-.863h-5v-3.494C16.958 28.34 21 23.88 21 18.455v-2.591c0-.477-.373-.864-.833-.864z"/>
        <path fill="#333537" d="M15.286 18.037c0 2.349-1.923 4.26-4.286 4.26-2.363 0-4.286-1.911-4.286-4.26V6.963c0-2.349 1.923-4.26 4.286-4.26 2.363 0 4.286 1.911 4.286 4.26v11.074zM11 1C7.691 1 5 3.675 5 6.963v11.074C5 21.325 7.691 24 11 24s6-2.675 6-5.963V6.963C17 3.675 14.309 1 11 1z"/>
        <path stroke="#333537" stroke-width=".75" d="M15.286 18.037c0 2.349-1.923 4.26-4.286 4.26-2.363 0-4.286-1.911-4.286-4.26V6.963c0-2.349 1.923-4.26 4.286-4.26 2.363 0 4.286 1.911 4.286 4.26v11.074zM11 1C7.691 1 5 3.675 5 6.963v11.074C5 21.325 7.691 24 11 24s6-2.675 6-5.963V6.963C17 3.675 14.309 1 11 1z"/>
    </g>
</svg>
