<svg xmlns="http://www.w3.org/2000/svg" xmlns:xlink="http://www.w3.org/1999/xlink" width="18" height="24" viewBox="0 0 18 24">
    <defs>
        <path id="a" d="M0 0h18v23.5H0z"/>
    </defs>
    <g fill="none" fill-rule="evenodd">
        <mask id="b" fill="#fff">
            <use xlink:href="#a"/>
        </mask>
        <path fill="#e85c41" d="M17.52 2.95L14.92.38a.548.548 0 0 0-.93.4v1.79c0 .73.59 1.32 1.31 1.32h1.82c.5 0 .75-.59.4-.94M13.1 14.11H3.9c-.42 0-.75-.33-.75-.75 0-.41.33-.75.75-.75h9.2a.749.749 0 1 1 0 1.5m0 3.77H3.9c-.42 0-.75-.33-.75-.75 0-.41.33-.75.75-.75h9.2a.749.749 0 1 1 0 1.5M3.9 6.4h4.21c.41 0 .75.34.75.75s-.34.75-.75.75H3.9a.749.749 0 1 1 0-1.5m13.04-1.51h-1.81c-1.18 0-2.14-.96-2.14-2.14V1.06c0-.58-.48-1.06-1.07-1.06H2.37C1.06 0 0 1.06 0 2.37v18.76a2.381 2.381 0 0 0 2.37 2.37h13.26c1.3 0 2.37-1.07 2.37-2.37V5.95c0-.58-.47-1.06-1.06-1.06" mask="url(#b)"/>
    </g>
</svg>
