<svg xmlns="http://www.w3.org/2000/svg" xmlns:xlink="http://www.w3.org/1999/xlink" width="35" height="35" viewBox="0 0 35 35">
<defs>
    <path id="a" d="M0 0h38v38H0z"/>
</defs>
<g fill="none" fill-rule="evenodd" transform="translate(-2 -2)">
    <mask id="b" fill="#fff">
        <use xlink:href="#a"/>
    </mask>
    <path fill="#333537" stroke="#333537" stroke-width=".5" d="M5.295 15.08c2.85 7.056 11.522 15.72 18.584 18.691 4.088 1.238 8.053 1.114 10.53-2.847-1.858-1.732-3.84-3.59-5.698-5.322v-.124c-1.115.99-2.23 2.104-3.345 3.095l-.62.619-.867-.248c-4.708-1.114-12.637-9.16-13.876-13.864l-.248-.866.62-.619c.99-.99 2.105-2.228 3.097-3.342-1.859-1.857-3.593-3.714-5.452-5.57-3.964 2.352-3.964 6.436-2.725 10.397m-1.487.62C2.32 10.747 2.568 6.043 7.277 3.32c0 0 .743-.866 1.858.248.991.99 5.452 5.694 5.452 5.694s.867.99.124 1.856c-.744.99-3.222 3.59-3.222 3.59 1.115 4.209 8.673 11.76 12.761 12.75 0 0 2.602-2.476 3.593-3.219.868-.742 1.859.124 1.859.124s4.708 4.456 5.823 5.57c.991.99.124 1.857.124 1.857-2.726 4.58-7.434 4.951-12.266 3.342C15.826 32.163 6.781 23.126 3.808 15.7" mask="url(#b)"/>
</g>
</svg>
