<svg xmlns="http://www.w3.org/2000/svg" xmlns:xlink="http://www.w3.org/1999/xlink" width="16" height="16" viewBox="0 0 16 16">
    <defs>
        <path id="a" d="M0 0h16v16H0z"/>
    </defs>
    <g fill="none" fill-rule="evenodd">
        <mask id="b" fill="#fff">
            <use xlink:href="#a"/>
        </mask>
        <path fill="#D2D2D2" d="M.138 2.318C.378 1.478 1.76.278 1.76.278s.6-.48 1.38-.18c.84.241 1.322 1.08 1.923 2.58.66 1.56.66 1.498.36 2.038-.241.54-1.142 1.5-1.142 1.5.36 1.02 4.504 5.098 5.526 5.457 0 0 .96-.838 1.44-1.139.54-.3.54-.24 2.043.36 1.562.6 2.342 1.08 2.643 1.92.24.838-.241 1.44-.241 1.44s-1.141 1.377-2.042 1.618C8.906 17.252-1.303 7.116.138 2.318z" mask="url(#b)"/>
    </g>
</svg>
