<svg xmlns="http://www.w3.org/2000/svg" width="111" height="117" viewBox="0 0 111 117">
    <g fill="none" fill-rule="evenodd">
        <path fill="#FFF" d="M90.126 14.92v85.78a8.984 8.984 0 0 1-8.983 8.985H9.983C5.022 109.685 1 105.662 1 100.7V7.36h72.972"/>
        <path stroke="#131415" stroke-linecap="round" stroke-linejoin="round" stroke-width="2" d="M90.126 14.92v85.78a8.984 8.984 0 0 1-8.983 8.985H9.983C5.022 109.685 1 105.662 1 100.7V7.36h72.972"/>
        <path fill="#FFF" d="M90.126 14.527H7.764A6.763 6.763 0 0 1 7.764 1h82.362"/>
        <path stroke="#131415" stroke-linecap="round" stroke-linejoin="round" stroke-width="2" d="M90.126 14.527H7.764A6.763 6.763 0 0 1 7.764 1h82.362"/>
        <path fill="#FFF" d="M90.236 7.764H7.653"/>
        <path stroke="#131415" stroke-linecap="round" stroke-linejoin="round" stroke-width="2" d="M90.236 7.764H7.653"/>
        <path fill="#131415" d="M99.078 97.274V70.606H80.576v26.668H70.18l19.647 18.506 19.648-18.506z"/>
        <path stroke="#131415" stroke-linecap="round" stroke-linejoin="round" stroke-width="2" d="M99.078 97.274V70.606H80.576v26.668H70.18l19.647 18.506 19.648-18.506zM24.789 48.627l11.58-10.683M36.7 37.971l14.973 4.278M51.37 41.89l14.087-8.803"/>
        <path fill="#131415" d="M51.216 43.701a1.818 1.818 0 1 1 .307-3.623 1.818 1.818 0 0 1-.307 3.623"/>
        <path stroke="#131415" stroke-linecap="round" stroke-linejoin="round" stroke-width="2" d="M51.216 43.701a1.818 1.818 0 1 1 .307-3.623 1.818 1.818 0 0 1-.307 3.623z"/>
        <path fill="#131415" d="M36.518 39.926a1.82 1.82 0 1 1 .31-3.627 1.82 1.82 0 0 1-.31 3.627"/>
        <path stroke="#131415" stroke-linecap="round" stroke-linejoin="round" stroke-width="2" d="M36.518 39.926a1.82 1.82 0 1 1 .31-3.627 1.82 1.82 0 0 1-.31 3.627z"/>
        <path fill="#131415" d="M23.748 50.986a1.82 1.82 0 1 1 .31-3.626 1.82 1.82 0 0 1-.31 3.626"/>
        <path stroke="#131415" stroke-linecap="round" stroke-linejoin="round" stroke-width="2" d="M23.748 50.986a1.82 1.82 0 1 1 .31-3.626 1.82 1.82 0 0 1-.31 3.626zM66.924 36.903l.3-6.18-6.187.004M22.122 86.322h46.92"/>
        <path fill="#131415" d="M33.74 86.086h-4.844v-9.681c0-.911.738-1.65 1.65-1.65h1.544c.911 0 1.65.739 1.65 1.65v9.68zM43.25 86.086h-4.845V64.829a1.65 1.65 0 0 1 1.65-1.65H41.6c.91 0 1.65.739 1.65 1.65v21.257zM52.76 86.086h-4.845v-17.07c0-.91.738-1.65 1.65-1.65h1.544c.911 0 1.65.74 1.65 1.65v17.07zM62.27 86.086h-4.845v-26.43c0-.91.738-1.648 1.65-1.648h1.544c.911 0 1.65.738 1.65 1.649v26.429z"/>
    </g>
</svg>
