<svg xmlns="http://www.w3.org/2000/svg" width="37" height="33" viewBox="0 0 37 33">
    <g fill="none" fill-rule="evenodd">
        <path fill="#333537" d="M33.706 30.894H3.283a1.188 1.188 0 0 1-1.19-1.183V17.033h12.58v.818c0 .602.49 1.09 1.093 1.09H21.222c.604 0 1.093-.488 1.093-1.09v-.818h12.593v12.678c0 .656-.533 1.188-1.19 1.188l-.012-.005zM15.778 17.836h5.444V15.12h-5.444v2.715zM3.283 7.373h30.434c.655.001 1.184.53 1.186 1.182v7.369H22.327v-.803c0-.602-.49-1.09-1.093-1.09H15.778c-.603 0-1.093.488-1.093 1.09v.818H2.093V8.571A1.188 1.188 0 0 1 3.27 7.373h.012zm9.384-4.822a.478.478 0 0 1 .475-.473h10.694a.478.478 0 0 1 .474.473v3.732H12.667V2.55zm21.05 3.732h-8.31V2.55C25.407 1.695 24.71 1 23.85 1H13.157c-.86 0-1.556.695-1.556 1.551v3.732H3.283A2.287 2.287 0 0 0 1 8.559v21.152A2.288 2.288 0 0 0 3.283 32h30.434A2.288 2.288 0 0 0 36 29.711V8.56a2.287 2.287 0 0 0-2.283-2.276z"/>
        <path stroke="#333537" d="M33.706 30.894H3.283a1.188 1.188 0 0 1-1.19-1.183V17.033h12.58v.818c0 .602.49 1.09 1.093 1.09H21.222c.604 0 1.093-.488 1.093-1.09v-.818h12.593v12.678c0 .656-.533 1.188-1.19 1.188l-.012-.005zM15.778 17.836h5.444V15.12h-5.444v2.715zM3.283 7.373h30.434c.655.001 1.184.53 1.186 1.182v7.369H22.327v-.803c0-.602-.49-1.09-1.093-1.09H15.778c-.603 0-1.093.488-1.093 1.09v.818H2.093V8.571A1.188 1.188 0 0 1 3.27 7.373h.012zm9.384-4.822a.478.478 0 0 1 .475-.473h10.694a.478.478 0 0 1 .474.473v3.732H12.667V2.55zm21.05 3.732h-8.31V2.55C25.407 1.695 24.71 1 23.85 1H13.157c-.86 0-1.556.695-1.556 1.551v3.732H3.283A2.287 2.287 0 0 0 1 8.559v21.152A2.288 2.288 0 0 0 3.283 32h30.434A2.288 2.288 0 0 0 36 29.711V8.56a2.287 2.287 0 0 0-2.283-2.276z"/>
    </g>
</svg>
