<svg xmlns="http://www.w3.org/2000/svg" width="19" height="15" viewBox="0 0 19 15">
    <path fill="#FFF" fill-rule="nonzero" d="M19 1.775a7.96 7.96 0 0 1-2.238.596A3.825 3.825 0 0 0 18.475.277a7.997 7.997 0 0 1-2.476.92A3.94 3.94 0 0 0 13.154 0C11 0 9.256 1.696 9.256 3.787c0 .297.034.586.1.863A11.175 11.175 0 0 1 1.325.692a3.679 3.679 0 0 0-.527 1.904c0 1.315.688 2.474 1.733 3.153a3.984 3.984 0 0 1-1.765-.476v.048c0 1.835 1.344 3.366 3.126 3.714-.327.086-.671.133-1.027.133-.252 0-.495-.024-.734-.07.496 1.505 1.935 2.6 3.64 2.63a7.965 7.965 0 0 1-4.84 1.62 8.52 8.52 0 0 1-.93-.052A11.25 11.25 0 0 0 5.974 15c7.17 0 11.09-5.772 11.09-10.778l-.013-.49A7.667 7.667 0 0 0 19 1.775z"/>
</svg>
