<svg xmlns="http://www.w3.org/2000/svg" xmlns:xlink="http://www.w3.org/1999/xlink" width="486" height="242" viewBox="0 0 486 242">
    <defs>
        <path id="a" d="M0 .168h247.117v204.357H0z"/>
        <path id="c" d="M0 242.833h288.982V1.1H0z"/>
    </defs>
    <g fill="none" fill-rule="evenodd">
        <path fill="#FFF" fill-rule="nonzero" d="M56 59h430v80H56zM0 59h36v80H0z" opacity=".7"/>
        <g transform="translate(124 -1)">
            <g transform="translate(0 .932)">
                <mask id="b" fill="#fff">
                    <use xlink:href="#a"/>
                </mask>
                <path fill="#FFCD74" d="M247.117 14.25V190.47c0 7.762-6.292 14.056-14.05 14.056H14.05C6.291 204.525 0 198.231 0 190.47V14.25C0 6.46 6.291.168 14.05.168h219.018c7.758 0 14.05 6.294 14.05 14.083" mask="url(#b)"/>
            </g>
            <path fill="#F3F3F3" d="M232.757 43.813v148.409H43.813v-.062c0-16.265-13.134-29.406-29.348-29.406h-.102V43.814h.062c16.254 0 29.388-13.142 29.388-29.367v-.101h159.495v.059c0 16.267 13.133 29.408 29.348 29.408h.101z"/>
            <mask id="d" fill="#fff">
                <use xlink:href="#c"/>
            </mask>
            <path fill="#FFF" d="M75.107 53.889h96.904V40.503H75.107zM51.89 97.138h143.338V83.753H51.89zM51.89 126.925h143.338V113.54H51.89zM51.89 156.714h143.338v-13.386H51.89z" mask="url(#d)"/>
            <path fill="#565656" d="M226.168 147.508V191.4c0 7.765-6.292 14.059-14.05 14.059H101.802l46.009-84.881 41.976 4.611 36.381 22.319z" mask="url(#d)" opacity=".2"/>
            <path fill="#FBC256" d="M232.754 192.22h-22.162v-.08c0-12.2 9.89-22.096 22.122-22.096h.04v22.176z" mask="url(#d)"/>
            <path fill="#FCAF00" d="M286.338 122.07c-35.91-21.265-97.778-23.315-135.909 0-.448 41.752 28.713 96.389 67.956 117.775 36.361-20.489 69.065-73.076 67.953-117.775" mask="url(#d)"/>
            <path fill="#FCAF00" d="M210.95 232.108c-18.309-12.86-34.44-33.62-45.006-56.277-8.002-17.178-12.789-35.478-12.897-52.266 35.26-20.738 94.329-20.716 130.71.022.3 40.936-29.243 92.1-65.389 113.247-2.501-1.425-4.98-3-7.417-4.726m78.003-110.096l-.044-1.447-1.228-.754c-38.84-22.983-101.014-22.96-138.623.022l-1.231.754-.02 1.447c-.196 19.075 5.24 39.705 14.514 58.76 10.867 22.376 27.02 42.574 45.523 55.565a98.724 98.724 0 0 0 9.294 5.783l1.275.69 1.248-.712c39.315-22.14 70.391-76.023 69.292-120.108" mask="url(#d)"/>
            <path fill="#FFF" d="M253.191 163.26c0 19.23-15.577 34.819-34.796 34.819-19.217 0-34.795-15.59-34.795-34.819 0-19.229 15.578-34.818 34.795-34.818 19.219 0 34.796 15.59 34.796 34.818" mask="url(#d)"/>
            <path stroke="#FCAF00" stroke-linecap="round" stroke-linejoin="round" stroke-width="10.793" d="M204.372 165.568l10.758 13.634 19.364-30.138" mask="url(#d)"/>
        </g>
    </g>
</svg>
