<svg xmlns="http://www.w3.org/2000/svg" xmlns:xlink="http://www.w3.org/1999/xlink" width="281" height="140" viewBox="0 0 281 140">
    <defs>
        <path id="a" d="M0 .097h142.88v117.737H0z"/>
    </defs>
    <g fill="none" fill-rule="evenodd">
        <path fill="#FFF" fill-rule="nonzero" d="M32.379 34.568H281v46.091H32.379zM0 34.568h20.815v46.091H0z" opacity=".75"/>
        <g transform="translate(71.695 .537)">
            <mask id="b" fill="#fff">
                <use xlink:href="#a"/>
            </mask>
            <path fill="#131415" d="M142.88 8.21v101.525c0 4.472-3.637 8.099-8.123 8.099H8.123c-4.485 0-8.123-3.627-8.123-8.099V8.21C0 3.723 3.638.097 8.123.097h126.634c4.486 0 8.124 3.626 8.124 8.113" mask="url(#b)"/>
        </g>
        <path fill="#FFF" d="M206.273 25.242v85.503H97.028v-.036c0-9.37-7.594-16.941-16.97-16.941H80V25.242h.036c9.398 0 16.992-7.571 16.992-16.919v-.058h92.218v.034c0 9.372 7.594 16.943 16.969 16.943h.058z"/>
        <path d="M71.695 139.904h167.087V.634H71.695z"/>
        <path fill="#EEE" d="M115.122 31.047h56.028v-7.712h-56.028zM101.698 55.965h82.876v-7.713h-82.876zM101.698 73.126h82.876v-7.712h-82.876zM101.698 90.288h82.876v-7.712h-82.876z"/>
        <path fill="#565656" d="M202.464 84.984v25.287c0 4.474-3.638 8.1-8.124 8.1h-63.784l26.602-48.902 24.27 2.657 21.036 12.858z" opacity=".1"/>
        <path fill="#FBC256" d="M206.271 110.744h-12.813v-.046c0-7.029 5.718-12.73 12.79-12.73h.023v12.776z"/>
        <path fill="#707578" d="M237.253 70.329c-20.763-12.252-56.534-13.433-78.581 0-.26 24.054 16.602 55.532 39.291 67.853 21.024-11.804 39.933-42.101 39.29-67.853"/>
        <path fill="#707578" d="M193.665 133.725c-10.586-7.41-19.913-19.37-26.023-32.423-4.626-9.897-7.394-20.44-7.456-30.112 20.387-11.948 54.54-11.935 75.575.012.174 23.585-16.908 53.062-37.808 65.245a51.755 51.755 0 0 1-4.288-2.722m45.1-63.43l-.025-.834-.71-.434c-22.457-13.241-58.405-13.229-80.15.013l-.712.434-.012.834c-.113 10.99 3.03 22.875 8.392 33.853 6.284 12.892 15.623 24.529 26.321 32.013a57.114 57.114 0 0 0 5.374 3.332l.737.398.722-.41c22.731-12.757 40.7-43.8 40.064-69.199"/>
        <path fill="#FFF" d="M218.088 94.06c0 11.078-9.007 20.06-20.119 20.06-11.111 0-20.118-8.982-20.118-20.06 0-11.079 9.007-20.06 20.118-20.06 11.112 0 20.119 8.981 20.119 20.06"/>
        <path stroke="#131415" stroke-linecap="round" stroke-linejoin="round" stroke-width="5" d="M189.861 95.389l6.22 7.855 11.197-17.364"/>
    </g>
</svg>
