<svg xmlns="http://www.w3.org/2000/svg" xmlns:xlink="http://www.w3.org/1999/xlink" width="281" height="140" viewBox="0 0 281 140">
    <defs>
        <path id="a" d="M0 .097h142.88v117.737H0z"/>
        <path id="c" d="M0 139.904h167.087V.634H0z"/>
    </defs>
    <g fill="none" fill-rule="evenodd">
        <path fill="#FFF" fill-rule="nonzero" d="M32.379 34.568H281v46.091H32.379zM0 34.568h20.815v46.091H0z" opacity=".75"/>
        <g transform="translate(71.695)">
            <g transform="translate(0 .537)">
                <mask id="b" fill="#fff">
                    <use xlink:href="#a"/>
                </mask>
                <path fill="#FFCD74" d="M142.88 8.21v101.525c0 4.472-3.637 8.099-8.123 8.099H8.123c-4.485 0-8.123-3.627-8.123-8.099V8.21C0 3.723 3.638.097 8.123.097h126.634c4.486 0 8.124 3.626 8.124 8.113" mask="url(#b)"/>
            </g>
            <path fill="#F3F3F3" d="M134.578 25.242v85.503H25.332v-.036c0-9.37-7.594-16.941-16.969-16.941h-.058V25.242h.035c9.398 0 16.992-7.571 16.992-16.919v-.058h92.218v.034c0 9.372 7.594 16.943 16.97 16.943h.058z"/>
            <mask id="d" fill="#fff">
                <use xlink:href="#c"/>
            </mask>
            <path fill="#FFF" d="M43.426 31.047h56.029v-7.712H43.426zM30.002 55.965h82.877v-7.713H30.002zM30.002 73.126h82.877v-7.712H30.002zM30.002 90.288h82.877v-7.712H30.002z" mask="url(#d)"/>
            <path fill="#565656" d="M130.768 84.984v25.287c0 4.474-3.638 8.1-8.123 8.1H58.86L85.463 69.47l24.27 2.657 21.035 12.858z" mask="url(#d)" opacity=".2"/>
            <path fill="#FBC256" d="M134.576 110.744h-12.814v-.046c0-7.029 5.718-12.73 12.791-12.73h.023v12.776z" mask="url(#d)"/>
            <path fill="#FCAF00" d="M165.558 70.329c-20.763-12.252-56.535-13.433-78.581 0-.26 24.054 16.601 55.532 39.29 67.853 21.024-11.804 39.934-42.101 39.29-67.853" mask="url(#d)"/>
            <path fill="#FCAF00" d="M121.97 133.725c-10.587-7.41-19.914-19.37-26.023-32.423-4.627-9.897-7.394-20.44-7.457-30.112 20.387-11.948 54.54-11.935 75.575.012.174 23.585-16.908 53.062-37.807 65.245a51.755 51.755 0 0 1-4.289-2.722m45.101-63.43l-.025-.834-.71-.434c-22.457-13.241-58.406-13.229-80.151.013l-.712.434-.011.834c-.113 10.99 3.03 22.875 8.392 33.853 6.283 12.892 15.623 24.529 26.32 32.013a57.114 57.114 0 0 0 5.375 3.332l.737.398.721-.41c22.732-12.757 40.7-43.8 40.064-69.199" mask="url(#d)"/>
            <path fill="#FFF" d="M146.392 94.06c0 11.078-9.006 20.06-20.118 20.06-11.111 0-20.118-8.982-20.118-20.06 0-11.079 9.007-20.06 20.118-20.06 11.112 0 20.118 8.981 20.118 20.06" mask="url(#d)"/>
            <path stroke="#FCAF00" stroke-linecap="round" stroke-linejoin="round" stroke-width="5" d="M118.166 95.389l6.22 7.855 11.196-17.364" mask="url(#d)"/>
        </g>
    </g>
</svg>
