<svg xmlns="http://www.w3.org/2000/svg" xmlns:xlink="http://www.w3.org/1999/xlink" width="417" height="312" viewBox="0 0 417 312">
    <defs>
        <path id="a" d="M33 312h307V0H33z"/>
    </defs>
    <g fill="none" fill-rule="evenodd">
        <g>
            <path fill="#FFF" fill-rule="nonzero" d="M270 55h89v87h-89zM378 55h39v87h-39zM0 214h270v87H0z" opacity=".7"/>
            <path fill="#FFF" d="M257 234.672c-.28.21-.536.42-.816.63a87.526 87.526 0 0 1-3.215 2.514 108.377 108.377 0 0 1-4.567 3.234 108.868 108.868 0 0 1-5.639 3.584c-1.306.793-2.656 1.536-4.008 2.284-.258.115-.49.255-.746.395-3.914 2.071-7.947 3.957-12.116 5.585-.07.048-.14.07-.21.095-1.678.65-3.403 1.279-5.15 1.861a83.043 83.043 0 0 1-4.66 1.466c-10.416 3.05-21.438 4.68-32.832 4.68-1.888 0-3.753-.047-5.616-.14-.14-.023-.258-.023-.373-.023a115.824 115.824 0 0 1-24.908-3.957 110.99 110.99 0 0 1-12.329-4.122A115.498 115.498 0 0 1 115 239.19V103.081C115 96.96 120.195 92 126.628 92H245.35c6.43 0 11.65 4.96 11.65 11.08v131.592z"/>
            <mask id="b" fill="#fff">
                <use xlink:href="#a"/>
            </mask>
            <path fill="#FFCAC9" d="M157 190h65v-12h-65zM152 195v62c-4.107-1.134-8.1-2.5-12-4.097V195h12zM238 194v52.364c-3.81 2.055-7.737 3.926-11.795 5.542A.759.759 0 0 1 226 252v-58h12zM134.5 108a4.5 4.5 0 1 1-.001 9.001A4.5 4.5 0 0 1 134.5 108M158.5 108a4.5 4.5 0 1 1-.001 9.001A4.5 4.5 0 0 1 158.5 108M182.5 108a4.5 4.5 0 1 1-.001 9.001A4.5 4.5 0 0 1 182.5 108M206.5 108a4.5 4.5 0 1 1-.001 9.001A4.5 4.5 0 0 1 206.5 108M231.5 108a4.5 4.5 0 1 1-.001 9.001A4.5 4.5 0 0 1 231.5 108M134.5 132a4.5 4.5 0 1 1-.001 9.001A4.5 4.5 0 0 1 134.5 132M158.5 132a4.5 4.5 0 1 1-.001 9.001A4.5 4.5 0 0 1 158.5 132M182.5 132a4.5 4.5 0 1 1-.001 9.001A4.5 4.5 0 0 1 182.5 132M206.5 132a4.5 4.5 0 1 1-.001 9.001A4.5 4.5 0 0 1 206.5 132M231.5 132a4.5 4.5 0 1 1-.001 9.001A4.5 4.5 0 0 1 231.5 132" mask="url(#b)"/>
            <path fill="#FFCAC9" d="M146.035 200a1.04 1.04 0 0 1-1.035-1.046v-75.082c0-.296.125-.579.343-.778l11.93-10.827a1.03 1.03 0 0 1 1.461.079 1.05 1.05 0 0 1-.078 1.475L147.07 124.34v74.615a1.04 1.04 0 0 1-1.035 1.046M140.953 237c-.267 0-.535-.1-.741-.302l-13.906-13.728a1.033 1.033 0 0 1-.306-.732v-77.45c0-.272.111-.534.306-.728l7.857-7.758a1.058 1.058 0 0 1 1.48 0 1.027 1.027 0 0 1 0 1.463l-7.549 7.453v76.593l13.6 13.424a1.027 1.027 0 0 1 0 1.463 1.058 1.058 0 0 1-.741.302M169.08 184c-.596 0-1.08-.461-1.08-1.029v-56.747c0-.274.114-.534.315-.728L182.16 112.3c.42-.401 1.103-.401 1.526 0a.996.996 0 0 1 0 1.454l-13.526 12.894v56.322c0 .568-.484 1.029-1.08 1.029" mask="url(#b)"/>
            <path fill="#FFCAC9" d="M170.891 183a1.12 1.12 0 0 1-.959-.524L156.152 160a1.019 1.019 0 0 1-.152-.532v-23.412c0-.583.497-1.056 1.11-1.056.613 0 1.11.473 1.11 1.056v23.126l13.628 22.229c.31.505.132 1.152-.4 1.445a1.162 1.162 0 0 1-.557.144M243.969 182c-.27 0-.54-.105-.744-.316l-25.813-26.83a1.039 1.039 0 0 1-.29-.719V124.85l-11.826-12.09a1.037 1.037 0 0 1 .013-1.463 1.03 1.03 0 0 1 1.459.011l12.122 12.394c.19.193.295.453.295.726v29.288l25.528 26.53a1.044 1.044 0 0 1-.027 1.465c-.201.193-.458.289-.717.289" mask="url(#b)"/>
            <path fill="#FFCAC9" d="M244.952 199a1.044 1.044 0 0 1-1.048-1.04v-70.704l-13.598-13.482a1.034 1.034 0 0 1 0-1.469 1.054 1.054 0 0 1 1.484 0l13.904 13.786c.195.196.306.461.306.736v71.134c0 .573-.47 1.039-1.048 1.039" mask="url(#b)"/>
            <path fill="#FFCAC9" d="M233.238 234a1.043 1.043 0 0 1-.742-1.782l11.41-11.353v-70.55l-13.6-13.534a1.04 1.04 0 0 1 0-1.474 1.048 1.048 0 0 1 1.482 0l13.906 13.84c.197.196.306.46.306.738v71.411c0 .278-.109.542-.306.738l-11.714 11.661a1.054 1.054 0 0 1-.742.305M160 255h55v-55h-55zM169.101 151c-.28 0-.562-.107-.78-.322a1.105 1.105 0 0 1 0-1.56l13.798-13.796a1.105 1.105 0 0 1 1.56 0c.428.431.428 1.128 0 1.56l-13.798 13.796a1.105 1.105 0 0 1-.78.322M197.02 183c-.563 0-1.02-.467-1.02-1.042v-35.74c0-.278.108-.541.298-.738l9.962-10.174a1.002 1.002 0 0 1 1.442 0 1.058 1.058 0 0 1 0 1.473l-9.662 9.87v35.31c0 .574-.457 1.041-1.02 1.041" mask="url(#b)"/>
            <path fill="#FEE" d="M46.088 156.68c8.057 72.64 71.445 128.642 147.202 125.167 72.433-3.323 131.224-61.953 134.556-134.189C331.577 66.757 266.913 0 186.612 0c-23.875 0-46.371 5.904-66.096 16.327-8.42 4.447-10.145 15.743-3.406 22.463 4.414 4.402 11.173 5.344 16.694 2.433 16.165-8.524 34.648-13.258 54.262-13.013 59.779.748 109.297 48.804 111.572 108.38 2.457 64.308-49.09 117.211-113.026 117.211-58.252 0-106.222-43.914-112.43-100.358-.783-7.102-6.863-12.442-14.028-12.442-8.434 0-14.995 7.32-14.066 15.68" mask="url(#b)"/>
            <path fill="#FF7F81" d="M187 282v-28.399C124.474 253.348 73.4 202.585 73.4 140H45c0 78.27 63.792 141.749 142 142" mask="url(#b)"/>
            <path fill="#FFA4A6" d="M187 253.912V282c39.053 0 74.407-15.72 100-41.138L267 221c-20.476 20.337-48.759 32.912-80 32.912" mask="url(#b)"/>
            <path fill="#FFA4A6" d="M299.909 142c0 31.24-12.576 59.523-32.909 80.003L286.864 242C312.28 216.406 328 181.05 328 142h-28.091z" mask="url(#b)"/>
            <path fill="#FFCAC9" d="M286.408 41.593l.005-.005C260.71 15.893 225.213 0 186 0v28.399c31.369 0 59.767 12.716 80.331 33.271C286.886 82.232 299.6 110.633 299.6 142H328c0-39.21-15.895-74.712-41.592-100.407" mask="url(#b)"/>
            <path fill="#FF7F81" d="M336.971 186.41c-37.247-22.135-101.416-24.268-140.966 0-.464 43.46 29.78 100.33 70.484 122.59 37.713-21.325 71.637-76.063 70.482-122.59" mask="url(#b)"/>
            <path fill="#FF7F81" d="M198.448 187.83c.244 43.618 30.974 96.894 68.017 117.927 37.64-22.022 68.397-75.283 68.084-117.89-37.878-21.596-99.366-21.61-136.101-.038zM266.51 312l-1.324-.72c-40.305-21.961-72.685-78.048-72.18-125.024l.018-1.509 1.286-.788c39.161-23.938 103.905-23.947 144.325-.02l1.297.768.039 1.51c1.14 45.897-31.223 101.99-72.146 125.043l-1.315.74z" mask="url(#b)"/>
            <path fill="#FFF" d="M297.236 203.004c-5.4.153-9.92 4.549-10.14 9.868-.098 2.4.653 4.605 1.947 6.406 2.795 3.887.691 16.668-2.768 22.713-3.166 5.537-9.488 11.627-12.951 13.007-2.029.807-3.625-.603-6.823-.603-3.197 0-4.794 1.41-6.825.603-3.46-1.38-9.783-7.47-12.949-13.007-3.459-6.045-5.565-18.826-2.77-22.713 1.297-1.801 2.05-4.006 1.95-6.406-.221-5.32-4.74-9.715-10.141-9.868-5.915-.168-10.766 4.509-10.766 10.298 0 3.39 1.69 6.366 4.23 8.275 2.238 1.678 3.602 4.029 4.637 6.957 2.188 6.186 3.932 10.013 7.25 15.814 3.516 6.144 12.874 17.166 14.752 22.826 1.465 4.407 5.722 7.826 10.632 7.826 4.91 0 9.17-3.42 10.632-7.826 1.878-5.66 11.236-16.682 14.752-22.826 3.318-5.8 5.063-9.628 7.25-15.814 1.035-2.928 2.4-5.279 4.637-6.957 2.543-1.91 4.228-4.885 4.228-8.275 0-5.79-4.846-10.466-10.764-10.298" mask="url(#b)"/>
        </g>
        <path fill="#FF7F81" d="M33.226 135.378c-2.877 3.451-.368 8.633 4.177 8.622l44.22-.119c4.547-.013 7.029-5.209 4.133-8.645L63.57 108.914c-2.158-2.561-6.164-2.55-8.308.023l-22.036 26.44z"/>
    </g>
</svg>
