<svg xmlns="http://www.w3.org/2000/svg" xmlns:xlink="http://www.w3.org/1999/xlink" width="205" height="154" viewBox="0 0 205 154">
    <defs>
        <path id="a" d="M16.223 153.381h150.923V0H16.223z"/>
    </defs>
    <g fill="none" fill-rule="evenodd">
        <path fill="#FFF" fill-rule="nonzero" d="M132.734 27.038h43.753v42.77h-43.753zM185.827 27.038H205v42.77h-19.173zM0 105.204h132.734v42.77H0z" opacity=".75"/>
        <path fill="#FFF" d="M126.343 115.366c-.138.103-.263.207-.401.31a43.03 43.03 0 0 1-1.58 1.236 53.28 53.28 0 0 1-2.246 1.59 53.52 53.52 0 0 1-2.772 1.762c-.642.39-1.306.755-1.97 1.122-.127.057-.242.126-.367.195a57.353 57.353 0 0 1-5.957 2.746c-.034.023-.068.034-.103.046-.825.32-1.673.629-2.532.915-.756.263-1.523.503-2.29.72a57.377 57.377 0 0 1-18.902 2.233c-.069-.012-.127-.012-.183-.012a56.94 56.94 0 0 1-12.245-1.945 54.563 54.563 0 0 1-6.06-2.026 56.78 56.78 0 0 1-12.2-6.671V50.675c0-3.009 2.554-5.447 5.716-5.447h58.365c3.16 0 5.727 2.438 5.727 5.447v64.691z"/>
        <mask id="b" fill="#fff">
            <use xlink:href="#a"/>
        </mask>
        <path fill="#DCDCDC" d="M77.182 93.405h31.955v-5.899H77.182zM74.724 95.863v30.48a52.245 52.245 0 0 1-5.9-2.014V95.863h5.9z" mask="url(#b)"/>
        <path fill="#FFCAC9" d="M117.002 95.372v25.742a55.343 55.343 0 0 1-5.798 2.725.373.373 0 0 1-.1.046V95.372h5.898z" mask="url(#b)"/>
        <path fill="#DCDCDC" d="M66.121 53.094a2.213 2.213 0 1 1 0 4.425 2.213 2.213 0 0 1 0-4.425M77.92 53.094a2.213 2.213 0 1 1 0 4.425 2.213 2.213 0 0 1 0-4.425M89.718 53.094a2.213 2.213 0 1 1 0 4.425 2.213 2.213 0 0 1 0-4.425M101.517 53.094a2.213 2.213 0 1 1 0 4.425 2.213 2.213 0 0 1 0-4.425M113.807 53.094a2.213 2.213 0 1 1 0 4.425 2.213 2.213 0 0 1 0-4.425M66.121 64.892a2.213 2.213 0 1 1 0 4.425 2.213 2.213 0 0 1 0-4.425M77.92 64.892a2.213 2.213 0 1 1 0 4.425 2.213 2.213 0 0 1 0-4.425M89.718 64.892a2.213 2.213 0 1 1 0 4.425 2.213 2.213 0 0 1 0-4.425M101.517 64.892a2.213 2.213 0 1 1 0 4.425 2.213 2.213 0 0 1 0-4.425M113.807 64.892a2.213 2.213 0 1 1 0 4.425 2.213 2.213 0 0 1 0-4.425" mask="url(#b)"/>
        <path fill="#DCDCDC" d="M71.792 98.321a.512.512 0 0 1-.509-.514v-36.91a.52.52 0 0 1 .168-.383l5.866-5.323a.506.506 0 0 1 .718.039c.188.21.17.535-.039.725l-5.695 5.17v36.682a.512.512 0 0 1-.51.514M69.293 116.51a.52.52 0 0 1-.364-.148l-6.836-6.748a.508.508 0 0 1-.15-.36V71.179c0-.134.054-.263.15-.358l3.863-3.814a.52.52 0 0 1 .727 0c.2.199.2.52 0 .72l-3.711 3.663v37.654l6.686 6.6c.2.198.2.52 0 .718a.52.52 0 0 1-.365.149M83.12 90.456a.519.519 0 0 1-.53-.506V62.053c0-.135.056-.263.155-.358l6.806-6.487a.55.55 0 0 1 .75 0 .49.49 0 0 1 0 .715l-6.65 6.339V89.95c0 .279-.238.506-.53.506" mask="url(#b)"/>
        <path fill="#DCDCDC" d="M84.011 89.964a.55.55 0 0 1-.471-.257l-6.775-11.05a.5.5 0 0 1-.074-.262V66.886c0-.286.244-.52.545-.52.302 0 .546.234.546.52v11.369l6.7 10.928a.504.504 0 0 1-.197.71.571.571 0 0 1-.274.071M119.937 89.472a.506.506 0 0 1-.366-.155l-12.69-13.19a.51.51 0 0 1-.143-.353V61.377l-5.813-5.943a.51.51 0 0 1 .006-.72.507.507 0 0 1 .717.006l5.96 6.093a.507.507 0 0 1 .145.357v14.398l12.55 13.042a.513.513 0 0 1-.014.72.507.507 0 0 1-.352.142" mask="url(#b)"/>
        <path fill="#DCDCDC" d="M120.42 97.83a.513.513 0 0 1-.515-.511V62.56l-6.685-6.628a.508.508 0 0 1 0-.722c.202-.2.528-.2.73 0l6.835 6.777c.096.097.15.227.15.362v34.97c0 .282-.23.51-.515.51" mask="url(#b)"/>
        <path fill="#DCDCDC" d="M114.661 115.036a.513.513 0 0 1-.365-.876l5.61-5.581V73.896l-6.686-6.654c-.2-.2-.2-.523 0-.724.202-.201.528-.201.728 0l6.837 6.803a.51.51 0 0 1 .15.363v35.107a.51.51 0 0 1-.15.363l-5.76 5.732a.518.518 0 0 1-.364.15M78.657 125.36h27.038V98.32H78.657zM83.131 74.233a.543.543 0 0 1-.383-.925l6.783-6.783a.543.543 0 0 1 .766 0 .543.543 0 0 1 0 .767l-6.782 6.782a.543.543 0 0 1-.384.159M96.856 89.964a.507.507 0 0 1-.501-.512v-17.57c0-.137.053-.266.146-.363l4.898-5.002c.195-.2.512-.2.709 0a.52.52 0 0 1 0 .724l-4.75 4.852v17.359a.507.507 0 0 1-.502.512" mask="url(#b)"/>
        <path fill="#DCDCDC" d="M22.657 77.025c3.961 35.71 35.123 63.241 72.366 61.533 35.608-1.634 64.51-30.457 66.148-65.968C163.006 32.818 131.216 0 91.74 0 80.002 0 68.943 2.902 59.247 8.027c-4.14 2.186-4.988 7.739-1.675 11.043 2.17 2.164 5.493 2.627 8.207 1.195 7.947-4.19 17.033-6.517 26.676-6.397 29.387.368 53.73 23.992 54.849 53.28 1.208 31.615-24.133 57.622-55.564 57.622-28.638 0-52.22-21.588-55.272-49.336-.385-3.492-3.374-6.117-6.896-6.117-4.146 0-7.372 3.599-6.915 7.708" mask="url(#b)"/>
        <path fill="#131415" d="M91.93 138.633v-13.96c-30.738-.126-55.846-25.081-55.846-55.848H22.122c0 38.478 31.36 69.685 69.808 69.808" mask="url(#b)"/>
        <path fill="#383B3D" d="M91.93 124.825v13.808c19.2 0 36.58-7.728 49.161-20.223l-9.832-9.765c-10.066 9.998-23.97 16.18-39.329 16.18" mask="url(#b)"/>
        <path fill="#383B3D" d="M147.437 69.808c0 15.358-6.182 29.262-16.178 39.33l9.766 9.83c12.493-12.581 20.222-29.963 20.222-49.16h-13.81z" mask="url(#b)"/>
        <path fill="#686C6D" d="M140.8 20.447l.002-.002C128.167 7.813 110.716 0 91.44 0v13.961c15.421 0 29.382 6.251 39.491 16.356 10.105 10.109 16.355 24.07 16.355 39.491h13.962c0-19.276-7.814-36.729-20.447-49.36" mask="url(#b)"/>
        <path fill="#131415" d="M165.657 91.64c-18.31-10.881-49.856-11.93-69.3 0-.228 21.366 14.64 49.323 34.651 60.266 18.54-10.483 35.217-37.393 34.65-60.265" mask="url(#b)"/>
        <path fill="#131415" d="M97.558 92.338c.12 21.443 15.227 47.634 33.438 57.974 18.504-10.826 33.624-37.01 33.47-57.955-18.62-10.617-48.849-10.624-66.908-.019zm33.46 61.043l-.651-.354c-19.814-10.796-35.732-38.368-35.484-61.463l.009-.741.632-.387c19.252-11.768 51.08-11.773 70.951-.01l.638.377.019.743c.56 22.563-15.35 50.139-35.467 61.471l-.647.364z" mask="url(#b)"/>
        <path fill="#FFF" d="M146.123 99.798c-2.655.075-4.876 2.236-4.985 4.851a5.016 5.016 0 0 0 .957 3.15c1.374 1.91.34 8.194-1.36 11.165-1.557 2.722-4.665 5.716-6.367 6.395-.998.396-1.782-.297-3.354-.297s-2.357.693-3.355.297c-1.702-.679-4.81-3.673-6.366-6.395-1.7-2.971-2.736-9.254-1.362-11.165a5.003 5.003 0 0 0 .958-3.15c-.108-2.615-2.33-4.776-4.985-4.85-2.908-.083-5.292 2.216-5.292 5.062 0 1.666.83 3.13 2.079 4.068 1.1.825 1.77 1.98 2.28 3.42 1.075 3.041 1.933 4.922 3.564 7.774 1.728 3.02 6.329 8.439 7.252 11.221.72 2.167 2.813 3.848 5.227 3.848 2.413 0 4.507-1.681 5.226-3.848.924-2.782 5.524-8.2 7.253-11.22 1.63-2.853 2.488-4.734 3.564-7.775.509-1.44 1.18-2.595 2.28-3.42 1.25-.939 2.078-2.402 2.078-4.068 0-2.846-2.383-5.145-5.292-5.063" mask="url(#b)"/>
        <path fill="#131415" d="M27.167 53.554L16.334 66.553c-1.414 1.696-.18 4.244 2.054 4.238l21.738-.058c2.236-.007 3.456-2.56 2.032-4.25l-10.907-12.94c-1.06-1.26-3.03-1.254-4.084.011"/>
    </g>
</svg>
