<svg xmlns="http://www.w3.org/2000/svg" xmlns:xlink="http://www.w3.org/1999/xlink" width="160" height="148" viewBox="0 0 160 148">
    <defs>
        <path id="a" d="M0 134h153.942V.024H0z"/>
    </defs>
    <g fill="none" fill-rule="evenodd">
        <path fill="#FFF" fill-rule="nonzero" d="M80.43 47.227l-.653 37.097L.413 82.95l.653-37.097zM150.245 2.275l-.653 37.097-120.501-2.087.653-37.097z" opacity=".7"/>
        <path fill="#DCDCDC" d="M98.296 131.043h-30.49l-21.433-64.1 73.67-1.245z"/>
        <g transform="translate(6 14)">
            <path fill="#131415" d="M76.97 77.374c-21.294 0-38.557-17.174-38.557-38.359C38.413 17.831 55.676.658 76.971.658c21.295 0 38.559 17.173 38.559 38.357 0 21.185-17.264 38.36-38.56 38.36z"/>
            <path fill="#212324" d="M76.97 1.291c-20.909 0-37.92 16.923-37.92 37.724S56.061 76.74 76.97 76.74c20.91 0 37.923-16.924 37.923-37.725 0-20.801-17.012-37.724-37.922-37.724m0 76.716c-21.613 0-39.196-17.49-39.196-38.992 0-21.5 17.583-38.991 39.196-38.991s39.196 17.491 39.196 38.99c0 21.503-17.583 38.993-39.196 38.993"/>
            <path fill="#212324" d="M76.97 67.012c-15.541 0-28.14-12.534-28.14-27.997 0-15.46 12.599-27.996 28.14-27.996 15.543 0 28.143 12.536 28.143 27.996 0 15.463-12.6 27.997-28.142 27.997z"/>
            <mask id="b" fill="#fff">
                <use xlink:href="#a"/>
            </mask>
            <path fill="#686C6D" d="M14.595 121.775h124.752v-14.613H14.595z" mask="url(#b)"/>
            <path fill="#383B3D" d="M0 134h153.943v-14.614H0z" mask="url(#b)"/>
            <path fill="#131415" d="M145.235 91.331l-63.527 28.038-2.874-6.424 63.528-28.04z" mask="url(#b)"/>
            <path fill="#131415" d="M80.517 113.588l1.838 4.11 61.198-27.01-1.838-4.111-61.198 27.011zm.544 7.454l-3.91-8.742 65.858-29.068 3.91 8.743-65.858 29.067z" mask="url(#b)"/>
            <path fill="#131415" d="M139.348 78.482l-7.64 14.472 12.068-4.886z" mask="url(#b)"/>
            <path fill="#131415" d="M139.272 81.353l-4.814 9.118 7.605-3.077-2.791-6.041zm-10.313 14.082l10.466-19.824 6.065 13.131-16.531 6.693z" mask="url(#b)"/>
            <path fill="#131415" d="M125.606 84.048l-3.572 16.261 18.106-8.013z" mask="url(#b)"/>
            <path fill="#131415" d="M126.481 86.003l-2.665 12.13 13.505-5.976-10.84-6.154zm-6.23 16.483l4.48-20.394 18.226 10.345-22.706 10.05z" mask="url(#b)"/>
            <path fill="#131415" d="M115.002 88.741l-3.572 16.262 18.105-8.013z" mask="url(#b)"/>
            <path fill="#131415" d="M115.877 90.697l-2.665 12.13 13.504-5.977-10.84-6.153zm-6.23 16.483l4.48-20.395 18.226 10.345-22.706 10.05z" mask="url(#b)"/>
            <path fill="#131415" d="M104.83 93.243l-3.572 16.261 18.105-8.012z" mask="url(#b)"/>
            <path fill="#131415" d="M105.704 95.198l-2.664 12.13 13.505-5.976-10.84-6.154zm-6.229 16.483l4.48-20.394 18.226 10.345-22.706 10.05z" mask="url(#b)"/>
            <path fill="#131415" d="M94.225 97.936l-3.572 16.262 18.105-8.013z" mask="url(#b)"/>
            <path fill="#131415" d="M95.1 99.892l-2.665 12.13 13.506-5.977L95.1 99.892zm-6.229 16.482l4.48-20.394 18.226 10.346-22.706 10.048zM8.707 91.348l63.527 28.038 2.873-6.424-63.526-28.039z" mask="url(#b)"/>
            <path fill="#131415" d="M10.39 90.704l61.197 27.01 1.838-4.109-61.197-27.01-1.838 4.109zm62.492 30.355L7.024 91.993l3.91-8.743 65.856 29.067-3.908 8.742z" mask="url(#b)"/>
            <path fill="#131415" d="M14.594 78.5l7.64 14.47-12.068-4.885z" mask="url(#b)"/>
            <path fill="#131415" d="M11.88 87.411l7.605 3.078-4.814-9.12-2.791 6.042zm13.104 8.041L8.45 88.76l6.068-13.132 10.465 19.824z" mask="url(#b)"/>
            <path fill="#131415" d="M28.336 84.065l3.572 16.262-18.105-8.013z" mask="url(#b)"/>
            <path fill="#131415" d="M16.62 92.174l13.506 5.978-2.665-12.131-10.84 6.153zm17.07 10.33l-22.706-10.05L29.211 82.11l4.48 20.395z" mask="url(#b)"/>
            <path fill="#131415" d="M38.94 88.759l3.573 16.261-18.106-8.012z" mask="url(#b)"/>
            <path fill="#131415" d="M27.225 96.868l13.506 5.977-2.665-12.13-10.84 6.153zm17.07 10.33l-22.706-10.05 18.227-10.345 4.479 20.394z" mask="url(#b)"/>
            <path fill="#131415" d="M49.112 93.26l3.572 16.262-18.105-8.013z" mask="url(#b)"/>
            <path fill="#131415" d="M37.397 101.37l13.505 5.977-2.664-12.131-10.841 6.153zm17.07 10.329l-22.707-10.05 18.227-10.345 4.48 20.395z" mask="url(#b)"/>
            <path fill="#131415" d="M59.717 97.954l3.572 16.261-18.105-8.012z" mask="url(#b)"/>
            <path fill="#131415" d="M48.001 106.063l13.506 5.976-2.665-12.13-10.84 6.154zm17.071 10.33l-22.707-10.05 18.227-10.345 4.48 20.394z" mask="url(#b)"/>
            <path fill="#212324" d="M76.97 96.69c-6.901 0-12.502 5.573-12.502 12.439s5.6 12.604 12.503 12.604c6.902 0 12.503-5.738 12.503-12.604 0-6.866-5.6-12.439-12.503-12.439" mask="url(#b)"/>
            <path fill="#131415" d="M89.474 109.129c0 6.866-5.6 12.604-12.503 12.604V96.69c6.902 0 12.503 5.572 12.503 12.439" mask="url(#b)"/>
            <path fill="#DCDCDC" d="M76.97 101.666c-4.15 0-7.5 3.333-7.5 7.462 0 4.131 3.35 7.463 7.5 7.463 4.152 0 7.503-3.332 7.503-7.463 0-4.13-3.351-7.462-7.502-7.462" mask="url(#b)"/>
            <path fill="#AAB0B2" d="M84.473 109.129c0 4.13-3.35 7.463-7.502 7.463v-14.926c4.151 0 7.502 3.333 7.502 7.463" mask="url(#b)"/>
            <path fill="#131415" d="M79.472 109.129c0 1.392-1.1 2.487-2.502 2.487a2.47 2.47 0 0 1-2.5-2.487 2.47 2.47 0 0 1 2.5-2.489 2.47 2.47 0 0 1 2.502 2.489" mask="url(#b)"/>
            <path fill="#131415" d="M79.472 109.129c0 1.392-1.1 2.487-2.502 2.487v-4.976a2.47 2.47 0 0 1 2.502 2.489" mask="url(#b)"/>
            <path fill="#DCDCDC" d="M87.32 38.458a6.711 6.711 0 0 0-2.073.433c.013.177.026.356.026.534 0 3.102-1.727 5.804-4.27 7.217.1.462.246.916.449 1.354.172.38.388.73.625 1.066 3.475-1.828 5.852-5.46 5.852-9.634 0-.326-.024-.643-.049-.957-.086-.004-.172-.016-.259-.016l-.302.003zM72.943 46.64c-2.547-1.413-4.274-4.116-4.274-7.216 0-.18.017-.357.03-.534a6.806 6.806 0 0 0-2.075-.433l-.298-.006c-.087 0-.17.014-.256.016-.03.316-.049.634-.049.957 0 4.176 2.376 7.805 5.849 9.635a6.86 6.86 0 0 0 .629-1.067c.193-.435.338-.887.444-1.352zM72.521 32.465a8.277 8.277 0 0 1 8.9 0 6.807 6.807 0 0 0 1.385-1.64c.087-.152.157-.309.236-.464a10.94 10.94 0 0 0-6.07-1.831c-2.242 0-4.328.674-6.065 1.83.076.156.146.316.233.465a6.76 6.76 0 0 0 1.381 1.64z" mask="url(#b)"/>
            <path fill="#DCDCDC" d="M74.393 39.427c0-1.16.779-2.128 1.843-2.446v-1.413c-.062-.006-.122-.006-.182-.011a8.22 8.22 0 0 1-4.71-2.183 8.235 8.235 0 0 1-1.471-1.805c-.056-.093-.098-.195-.151-.291a8.094 8.094 0 0 1-1.005-3.877c0-3.573 2.3-6.604 5.501-7.732v-1.53c-5.51 1.245-9.63 6.14-9.63 11.998 0 .687.073 1.355.181 2.01-.767.258-1.519.591-2.246 1.01-5.099 2.93-7.3 8.926-5.629 14.298l1.33-.765a8.194 8.194 0 0 1 3.98-8.606A8.17 8.17 0 0 1 66.3 37.01c.128 0 .258-.016.388-.01a8.238 8.238 0 0 1 2.239.423 8.2 8.2 0 0 1 4.403 3.435l1.187-.682c-.07-.24-.123-.489-.123-.748M91.42 33.155a12.628 12.628 0 0 0-2.248-1.01 11.82 11.82 0 0 0 .182-2.01c0-5.859-4.118-10.754-9.63-11.998v1.53c3.203 1.13 5.5 4.16 5.5 7.732a8.065 8.065 0 0 1-1.004 3.877c-.052.095-.094.198-.15.292a8.102 8.102 0 0 1-1.468 1.803 8.195 8.195 0 0 1-4.714 2.185c-.057.004-.121.004-.181.01v1.413c1.061.318 1.841 1.286 1.841 2.446 0 .26-.047.505-.123.744l1.19.682c.026-.037.047-.077.076-.116a8.228 8.228 0 0 1 4.324-3.318 8.341 8.341 0 0 1 2.24-.425c.129-.004.26.012.391.012a8.223 8.223 0 0 1 4.092 1.075 8.194 8.194 0 0 1 3.981 8.606l1.33.765a12.285 12.285 0 0 0-5.63-14.295M78.608 41.393c-.447.369-1.014.6-1.637.6-.624 0-1.191-.231-1.637-.6l-1.341.769a8.14 8.14 0 0 1 .315 5.08 8.358 8.358 0 0 1-.477 1.363 8.185 8.185 0 0 1-3.372 3.7c-3.109 1.785-6.897 1.32-9.483-.875l-1.33.764c3.84 4.125 10.157 5.224 15.258 2.295A12.298 12.298 0 0 0 76.97 53a12.381 12.381 0 0 0 2.064 1.49c5.104 2.93 11.42 1.83 15.259-2.295l-1.33-.764c-2.585 2.194-6.372 2.66-9.483.875a8.158 8.158 0 0 1-2.79-2.64 8.918 8.918 0 0 1-.583-1.06 8.208 8.208 0 0 1-.475-1.363 8.14 8.14 0 0 1 .316-5.08l-1.34-.77z" mask="url(#b)"/>
        </g>
    </g>
</svg>
