<svg xmlns="http://www.w3.org/2000/svg" xmlns:xlink="http://www.w3.org/1999/xlink" width="384" height="359" viewBox="0 0 384 359">
    <defs>
        <path id="a" d="M0 324h369.86V.057H0z"/>
    </defs>
    <g fill="none" fill-rule="evenodd">
        <path fill="#FFF" fill-rule="nonzero" d="M1.564 111.224l190.97 3.334-1.57 89.986-190.97-3.334zM70.57.456l289.956 5.061-1.57 89.987L69 90.443z" opacity=".7"/>
        <path fill="#DEF8F1" d="M235.75 318h-73.255L111 163.011 288 160z"/>
        <g transform="translate(14 35)">
            <path fill="#10D2AC" d="M277.571 94.336c0 51.222-41.478 92.748-92.64 92.748-51.163 0-92.639-41.526-92.639-92.748S133.768 1.59 184.93 1.59c51.163 0 92.641 41.523 92.641 92.745"/>
            <path fill="#DEF8F1" d="M184.93 3.121c-50.238 0-91.108 40.918-91.108 91.214 0 50.295 40.87 91.215 91.108 91.215 50.238 0 91.11-40.92 91.11-91.215 0-50.296-40.872-91.214-91.11-91.214m0 185.494c-51.926 0-94.171-42.291-94.171-94.28C90.759 42.35 133.004.057 184.93.057c51.926 0 94.171 42.294 94.171 94.278 0 51.989-42.245 94.28-94.17 94.28"/>
            <path fill="#35E2B8" d="M252.544 94.336c0 37.386-30.272 67.693-67.615 67.693-37.34 0-67.612-30.307-67.612-67.693 0-37.383 30.272-67.693 67.612-67.693 37.343 0 67.615 30.31 67.615 67.693"/>
            <mask id="b" fill="#fff">
                <use xlink:href="#a"/>
            </mask>
            <path fill="#35E2B8" d="M35.065 294.441h299.73V259.11H35.065z" mask="url(#b)"/>
            <path fill="#10D2AC" d="M0 324h369.862v-35.335H0z" mask="url(#b)"/>
            <path fill="#00AB86" d="M348.942 220.83l-152.63 67.794-6.905-15.534 152.631-67.797z" mask="url(#b)"/>
            <path fill="#00AB86" d="M193.45 274.646l4.416 9.936L344.9 219.274l-4.417-9.939-147.033 65.311zm1.306 18.023l-9.392-21.139 158.229-70.282 9.392 21.139-158.229 70.282z" mask="url(#b)"/>
            <path fill="#00AB86" d="M334.798 189.763l-18.357 34.99 28.996-11.812z" mask="url(#b)"/>
            <path fill="#00AB86" d="M334.614 196.704l-11.567 22.048 18.272-7.442-6.705-14.606zm-24.778 34.048l25.146-47.93 14.573 31.749-39.719 16.181z" mask="url(#b)"/>
            <path fill="#00AB86" d="M301.781 203.22l-8.582 39.319 43.5-19.374z" mask="url(#b)"/>
            <path fill="#00AB86" d="M303.883 207.948l-6.402 29.33 32.446-14.45-26.044-14.88zm-14.968 39.855l10.765-49.313 43.789 25.015-54.554 24.298z" mask="url(#b)"/>
            <path fill="#00AB86" d="M276.303 214.568l-8.582 39.32 43.5-19.375z" mask="url(#b)"/>
            <path fill="#00AB86" d="M278.405 219.296l-6.403 29.33 32.446-14.45-26.043-14.88zm-14.969 39.855l10.765-49.312 43.789 25.014-54.554 24.298z" mask="url(#b)"/>
            <path fill="#00AB86" d="M251.863 225.452l-8.582 39.32 43.5-19.374z" mask="url(#b)"/>
            <path fill="#00AB86" d="M253.965 230.181l-6.402 29.33 32.448-14.451-26.046-14.879zM239 270.036l10.761-49.313 43.792 25.014L239 270.036z" mask="url(#b)"/>
            <path fill="#00AB86" d="M226.385 236.8l-8.582 39.32 43.5-19.374z" mask="url(#b)"/>
            <path fill="#00AB86" d="M228.487 241.53l-6.403 29.329 32.449-14.45-26.046-14.88zm-14.966 39.852l10.762-49.31 43.792 25.014-54.554 24.296z" mask="url(#b)"/>
            <path fill="#10D2AC" d="M20.92 220.871l152.63 67.794 6.902-15.534-152.628-67.794z" mask="url(#b)"/>
            <path fill="#10D2AC" d="M24.962 219.314l147.033 65.309 4.417-9.936-147.033-65.309-4.417 9.936zm150.143 73.395L16.876 222.43l9.393-21.139 158.226 70.282-9.39 21.136z" mask="url(#b)"/>
            <path fill="#10D2AC" d="M35.064 189.804l18.356 34.99-28.995-11.811z" mask="url(#b)"/>
            <path fill="#10D2AC" d="M28.542 211.353l18.272 7.442-11.566-22.05-6.706 14.608zm31.484 19.442l-39.722-16.181 14.578-31.752 25.144 47.933z" mask="url(#b)"/>
            <path fill="#10D2AC" d="M68.08 203.262l8.582 39.32-43.5-19.375z" mask="url(#b)"/>
            <path fill="#10D2AC" d="M39.932 222.87l32.45 14.452-6.403-29.332-26.047 14.88zm41.012 24.975l-54.553-24.298 43.792-25.014 10.761 49.312z" mask="url(#b)"/>
            <path fill="#10D2AC" d="M93.559 214.61l8.582 39.32-43.5-19.374z" mask="url(#b)"/>
            <path fill="#10D2AC" d="M65.41 234.218l32.45 14.452-6.403-29.331-26.046 14.879zm41.013 24.975l-54.554-24.298 43.792-25.014 10.762 49.312z" mask="url(#b)"/>
            <path fill="#10D2AC" d="M117.997 225.495l8.582 39.32-43.5-19.375z" mask="url(#b)"/>
            <path fill="#10D2AC" d="M89.85 245.102l32.448 14.453-6.403-29.332-26.046 14.879zm41.014 24.976l-54.556-24.299 43.791-25.014 10.765 49.313z" mask="url(#b)"/>
            <path fill="#10D2AC" d="M143.476 236.843l8.582 39.32-43.5-19.375z" mask="url(#b)"/>
            <path fill="#10D2AC" d="M115.328 256.45l32.449 14.45-6.403-29.329-26.046 14.88zm41.014 24.976l-54.556-24.298 43.792-25.015 10.764 49.313zM184.93 233.788c-16.583 0-30.04 13.475-30.04 30.075 0 16.602 13.457 30.476 30.04 30.476s30.04-13.874 30.04-30.476c0-16.6-13.457-30.075-30.04-30.075" mask="url(#b)"/>
            <path fill="#00AB86" d="M214.97 263.864c0 16.602-13.456 30.476-30.04 30.476v-60.551c16.584 0 30.04 13.472 30.04 30.075" mask="url(#b)"/>
            <path fill="#CEF5EA" d="M184.93 245.818c-9.973 0-18.023 8.06-18.023 18.044 0 9.988 8.05 18.045 18.023 18.045 9.973 0 18.024-8.057 18.024-18.045 0-9.984-8.05-18.044-18.024-18.044" mask="url(#b)"/>
            <path fill="#ACD9CB" d="M202.955 263.864c0 9.984-8.05 18.044-18.024 18.044v-36.089c9.974 0 18.024 8.06 18.024 18.045" mask="url(#b)"/>
            <path fill="#00C891" d="M190.939 263.864c0 3.367-2.644 6.013-6.01 6.013-3.364 0-6.007-2.646-6.007-6.013 0-3.368 2.643-6.017 6.007-6.017 3.366 0 6.01 2.65 6.01 6.017" mask="url(#b)"/>
            <path fill="#00765C" d="M190.939 263.864c0 3.367-2.644 6.013-6.01 6.013v-12.03c3.366 0 6.01 2.65 6.01 6.017" mask="url(#b)"/>
            <path fill="#DEF8F1" d="M209.793 92.989c-1.726.074-3.401.45-4.978 1.046.03.429.063.86.063 1.292 0 7.5-4.15 14.032-10.26 17.449a15.82 15.82 0 0 0 1.077 3.274c.415.918.933 1.765 1.504 2.578 8.347-4.421 14.06-13.204 14.06-23.296 0-.786-.058-1.554-.118-2.313-.207-.008-.415-.038-.622-.038l-.726.008zM175.252 112.772c-6.119-3.416-10.268-9.952-10.268-17.449 0-.437.04-.863.07-1.292a16.262 16.262 0 0 0-4.983-1.046l-.717-.013c-.208 0-.407.032-.614.038-.071.765-.118 1.532-.118 2.313 0 10.097 5.707 18.872 14.052 23.296.57-.813 1.088-1.66 1.511-2.578a17.82 17.82 0 0 0 1.067-3.269zM174.24 78.497c3.099-1.977 6.754-3.14 10.69-3.14 3.937 0 7.598 1.163 10.691 3.14 1.29-1.13 2.434-2.455 3.328-3.965.21-.366.377-.746.568-1.123a26.168 26.168 0 0 0-14.584-4.427 26.09 26.09 0 0 0-14.573 4.427c.183.377.352.762.56 1.123a16.32 16.32 0 0 0 3.32 3.965z" mask="url(#b)"/>
            <path fill="#DEF8F1" d="M178.736 95.332c0-2.805 1.872-5.145 4.428-5.916V86c-.148-.014-.292-.014-.437-.028-4.37-.488-8.284-2.422-11.318-5.276-1.37-1.286-2.572-2.74-3.533-4.364-.133-.227-.234-.473-.362-.705-1.509-2.794-2.415-5.973-2.415-9.373 0-8.641 5.527-15.969 13.217-18.697v-3.7c-13.238 3.012-23.135 14.848-23.135 29.012 0 1.66.174 3.277.433 4.861a29.575 29.575 0 0 0-5.396 2.442c-12.25 7.084-17.54 21.58-13.525 34.57l3.195-1.85c-1.484-8.037 2.095-16.492 9.564-20.807 3.11-1.8 6.492-2.598 9.837-2.6.308 0 .622-.039.933-.025 1.841.077 3.642.448 5.38 1.024 4.149 1.385 7.861 4.097 10.393 8.021l.185.284 2.851-1.65c-.17-.58-.295-1.182-.295-1.807M219.643 80.167a30.247 30.247 0 0 0-5.398-2.444c.27-1.582.436-3.196.436-4.859 0-14.166-9.894-26.003-23.138-29.01v3.701c7.698 2.731 13.217 10.059 13.217 18.694 0 3.4-.9 6.582-2.414 9.373-.123.23-.224.478-.36.708-.955 1.628-2.161 3.078-3.528 4.359-3.039 2.862-6.948 4.798-11.323 5.282-.14.01-.292.01-.437.024v3.417c2.55.77 4.425 3.11 4.425 5.915 0 .628-.115 1.221-.298 1.797l2.86 1.65c.062-.09.114-.186.182-.281 2.537-3.922 6.253-6.637 10.39-8.022 1.747-.576 3.55-.947 5.38-1.027.311-.01.628.028.942.028 3.339.008 6.724.808 9.831 2.6 7.47 4.315 11.048 12.77 9.564 20.808l3.195 1.849c4.015-12.98-1.274-27.478-13.526-34.562M188.864 100.083c-1.075.894-2.436 1.45-3.934 1.45-1.498 0-2.862-.556-3.934-1.45l-3.222 1.86a19.8 19.8 0 0 1 .759 12.285 20.296 20.296 0 0 1-1.146 3.293 19.84 19.84 0 0 1-1.402 2.562 19.718 19.718 0 0 1-6.7 6.386c-7.469 4.315-16.572 3.19-22.784-2.117l-3.194 1.849c9.223 9.974 24.401 12.631 36.658 5.55a29.553 29.553 0 0 0 4.962-3.603 29.753 29.753 0 0 0 4.96 3.602c12.262 7.082 27.437 4.425 36.66-5.55l-3.194-1.848c-6.212 5.306-15.31 6.432-22.784 2.117a19.653 19.653 0 0 1-6.702-6.386 21.604 21.604 0 0 1-1.403-2.562 19.93 19.93 0 0 1-1.14-3.293 19.8 19.8 0 0 1 .759-12.285l-3.22-1.86z" mask="url(#b)"/>
        </g>
    </g>
</svg>
