<svg xmlns="http://www.w3.org/2000/svg" xmlns:xlink="http://www.w3.org/1999/xlink" width="571" height="317" viewBox="0 0 571 317">
    <defs>
        <path id="a" d="M0 316.108h570.914V0H0z"/>
    </defs>
    <g fill="none" fill-rule="evenodd">
        <path fill="#1D47A8" d="M64.239 163.042c0 15.869-12.864 28.733-28.733 28.733-15.87 0-28.734-12.864-28.734-28.733 0-15.868 12.864-28.732 28.734-28.732 15.869 0 28.733 12.864 28.733 28.732"/>
        <path stroke="#1D47A8" stroke-linecap="round" stroke-linejoin="round" stroke-width="2" d="M64.239 163.042c0 15.869-12.864 28.733-28.733 28.733-15.87 0-28.734-12.864-28.734-28.733 0-15.868 12.864-28.732 28.734-28.732 15.869 0 28.733 12.864 28.733 28.732z"/>
        <path fill="#1D47A8" d="M488.423 71.31c0 19.633-15.916 35.55-35.55 35.55-19.633 0-35.55-15.917-35.55-35.55 0-19.634 15.917-35.55 35.55-35.55 19.634 0 35.55 15.916 35.55 35.55"/>
        <path stroke="#1D47A8" stroke-linecap="round" stroke-linejoin="round" stroke-width="2" d="M488.423 71.31c0 19.633-15.916 35.55-35.55 35.55-19.633 0-35.55-15.917-35.55-35.55 0-19.634 15.917-35.55 35.55-35.55 19.634 0 35.55 15.916 35.55 35.55z"/>
        <path fill="#1D47A8" d="M432.157 270.914c0 24.407-19.787 44.194-44.195 44.194s-44.195-19.787-44.195-44.194c0-24.408 19.787-44.195 44.195-44.195s44.195 19.787 44.195 44.195"/>
        <path stroke="#1D47A8" stroke-linecap="round" stroke-linejoin="round" stroke-width="2" d="M432.157 270.914c0 24.407-19.787 44.194-44.195 44.194s-44.195-19.787-44.195-44.194c0-24.408 19.787-44.195 44.195-44.195s44.195 19.787 44.195 44.195z"/>
        <path fill="#1D47A8" d="M286.487 155.862c-15.578 1.348-30.434-6.833-37.651-20.712a38.643 38.643 0 0 1 4.738-42.684 38.662 38.662 0 0 1 41.27-11.957c14.898 4.729 25.493 17.96 26.826 33.54 1.81 21.257-13.927 39.974-35.182 41.812h-.001zm78.314 39.502l9.226-10.973c4.067-4.821 4.067-11.874.017-16.704l-11.013-13.138h-.014a87.29 87.29 0 0 0 6.878-21.71l16.548-4.411a12.974 12.974 0 0 0 9.718-13.654l-1.247-14.424c-.562-6.323-5.603-11.294-11.92-11.798l-17.06-1.503a87.139 87.139 0 0 0-10.501-20.194l8.622-14.667c3.16-5.453 1.95-12.401-2.884-16.453l-10.973-9.226c-4.821-4.067-11.874-4.067-16.704-.017l-13.14 11.014.003.013a87.243 87.243 0 0 0-21.711-6.878l-4.411-16.55a12.972 12.972 0 0 0-13.654-9.715l-14.424 1.247c-6.323.56-11.294 5.602-11.797 11.919L252.855 34.6a86.89 86.89 0 0 0-20.193 10.502l-14.667-8.623c-5.453-3.161-12.402-1.95-16.453 2.885l-9.226 10.973a12.99 12.99 0 0 0 .096 16.694l11.012 13.139a87.812 87.812 0 0 0-6.877 21.71l-16.548 4.412c-6.138 1.566-10.236 7.34-9.718 13.654l1.247 14.424a13.002 13.002 0 0 0 11.919 11.797l17.06 1.505a87.467 87.467 0 0 0 10.5 20.193l-8.607 14.666c-3.161 5.452-1.95 12.4 2.87 16.454l10.973 9.226a13 13 0 0 0 16.719.015l13.138-11.012-.001-.015a87.4 87.4 0 0 0 21.697 6.88l4.41 16.548c1.582 6.135 7.358 10.248 13.669 9.716l14.424-1.247c6.308-.56 11.293-5.603 11.797-11.92l1.504-17.058a87.365 87.365 0 0 0 20.194-10.503l14.545 8.519a12.987 12.987 0 0 0 16.462-2.771z"/>
        <path stroke="#1D47A8" stroke-linecap="round" stroke-linejoin="round" stroke-width="2" d="M286.487 155.862c-15.578 1.348-30.434-6.833-37.651-20.712a38.643 38.643 0 0 1 4.738-42.684 38.662 38.662 0 0 1 41.27-11.957c14.898 4.729 25.493 17.96 26.826 33.54 1.81 21.257-13.927 39.974-35.182 41.812h-.001zm78.314 39.502l9.226-10.973c4.067-4.821 4.067-11.874.017-16.704l-11.013-13.138h-.014a87.29 87.29 0 0 0 6.878-21.71l16.548-4.411a12.974 12.974 0 0 0 9.718-13.654l-1.247-14.424c-.562-6.323-5.603-11.294-11.92-11.798l-17.06-1.503a87.139 87.139 0 0 0-10.501-20.194l8.622-14.667c3.16-5.453 1.95-12.401-2.884-16.453l-10.973-9.226c-4.821-4.067-11.874-4.067-16.704-.017l-13.14 11.014.003.013a87.243 87.243 0 0 0-21.711-6.878l-4.411-16.55a12.972 12.972 0 0 0-13.654-9.715l-14.424 1.247c-6.323.56-11.294 5.602-11.797 11.919L252.855 34.6a86.89 86.89 0 0 0-20.193 10.502l-14.667-8.623c-5.453-3.161-12.402-1.95-16.453 2.885l-9.226 10.973a12.99 12.99 0 0 0 .096 16.694l11.012 13.139a87.812 87.812 0 0 0-6.877 21.71l-16.548 4.412c-6.138 1.566-10.236 7.34-9.718 13.654l1.247 14.424a13.002 13.002 0 0 0 11.919 11.797l17.06 1.505a87.467 87.467 0 0 0 10.5 20.193l-8.607 14.666c-3.161 5.452-1.95 12.4 2.87 16.454l10.973 9.226a13 13 0 0 0 16.719.015l13.138-11.012-.001-.015a87.4 87.4 0 0 0 21.697 6.88l4.41 16.548c1.582 6.135 7.358 10.248 13.669 9.716l14.424-1.247c6.308-.56 11.293-5.603 11.797-11.92l1.504-17.058a87.365 87.365 0 0 0 20.194-10.503l14.545 8.519a12.987 12.987 0 0 0 16.462-2.771z"/>
        <path fill="#FFF" d="M276.846 152.533c-15.578 1.347-30.434-6.833-37.65-20.712a38.645 38.645 0 0 1 4.737-42.685 38.663 38.663 0 0 1 41.27-11.956c14.898 4.728 25.493 17.96 26.826 33.54 1.81 21.257-13.927 39.974-35.183 41.812zm78.314 39.502l9.226-10.973c4.067-4.822 4.067-11.875.017-16.704L353.39 151.22h-.015a87.246 87.246 0 0 0 6.88-21.71l16.547-4.412a12.974 12.974 0 0 0 9.718-13.654l-1.247-14.423c-.562-6.323-5.604-11.294-11.919-11.798l-17.06-1.504a87.144 87.144 0 0 0-10.503-20.194l8.623-14.666c3.161-5.453 1.951-12.401-2.884-16.453l-10.973-9.227c-4.82-4.067-11.874-4.067-16.704-.016l-13.139 11.013.001.014a87.223 87.223 0 0 0-21.71-6.878l-4.41-16.55a12.975 12.975 0 0 0-13.655-9.716l-14.424 1.248c-6.323.56-11.294 5.602-11.798 11.918l-1.504 17.06a86.87 86.87 0 0 0-20.193 10.502l-14.667-8.623c-5.453-3.161-12.402-1.95-16.453 2.885l-9.226 10.973a12.989 12.989 0 0 0 .096 16.694l11.012 13.139a87.785 87.785 0 0 0-6.877 21.71l-16.549 4.412c-6.137 1.566-10.235 7.34-9.717 13.654l1.247 14.424a13.002 13.002 0 0 0 11.92 11.797l17.06 1.505a87.467 87.467 0 0 0 10.5 20.193l-8.608 14.665c-3.16 5.453-1.95 12.4 2.87 16.455l10.973 9.226a13 13 0 0 0 16.72.015l13.137-11.012v-.015a87.4 87.4 0 0 0 21.696 6.88l4.411 16.548c1.58 6.135 7.356 10.248 13.668 9.716l14.424-1.248c6.308-.56 11.293-5.602 11.796-11.918l1.505-17.06a87.343 87.343 0 0 0 20.194-10.502l14.545 8.519a12.987 12.987 0 0 0 16.462-2.771z"/>
        <path stroke="#1D47A8" stroke-linecap="round" stroke-linejoin="round" stroke-width="2" d="M276.846 152.533c-15.578 1.347-30.434-6.833-37.65-20.712a38.645 38.645 0 0 1 4.737-42.685 38.663 38.663 0 0 1 41.27-11.956c14.898 4.728 25.493 17.96 26.826 33.54 1.81 21.257-13.927 39.974-35.183 41.812zm78.314 39.502l9.226-10.973c4.067-4.822 4.067-11.875.017-16.704L353.39 151.22h-.015a87.246 87.246 0 0 0 6.88-21.71l16.547-4.412a12.974 12.974 0 0 0 9.718-13.654l-1.247-14.423c-.562-6.323-5.604-11.294-11.919-11.798l-17.06-1.504a87.144 87.144 0 0 0-10.503-20.194l8.623-14.666c3.161-5.453 1.951-12.401-2.884-16.453l-10.973-9.227c-4.82-4.067-11.874-4.067-16.704-.016l-13.139 11.013.001.014a87.223 87.223 0 0 0-21.71-6.878l-4.41-16.55a12.975 12.975 0 0 0-13.655-9.716l-14.424 1.248c-6.323.56-11.294 5.602-11.798 11.918l-1.504 17.06a86.87 86.87 0 0 0-20.193 10.502l-14.667-8.623c-5.453-3.161-12.402-1.95-16.453 2.885l-9.226 10.973a12.989 12.989 0 0 0 .096 16.694l11.012 13.139a87.785 87.785 0 0 0-6.877 21.71l-16.549 4.412c-6.137 1.566-10.235 7.34-9.717 13.654l1.247 14.424a13.002 13.002 0 0 0 11.92 11.797l17.06 1.505a87.467 87.467 0 0 0 10.5 20.193l-8.608 14.665c-3.16 5.453-1.95 12.4 2.87 16.455l10.973 9.226a13 13 0 0 0 16.72.015l13.137-11.012v-.015a87.4 87.4 0 0 0 21.696 6.88l4.411 16.548c1.58 6.135 7.356 10.248 13.668 9.716l14.424-1.248c6.308-.56 11.293-5.602 11.796-11.918l1.505-17.06a87.343 87.343 0 0 0 20.194-10.502l14.545 8.519a12.987 12.987 0 0 0 16.462-2.771z"/>
        <path fill="#1D47A8" d="M503.282 215.41a22.856 22.856 0 0 1-21.103-14.105 22.834 22.834 0 0 1 29.856-29.813 22.831 22.831 0 0 1 14.08 21.103c-.018 12.6-10.23 22.814-22.832 22.814h-.001zm44.076 27.23l5.988-5.986a7.667 7.667 0 0 0 .86-9.83l-5.813-8.292h-.007a51.577 51.577 0 0 0 5.152-12.426l9.963-1.754a7.664 7.664 0 0 0 6.413-7.541v-8.55a7.672 7.672 0 0 0-6.413-7.55l-9.963-1.753a51.52 51.52 0 0 0-5.152-12.418l5.82-8.193a7.668 7.668 0 0 0-.86-9.83l-5.988-5.986a7.666 7.666 0 0 0-9.83-.86l-8.292 5.812v.009a51.5 51.5 0 0 0-12.426-5.153l-1.754-9.963a7.662 7.662 0 0 0-7.54-6.413h-8.551a7.672 7.672 0 0 0-7.55 6.413l-1.753 9.963a51.327 51.327 0 0 0-12.418 5.153l-8.192-5.821a7.666 7.666 0 0 0-9.83.86l-5.987 5.987a7.674 7.674 0 0 0-.793 9.829l5.813 8.293a51.9 51.9 0 0 0-5.154 12.426l-9.962 1.754a7.672 7.672 0 0 0-6.414 7.54v8.552a7.68 7.68 0 0 0 6.414 7.549l9.962 1.754a51.708 51.708 0 0 0 5.154 12.418l-5.813 8.192a7.675 7.675 0 0 0 .852 9.829l5.987 5.987a7.68 7.68 0 0 0 9.838.86l8.292-5.812v-.008a51.63 51.63 0 0 0 12.418 5.152l1.754 9.963a7.68 7.68 0 0 0 7.549 6.414h8.55a7.68 7.68 0 0 0 7.55-6.414l1.754-9.963a51.623 51.623 0 0 0 12.417-5.152l8.126 5.753a7.672 7.672 0 0 0 9.829-.793z"/>
        <path stroke="#1D47A8" stroke-linecap="round" stroke-linejoin="round" stroke-width="2" d="M503.282 215.41a22.856 22.856 0 0 1-21.103-14.105 22.834 22.834 0 0 1 29.856-29.813 22.831 22.831 0 0 1 14.08 21.103c-.018 12.6-10.23 22.814-22.832 22.814h-.001zm44.076 27.23l5.988-5.986a7.667 7.667 0 0 0 .86-9.83l-5.813-8.292h-.007a51.577 51.577 0 0 0 5.152-12.426l9.963-1.754a7.664 7.664 0 0 0 6.413-7.541v-8.55a7.672 7.672 0 0 0-6.413-7.55l-9.963-1.753a51.52 51.52 0 0 0-5.152-12.418l5.82-8.193a7.668 7.668 0 0 0-.86-9.83l-5.988-5.986a7.666 7.666 0 0 0-9.83-.86l-8.292 5.812v.009a51.5 51.5 0 0 0-12.426-5.153l-1.754-9.963a7.662 7.662 0 0 0-7.54-6.413h-8.551a7.672 7.672 0 0 0-7.55 6.413l-1.753 9.963a51.327 51.327 0 0 0-12.418 5.153l-8.192-5.821a7.666 7.666 0 0 0-9.83.86l-5.987 5.987a7.674 7.674 0 0 0-.793 9.829l5.813 8.293a51.9 51.9 0 0 0-5.154 12.426l-9.962 1.754a7.672 7.672 0 0 0-6.414 7.54v8.552a7.68 7.68 0 0 0 6.414 7.549l9.962 1.754a51.708 51.708 0 0 0 5.154 12.418l-5.813 8.192a7.675 7.675 0 0 0 .852 9.829l5.987 5.987a7.68 7.68 0 0 0 9.838.86l8.292-5.812v-.008a51.63 51.63 0 0 0 12.418 5.152l1.754 9.963a7.68 7.68 0 0 0 7.549 6.414h8.55a7.68 7.68 0 0 0 7.55-6.414l1.754-9.963a51.623 51.623 0 0 0 12.417-5.152l8.126 5.753a7.672 7.672 0 0 0 9.829-.793z"/>
        <path fill="#FFF" d="M496.83 215.41a22.855 22.855 0 0 1-21.102-14.105 22.827 22.827 0 0 1 4.96-24.877 22.835 22.835 0 0 1 38.975 16.167c-.017 12.6-10.23 22.814-22.832 22.814zm44.076 27.23l5.988-5.986a7.666 7.666 0 0 0 .86-9.83l-5.813-8.292h-.007a51.537 51.537 0 0 0 5.152-12.426l9.963-1.754a7.662 7.662 0 0 0 6.413-7.541v-8.55a7.67 7.67 0 0 0-6.413-7.55l-9.963-1.753a51.48 51.48 0 0 0-5.152-12.418l5.82-8.193a7.666 7.666 0 0 0-.86-9.83l-5.988-5.986a7.666 7.666 0 0 0-9.83-.86l-8.291 5.812v.009a51.506 51.506 0 0 0-12.427-5.153l-1.753-9.963a7.664 7.664 0 0 0-7.541-6.413h-8.551a7.673 7.673 0 0 0-7.55 6.413l-1.753 9.963a51.303 51.303 0 0 0-12.417 5.153l-8.192-5.821a7.668 7.668 0 0 0-9.83.86l-5.987 5.987a7.673 7.673 0 0 0-.794 9.829l5.813 8.293a51.897 51.897 0 0 0-5.153 12.426l-9.963 1.754a7.67 7.67 0 0 0-6.413 7.54v8.552a7.68 7.68 0 0 0 6.413 7.549l9.963 1.754a51.705 51.705 0 0 0 5.153 12.418l-5.813 8.192a7.676 7.676 0 0 0 .852 9.829l5.988 5.987a7.678 7.678 0 0 0 9.837.86l8.293-5.812v-.008a51.623 51.623 0 0 0 12.417 5.152l1.754 9.963a7.68 7.68 0 0 0 7.55 6.414h8.55a7.678 7.678 0 0 0 7.549-6.414l1.754-9.963a51.63 51.63 0 0 0 12.418-5.152l8.125 5.753a7.672 7.672 0 0 0 9.829-.793z"/>
        <path stroke="#1D47A8" stroke-linecap="round" stroke-linejoin="round" stroke-width="2" d="M496.83 215.41a22.855 22.855 0 0 1-21.102-14.105 22.827 22.827 0 0 1 4.96-24.877 22.835 22.835 0 0 1 38.975 16.167c-.017 12.6-10.23 22.814-22.832 22.814zm44.076 27.23l5.988-5.986a7.666 7.666 0 0 0 .86-9.83l-5.813-8.292h-.007a51.537 51.537 0 0 0 5.152-12.426l9.963-1.754a7.662 7.662 0 0 0 6.413-7.541v-8.55a7.67 7.67 0 0 0-6.413-7.55l-9.963-1.753a51.48 51.48 0 0 0-5.152-12.418l5.82-8.193a7.666 7.666 0 0 0-.86-9.83l-5.988-5.986a7.666 7.666 0 0 0-9.83-.86l-8.291 5.812v.009a51.506 51.506 0 0 0-12.427-5.153l-1.753-9.963a7.664 7.664 0 0 0-7.541-6.413h-8.551a7.673 7.673 0 0 0-7.55 6.413l-1.753 9.963a51.303 51.303 0 0 0-12.417 5.153l-8.192-5.821a7.668 7.668 0 0 0-9.83.86l-5.987 5.987a7.673 7.673 0 0 0-.794 9.829l5.813 8.293a51.897 51.897 0 0 0-5.153 12.426l-9.963 1.754a7.67 7.67 0 0 0-6.413 7.54v8.552a7.68 7.68 0 0 0 6.413 7.549l9.963 1.754a51.705 51.705 0 0 0 5.153 12.418l-5.813 8.192a7.676 7.676 0 0 0 .852 9.829l5.988 5.987a7.678 7.678 0 0 0 9.837.86l8.293-5.812v-.008a51.623 51.623 0 0 0 12.417 5.152l1.754 9.963a7.68 7.68 0 0 0 7.55 6.414h8.55a7.678 7.678 0 0 0 7.549-6.414l1.754-9.963a51.63 51.63 0 0 0 12.418-5.152l8.125 5.753a7.672 7.672 0 0 0 9.829-.793z"/>
        <path fill="#1D47A8" d="M103.7 101.024a11.011 11.011 0 1 1-7.787-18.804 11.016 11.016 0 0 1 18.8 7.799c-.007 6.078-4.934 11.005-11.012 11.005m21.26 13.136l2.888-2.889a3.697 3.697 0 0 0 .415-4.741l-2.803-4h-.004a24.885 24.885 0 0 0 2.485-5.993l4.806-.847a3.697 3.697 0 0 0 3.094-3.637v-4.125a3.702 3.702 0 0 0-3.094-3.641l-4.806-.846a24.847 24.847 0 0 0-2.485-5.99l2.807-3.951a3.698 3.698 0 0 0-.415-4.742l-2.888-2.888a3.697 3.697 0 0 0-4.741-.415l-4 2.803v.004a24.875 24.875 0 0 0-5.994-2.485l-.846-4.806a3.695 3.695 0 0 0-3.637-3.093h-4.125a3.7 3.7 0 0 0-3.642 3.093l-.845 4.806a24.788 24.788 0 0 0-5.991 2.485l-3.951-2.807a3.697 3.697 0 0 0-4.741.415l-2.89 2.888a3.703 3.703 0 0 0-.381 4.742l2.803 4a25.013 25.013 0 0 0-2.485 5.993l-4.806.846a3.698 3.698 0 0 0-3.093 3.637v4.125a3.704 3.704 0 0 0 3.093 3.642l4.806.845a24.948 24.948 0 0 0 2.485 5.991l-2.803 3.951a3.701 3.701 0 0 0 .41 4.741l2.888 2.889a3.707 3.707 0 0 0 4.747.415l4-2.804v-.004a24.893 24.893 0 0 0 5.989 2.486l.845 4.805a3.706 3.706 0 0 0 3.642 3.094h4.125a3.705 3.705 0 0 0 3.642-3.094l.845-4.805a24.924 24.924 0 0 0 5.99-2.486l3.92 2.776a3.702 3.702 0 0 0 4.74-.383"/>
        <path stroke="#1D47A8" stroke-linecap="round" stroke-linejoin="round" stroke-width="2" d="M103.7 101.024a11.011 11.011 0 1 1-7.787-18.804 11.016 11.016 0 0 1 18.8 7.799c-.007 6.078-4.934 11.005-11.012 11.005zm21.26 13.136l2.889-2.889a3.697 3.697 0 0 0 .415-4.741l-2.803-4h-.004a24.885 24.885 0 0 0 2.485-5.993l4.806-.847a3.697 3.697 0 0 0 3.094-3.637v-4.125a3.702 3.702 0 0 0-3.094-3.641l-4.806-.846a24.847 24.847 0 0 0-2.485-5.99l2.807-3.951a3.698 3.698 0 0 0-.415-4.742l-2.888-2.888a3.697 3.697 0 0 0-4.741-.415l-4 2.803v.004a24.875 24.875 0 0 0-5.994-2.485l-.846-4.806a3.695 3.695 0 0 0-3.637-3.093h-4.125a3.7 3.7 0 0 0-3.642 3.093l-.845 4.806a24.788 24.788 0 0 0-5.991 2.485l-3.951-2.807a3.697 3.697 0 0 0-4.741.415l-2.89 2.888a3.703 3.703 0 0 0-.381 4.742l2.803 4a25.013 25.013 0 0 0-2.485 5.993l-4.806.846a3.698 3.698 0 0 0-3.093 3.637v4.125a3.704 3.704 0 0 0 3.093 3.642l4.806.845a24.948 24.948 0 0 0 2.485 5.991l-2.803 3.951a3.701 3.701 0 0 0 .41 4.741l2.888 2.889a3.707 3.707 0 0 0 4.747.415l4-2.804v-.004a24.893 24.893 0 0 0 5.989 2.486l.845 4.805a3.706 3.706 0 0 0 3.642 3.094h4.125a3.705 3.705 0 0 0 3.642-3.094l.845-4.805a24.924 24.924 0 0 0 5.99-2.486l3.92 2.776a3.702 3.702 0 0 0 4.74-.383z"/>
        <path fill="#FFF" d="M100.76 101.024a11.024 11.024 0 0 1-10.179-6.804 11.01 11.01 0 0 1 2.393-12 11.016 11.016 0 0 1 18.8 7.799c-.008 6.078-4.935 11.005-11.013 11.005zm21.261 13.136l2.888-2.889a3.697 3.697 0 0 0 .415-4.741l-2.803-4h-.004a24.885 24.885 0 0 0 2.485-5.993l4.806-.847a3.698 3.698 0 0 0 3.094-3.637v-4.125a3.702 3.702 0 0 0-3.094-3.641l-4.806-.846a24.847 24.847 0 0 0-2.485-5.99l2.807-3.951a3.698 3.698 0 0 0-.415-4.742l-2.888-2.888a3.697 3.697 0 0 0-4.74-.415l-4 2.803v.004a24.866 24.866 0 0 0-5.996-2.485l-.845-4.806a3.696 3.696 0 0 0-3.637-3.093h-4.125a3.7 3.7 0 0 0-3.642 3.093l-.845 4.806a24.788 24.788 0 0 0-5.99 2.485l-3.952-2.807a3.697 3.697 0 0 0-4.74.415l-2.89 2.888a3.703 3.703 0 0 0-.382 4.742l2.803 4a24.932 24.932 0 0 0-2.485 5.993l-4.806.846a3.698 3.698 0 0 0-3.093 3.637v4.125a3.704 3.704 0 0 0 3.093 3.642l4.806.845a24.868 24.868 0 0 0 2.485 5.991l-2.803 3.951a3.701 3.701 0 0 0 .411 4.741l2.887 2.889a3.706 3.706 0 0 0 4.746.415l4-2.804v-.004a24.917 24.917 0 0 0 5.99 2.486l.845 4.805a3.706 3.706 0 0 0 3.642 3.094h4.125a3.705 3.705 0 0 0 3.642-3.094l.845-4.805a24.924 24.924 0 0 0 5.991-2.486l3.92 2.776a3.702 3.702 0 0 0 4.74-.383z"/>
        <path stroke="#1D47A8" stroke-linecap="round" stroke-linejoin="round" stroke-width="2" d="M100.76 101.024a11.024 11.024 0 0 1-10.179-6.804 11.01 11.01 0 0 1 2.393-12 11.016 11.016 0 0 1 18.8 7.799c-.008 6.078-4.935 11.005-11.013 11.005zm21.261 13.136l2.888-2.889a3.697 3.697 0 0 0 .415-4.741l-2.803-4h-.004a24.885 24.885 0 0 0 2.485-5.993l4.806-.847a3.698 3.698 0 0 0 3.094-3.637v-4.125a3.702 3.702 0 0 0-3.094-3.641l-4.806-.846a24.847 24.847 0 0 0-2.485-5.99l2.807-3.951a3.698 3.698 0 0 0-.415-4.742l-2.888-2.888a3.697 3.697 0 0 0-4.74-.415l-4 2.803v.004a24.866 24.866 0 0 0-5.996-2.485l-.845-4.806a3.696 3.696 0 0 0-3.637-3.093h-4.125a3.7 3.7 0 0 0-3.642 3.093l-.845 4.806a24.788 24.788 0 0 0-5.99 2.485l-3.952-2.807a3.697 3.697 0 0 0-4.74.415l-2.89 2.888a3.703 3.703 0 0 0-.382 4.742l2.803 4a24.932 24.932 0 0 0-2.485 5.993l-4.806.846a3.698 3.698 0 0 0-3.093 3.637v4.125a3.704 3.704 0 0 0 3.093 3.642l4.806.845a24.868 24.868 0 0 0 2.485 5.991l-2.803 3.951a3.701 3.701 0 0 0 .411 4.741l2.887 2.889a3.706 3.706 0 0 0 4.746.415l4-2.804v-.004a24.917 24.917 0 0 0 5.99 2.486l.845 4.805a3.706 3.706 0 0 0 3.642 3.094h4.125a3.705 3.705 0 0 0 3.642-3.094l.845-4.805a24.924 24.924 0 0 0 5.991-2.486l3.92 2.776a3.702 3.702 0 0 0 4.74-.383z"/>
        <path fill="#1D47A8" d="M130.384 241.029a16.39 16.39 0 0 1-15.134-10.115 16.376 16.376 0 1 1 31.509-6.247c-.012 9.037-7.337 16.362-16.375 16.362m31.61 19.529l4.294-4.294a5.495 5.495 0 0 0 .617-7.048l-4.168-5.948h-.006a36.982 36.982 0 0 0 3.695-8.911l7.146-1.258a5.497 5.497 0 0 0 4.6-5.408v-6.133a5.504 5.504 0 0 0-4.6-5.414l-7.146-1.258a36.883 36.883 0 0 0-3.695-8.905l4.174-5.876a5.497 5.497 0 0 0-.617-7.05l-4.294-4.293a5.499 5.499 0 0 0-7.049-.617l-5.947 4.169v.006a36.948 36.948 0 0 0-8.912-3.695l-1.258-7.146a5.495 5.495 0 0 0-5.408-4.6h-6.133a5.503 5.503 0 0 0-5.414 4.6l-1.257 7.146a36.79 36.79 0 0 0-8.906 3.695l-5.875-4.175a5.499 5.499 0 0 0-7.049.617l-4.295 4.294a5.502 5.502 0 0 0-.568 7.049l4.168 5.947a37.222 37.222 0 0 0-3.695 8.913l-7.145 1.257a5.5 5.5 0 0 0-4.599 5.408v6.132a5.505 5.505 0 0 0 4.6 5.414l7.144 1.258a37.078 37.078 0 0 0 3.695 8.907l-4.168 5.875a5.504 5.504 0 0 0 .61 7.048l4.295 4.295a5.505 5.505 0 0 0 7.055.616l5.947-4.167v-.006a37.07 37.07 0 0 0 8.906 3.695l1.257 7.144a5.508 5.508 0 0 0 5.414 4.6h6.133a5.506 5.506 0 0 0 5.414-4.6l1.258-7.144a37.063 37.063 0 0 0 8.905-3.695l5.83 4.126a5.5 5.5 0 0 0 7.047-.57"/>
        <path stroke="#1D47A8" stroke-linecap="round" stroke-linejoin="round" stroke-width="2" d="M130.384 241.029a16.39 16.39 0 0 1-15.134-10.115 16.376 16.376 0 1 1 31.509-6.247c-.012 9.037-7.337 16.362-16.375 16.362zm31.61 19.529l4.294-4.294a5.495 5.495 0 0 0 .617-7.048l-4.168-5.948h-.006a36.982 36.982 0 0 0 3.695-8.911l7.146-1.258a5.497 5.497 0 0 0 4.6-5.408v-6.133a5.504 5.504 0 0 0-4.6-5.414l-7.146-1.258a36.883 36.883 0 0 0-3.695-8.905l4.174-5.876a5.497 5.497 0 0 0-.617-7.05l-4.294-4.293a5.499 5.499 0 0 0-7.049-.617l-5.947 4.169v.006a36.948 36.948 0 0 0-8.912-3.695l-1.258-7.146a5.495 5.495 0 0 0-5.408-4.6h-6.133a5.503 5.503 0 0 0-5.414 4.6l-1.257 7.146a36.79 36.79 0 0 0-8.906 3.695l-5.875-4.175a5.499 5.499 0 0 0-7.049.617l-4.295 4.294a5.502 5.502 0 0 0-.568 7.049l4.168 5.947a37.222 37.222 0 0 0-3.695 8.913l-7.145 1.257a5.5 5.5 0 0 0-4.599 5.408v6.132a5.505 5.505 0 0 0 4.6 5.414l7.144 1.258a37.078 37.078 0 0 0 3.695 8.907l-4.168 5.875a5.504 5.504 0 0 0 .61 7.048l4.295 4.295a5.505 5.505 0 0 0 7.055.616l5.947-4.167v-.006a37.07 37.07 0 0 0 8.906 3.695l1.257 7.144a5.508 5.508 0 0 0 5.414 4.6h6.133a5.506 5.506 0 0 0 5.414-4.6l1.258-7.144a37.063 37.063 0 0 0 8.905-3.695l5.83 4.126a5.5 5.5 0 0 0 7.047-.57z"/>
        <path fill="#FFF" d="M125.353 241.029a16.391 16.391 0 0 1-15.134-10.115 16.376 16.376 0 1 1 31.509-6.247c-.012 9.037-7.337 16.362-16.374 16.362zm31.61 19.529l4.294-4.294a5.495 5.495 0 0 0 .617-7.048l-4.168-5.948h-.006a36.941 36.941 0 0 0 3.695-8.911l7.146-1.258a5.497 5.497 0 0 0 4.6-5.408v-6.133a5.504 5.504 0 0 0-4.6-5.414l-7.146-1.258a36.883 36.883 0 0 0-3.695-8.905l4.174-5.876a5.497 5.497 0 0 0-.617-7.05l-4.294-4.293a5.498 5.498 0 0 0-7.048-.617l-5.948 4.169v.006a36.948 36.948 0 0 0-8.912-3.695l-1.258-7.146a5.494 5.494 0 0 0-5.408-4.6h-6.133a5.502 5.502 0 0 0-5.413 4.6l-1.258 7.146a36.79 36.79 0 0 0-8.906 3.695l-5.875-4.175a5.5 5.5 0 0 0-7.049.617l-4.295 4.294a5.503 5.503 0 0 0-.568 7.049l4.168 5.947a37.262 37.262 0 0 0-3.695 8.913l-7.145 1.257a5.5 5.5 0 0 0-4.599 5.408v6.132a5.505 5.505 0 0 0 4.6 5.414l7.144 1.258a37.119 37.119 0 0 0 3.695 8.907l-4.168 5.875a5.505 5.505 0 0 0 .61 7.048l4.295 4.295a5.505 5.505 0 0 0 7.055.616l5.947-4.167v-.006a37.07 37.07 0 0 0 8.906 3.695l1.257 7.144a5.508 5.508 0 0 0 5.414 4.6h6.133a5.506 5.506 0 0 0 5.414-4.6l1.258-7.144a37.063 37.063 0 0 0 8.905-3.695l5.83 4.126a5.5 5.5 0 0 0 7.047-.57z"/>
        <path stroke="#1D47A8" stroke-linecap="round" stroke-linejoin="round" stroke-width="2" d="M125.353 241.029a16.391 16.391 0 0 1-15.134-10.115 16.376 16.376 0 1 1 31.509-6.247c-.012 9.037-7.337 16.362-16.374 16.362zm31.61 19.529l4.294-4.294a5.495 5.495 0 0 0 .617-7.048l-4.168-5.948h-.006a36.941 36.941 0 0 0 3.695-8.911l7.146-1.258a5.497 5.497 0 0 0 4.6-5.408v-6.133a5.504 5.504 0 0 0-4.6-5.414l-7.146-1.258a36.883 36.883 0 0 0-3.695-8.905l4.174-5.876a5.497 5.497 0 0 0-.617-7.05l-4.294-4.293a5.498 5.498 0 0 0-7.048-.617l-5.948 4.169v.006a36.948 36.948 0 0 0-8.912-3.695l-1.258-7.146a5.494 5.494 0 0 0-5.408-4.6h-6.133a5.502 5.502 0 0 0-5.413 4.6l-1.258 7.146a36.79 36.79 0 0 0-8.906 3.695l-5.875-4.175a5.5 5.5 0 0 0-7.049.617l-4.295 4.294a5.503 5.503 0 0 0-.568 7.049l4.168 5.947a37.262 37.262 0 0 0-3.695 8.913l-7.145 1.257a5.5 5.5 0 0 0-4.599 5.408v6.132a5.505 5.505 0 0 0 4.6 5.414l7.144 1.258a37.119 37.119 0 0 0 3.695 8.907l-4.168 5.875a5.505 5.505 0 0 0 .61 7.048l4.295 4.295a5.505 5.505 0 0 0 7.055.616l5.947-4.167v-.006a37.07 37.07 0 0 0 8.906 3.695l1.257 7.144a5.508 5.508 0 0 0 5.414 4.6h6.133a5.506 5.506 0 0 0 5.414-4.6l1.258-7.144a37.063 37.063 0 0 0 8.905-3.695l5.83 4.126a5.5 5.5 0 0 0 7.047-.57z"/>
        <path fill="#FFF" d="M58.466 163.042c0 15.869-12.864 28.733-28.733 28.733C13.863 191.775 1 178.91 1 163.042c0-15.868 12.864-28.732 28.734-28.732 15.87 0 28.733 12.864 28.733 28.732"/>
        <path stroke="#1D47A8" stroke-linecap="round" stroke-linejoin="round" stroke-width="2" d="M58.466 163.042c0 15.869-12.864 28.733-28.733 28.733C13.863 191.775 1 178.91 1 163.042c0-15.868 12.864-28.732 28.734-28.732 15.87 0 28.733 12.864 28.733 28.732z"/>
        <path fill="#FFF" d="M479.828 71.31c0 19.633-15.916 35.55-35.55 35.55-19.633 0-35.55-15.917-35.55-35.55 0-19.634 15.917-35.55 35.55-35.55 19.634 0 35.55 15.916 35.55 35.55"/>
        <path stroke="#1D47A8" stroke-linecap="round" stroke-linejoin="round" stroke-width="2" d="M479.828 71.31c0 19.633-15.916 35.55-35.55 35.55-19.633 0-35.55-15.917-35.55-35.55 0-19.634 15.917-35.55 35.55-35.55 19.634 0 35.55 15.916 35.55 35.55z"/>
        <path fill="#FFF" d="M426.384 270.802c0 24.408-19.787 44.194-44.195 44.194s-44.195-19.786-44.195-44.194 19.787-44.194 44.195-44.194 44.195 19.786 44.195 44.194"/>
        <path stroke="#1D47A8" stroke-linecap="round" stroke-linejoin="round" stroke-width="2" d="M426.384 270.802c0 24.408-19.787 44.194-44.195 44.194s-44.195-19.786-44.195-44.194 19.787-44.194 44.195-44.194 44.195 19.786 44.195 44.194z"/>
        <path fill="#1D47A8" d="M384.717 254.077c4.115 5.666 2.858 13.595-2.808 17.71s-13.595 2.857-17.71-2.81c-4.115-5.665-2.858-13.593 2.808-17.71 5.666-4.114 13.595-2.856 17.71 2.81"/>
        <path stroke="#1D47A8" stroke-linecap="round" stroke-linejoin="round" stroke-width="2" d="M384.717 254.077c4.115 5.666 2.858 13.595-2.808 17.71s-13.595 2.857-17.71-2.81c-4.115-5.665-2.858-13.593 2.808-17.71 5.666-4.114 13.595-2.856 17.71 2.81z"/>
        <path stroke="#1D47A8" stroke-linecap="round" stroke-linejoin="round" stroke-width="4" d="M387.3 279.625l9.026 12.43"/>
        <path stroke="#1D47A8" stroke-linecap="round" stroke-linejoin="round" stroke-width="2" d="M381.712 271.93l5.589 7.694"/>
        <path fill="#FFF" d="M383.832 254.72c3.76 5.177 2.61 12.421-2.566 16.181-5.176 3.758-12.42 2.61-16.18-2.567-3.76-5.176-2.611-12.42 2.565-16.179 5.177-3.76 12.42-2.612 16.18 2.565"/>
        <path stroke="#1D47A8" stroke-linecap="round" stroke-linejoin="round" stroke-width="2" d="M383.832 254.72c3.76 5.177 2.61 12.421-2.566 16.181-5.176 3.758-12.42 2.61-16.18-2.567-3.76-5.176-2.611-12.42 2.565-16.179 5.177-3.76 12.42-2.612 16.18 2.565z"/>
        <mask id="b" fill="#fff">
            <use xlink:href="#a"/>
        </mask>
        <path fill="#1D47A8" d="M25.119 153.429h7.915v-4.582h-7.915z" mask="url(#b)"/>
        <path stroke="#1D47A8" stroke-linecap="round" stroke-linejoin="round" stroke-width="1.5" d="M25.119 153.429h7.915v-4.582h-7.915z" mask="url(#b)"/>
        <path fill="#1D47A8" d="M25.119 164.676h7.915v-4.582h-7.915z" mask="url(#b)"/>
        <path stroke="#1D47A8" stroke-linecap="round" stroke-linejoin="round" stroke-width="1.5" d="M25.119 164.676h7.915v-4.582h-7.915z" mask="url(#b)"/>
        <path fill="#1D47A8" d="M11.06 164.676h7.914v-4.582H11.06z" mask="url(#b)"/>
        <path stroke="#1D47A8" stroke-linecap="round" stroke-linejoin="round" stroke-width="1.5" d="M11.06 164.676h7.914v-4.582H11.06z" mask="url(#b)"/>
        <path fill="#1D47A8" d="M39.178 164.676h7.915v-4.582h-7.915z" mask="url(#b)"/>
        <path stroke="#1D47A8" stroke-linecap="round" stroke-linejoin="round" stroke-width="1.5" d="M39.178 164.676h7.915v-4.582h-7.915z" mask="url(#b)"/>
        <path fill="#1D47A8" d="M25.119 175.923h7.915v-4.582h-7.915z" mask="url(#b)"/>
        <path stroke="#1D47A8" stroke-linecap="round" stroke-linejoin="round" stroke-width="1.5" d="M25.119 175.923h7.915v-4.582h-7.915z" mask="url(#b)"/>
        <path fill="#1D47A8" d="M11.06 175.923h7.914v-4.582H11.06z" mask="url(#b)"/>
        <path stroke="#1D47A8" stroke-linecap="round" stroke-linejoin="round" stroke-width="1.5" d="M11.06 175.923h7.914v-4.582H11.06z" mask="url(#b)"/>
        <path fill="#1D47A8" d="M39.178 175.923h7.915v-4.582h-7.915z" mask="url(#b)"/>
        <path stroke="#1D47A8" stroke-linecap="round" stroke-linejoin="round" stroke-width="1.5" d="M39.178 175.923h7.915v-4.582h-7.915z" mask="url(#b)"/>
        <g mask="url(#b)">
            <path fill="#1D47A8" d="M29.077 153.845v5.624"/>
            <path stroke="#1D47A8" stroke-linecap="round" stroke-linejoin="round" stroke-width="2" d="M29.077 153.845v5.624"/>
        </g>
        <path stroke="#1D47A8" stroke-linecap="round" stroke-linejoin="round" stroke-width="2" d="M43.028 159.261v-7.707h-9.266M14.715 159.261v-7.707h9.265" mask="url(#b)"/>
        <g mask="url(#b)">
            <path fill="#1D47A8" d="M29.077 165.67v5.123"/>
            <path stroke="#1D47A8" stroke-linecap="round" stroke-linejoin="round" stroke-width="2" d="M29.077 165.67v5.123"/>
        </g>
        <g mask="url(#b)">
            <path fill="#1D47A8" d="M33.7 173.683h4.86"/>
            <path stroke="#1D47A8" stroke-linecap="round" stroke-linejoin="round" stroke-width="2" d="M33.7 173.683h4.86"/>
        </g>
        <g mask="url(#b)">
            <path fill="#1D47A8" d="M15.017 165.144v5.518"/>
            <path stroke="#1D47A8" stroke-linecap="round" stroke-linejoin="round" stroke-width="2" d="M15.017 165.144v5.518"/>
        </g>
        <path fill="#1D47A8" d="M437.775 77.17l-2.744.805a6.39 6.39 0 0 0-1.302-1.513 6.363 6.363 0 0 0-1.686-1.068l.395-2.832.747-.862s1.521-.082 3.356 1.505c1.837 1.588 1.981 3.1 1.981 3.1l-.747.864zM453.123 54c-2.657-2.297-4.489-1.788-4.489-1.788l-8.032 9.304-9.182 10.634-1.132 8.3 8.046-2.332 17.213-19.937c.001-.002.236-1.886-2.424-4.181z" mask="url(#b)"/>
        <path stroke="#1D47A8" stroke-linecap="round" stroke-linejoin="round" d="M437.775 77.17l-2.744.805a6.39 6.39 0 0 0-1.302-1.513 6.363 6.363 0 0 0-1.686-1.068l.395-2.832.747-.862s1.521-.082 3.356 1.505c1.837 1.588 1.981 3.1 1.981 3.1l-.747.864zM453.123 54c-2.657-2.297-4.489-1.788-4.489-1.788l-8.032 9.304-9.182 10.634-1.132 8.3 8.046-2.332 17.213-19.937c.001-.002.236-1.886-2.424-4.181z" mask="url(#b)"/>
        <path stroke="#1D47A8" stroke-linecap="round" stroke-linejoin="round" stroke-width="2" d="M429.412 83.616c6.578 1.567 13.688 1.868 20.338.563.59-.115 1.192-.25 1.705-.567 3.248-2.011-2.22-5.034-2.926-6.787-.892-2.214.752-3.421 2.793-3.92 3.969-.972 7.878-.752 11.89-1.153" mask="url(#b)"/>
    </g>
</svg>
