<svg xmlns="http://www.w3.org/2000/svg" xmlns:xlink="http://www.w3.org/1999/xlink" width="375" height="236" viewBox="0 0 375 236">
    <defs>
        <path id="a" d="M0 .284h186.721V235.25H0z"/>
        <path id="c" d="M0 .29h186.721v35.438H0z"/>
        <path id="e" d="M0 236h262V.75H0z"/>
    </defs>
    <g fill="none" fill-rule="evenodd">
        <path fill="#FFF" fill-rule="nonzero" d="M0 25h302v77H0zM40 133h335v77H40z" opacity=".7"/>
        <g transform="translate(71)">
            <mask id="b" fill="#fff">
                <use xlink:href="#a"/>
            </mask>
            <path fill="#F3F3F3" d="M186.721 6.896v221.742c0 3.642-2.976 6.612-6.627 6.612H6.63c-3.653 0-6.63-2.97-6.63-6.612V6.896C0 3.254 2.976.284 6.63.284h173.465c3.65 0 6.627 2.97 6.627 6.612" mask="url(#b)"/>
            <mask id="d" fill="#fff">
                <use xlink:href="#c"/>
            </mask>
            <path fill="#458EFB" d="M186.721 6.938v28.79H0V6.938C0 3.276 2.976.29 6.63.29h173.465c3.65 0 6.627 2.986 6.627 6.648" mask="url(#d)"/>
            <path fill="#FFF" d="M20.27 18.356c0 2.69-2.185 4.87-4.881 4.87a4.874 4.874 0 0 1-4.879-4.87 4.875 4.875 0 0 1 4.879-4.87 4.876 4.876 0 0 1 4.88 4.87M38.287 18.356c0 2.69-2.185 4.87-4.881 4.87a4.874 4.874 0 0 1-4.879-4.87 4.875 4.875 0 0 1 4.879-4.87 4.876 4.876 0 0 1 4.88 4.87M58.556 18.356c0 2.69-2.185 4.87-4.88 4.87a4.874 4.874 0 0 1-4.88-4.87 4.875 4.875 0 0 1 4.88-4.87 4.876 4.876 0 0 1 4.88 4.87"/>
            <mask id="f" fill="#fff">
                <use xlink:href="#e"/>
            </mask>
            <path fill="#FFF" d="M26.275 67.429h134.378V53.943H26.275zM26.275 92.902h134.378V79.416H26.275zM26.275 118.375h134.378v-13.486H26.275zM26.275 143.848h134.378v-13.486H26.275zM26.275 169.32h134.378v-13.485H26.275zM26.275 194.044h134.378V180.56H26.275zM26.275 219.517h134.378v-13.485H26.275z" mask="url(#f)"/>
            <path fill="#565656" fill-opacity=".1" d="M186.928 198.753v30.631c0 3.642-2.98 6.616-6.634 6.616H6.636C2.98 236 0 233.026 0 229.384V113.002l14.814-20.85 172.114 106.6z" mask="url(#f)"/>
            <path fill="#8FCDF9" d="M120.115 200.038h98.343V189.55h-98.343z" mask="url(#f)"/>
            <path fill="#77B7EC" d="M251.367 205.283H73.693c-5.873 0-10.633-4.76-10.633-10.631V86.298c0-5.87 4.76-10.628 10.633-10.628h177.674c5.873 0 10.633 4.759 10.633 10.628v108.354c0 5.872-4.76 10.63-10.633 10.63" mask="url(#f)"/>
            <path fill="#8FCDF9" d="M163.656 175.314h12.012V113.13h-12.012zM81.077 175.314H93.09V113.13H81.077zM96.842 109.384h62.31V97.397h-62.31zM96.842 191.797h62.31V179.81h-62.31zM243.232 92.152a4.5 4.5 0 0 1-4.504 4.496 4.5 4.5 0 0 1-4.505-4.496 4.5 4.5 0 0 1 4.505-4.495 4.5 4.5 0 0 1 4.504 4.495M82.579 92.152a4.5 4.5 0 0 1-4.505 4.496 4.5 4.5 0 0 1-4.504-4.496 4.5 4.5 0 0 1 4.504-4.495 4.5 4.5 0 0 1 4.505 4.495M243.232 115.378a4.5 4.5 0 0 1-4.504 4.495 4.5 4.5 0 0 1-4.505-4.495 4.5 4.5 0 0 1 4.505-4.495 4.5 4.5 0 0 1 4.504 4.495M243.232 138.603a4.5 4.5 0 0 1-4.504 4.495 4.5 4.5 0 0 1-4.505-4.495 4.5 4.5 0 0 1 4.505-4.495 4.5 4.5 0 0 1 4.504 4.495M243.232 161.829a4.5 4.5 0 0 1-4.504 4.495 4.5 4.5 0 0 1-4.505-4.495 4.5 4.5 0 0 1 4.505-4.496 4.5 4.5 0 0 1 4.504 4.496M243.232 185.054a4.5 4.5 0 0 1-4.504 4.495 4.5 4.5 0 0 1-4.505-4.495 4.5 4.5 0 0 1 4.505-4.495 4.5 4.5 0 0 1 4.504 4.495M219.96 92.152a4.5 4.5 0 0 1-4.505 4.496 4.5 4.5 0 0 1-4.504-4.496 4.5 4.5 0 0 1 4.504-4.495 4.5 4.5 0 0 1 4.505 4.495M219.96 115.378a4.5 4.5 0 0 1-4.505 4.495 4.5 4.5 0 0 1-4.504-4.495 4.5 4.5 0 0 1 4.504-4.495 4.5 4.5 0 0 1 4.505 4.495M219.96 138.603a4.5 4.5 0 0 1-4.505 4.495 4.5 4.5 0 0 1-4.504-4.495 4.5 4.5 0 0 1 4.504-4.495 4.5 4.5 0 0 1 4.505 4.495M219.96 161.829a4.5 4.5 0 0 1-4.505 4.495 4.5 4.5 0 0 1-4.504-4.495 4.5 4.5 0 0 1 4.504-4.496 4.5 4.5 0 0 1 4.505 4.496M219.96 185.054a4.5 4.5 0 0 1-4.505 4.495 4.5 4.5 0 0 1-4.504-4.495 4.5 4.5 0 0 1 4.504-4.495 4.5 4.5 0 0 1 4.505 4.495" mask="url(#f)"/>
            <path fill="#8FCDF9" d="M238.48 116.127a.997.997 0 0 1-.744-.331l-10.047-11.161h-71.292a.997.997 0 1 1 0-1.994h71.737c.284 0 .555.12.743.331l10.345 11.492a.994.994 0 0 1-.076 1.408.992.992 0 0 1-.667.255M119.62 98.895c-.258 0-.515-.096-.713-.286a.966.966 0 0 1 0-1.388l13.368-13.024c.187-.182.443-.286.71-.286H208.4c.266 0 .521.104.71.286l7.551 7.36a.96.96 0 0 1 0 1.386 1.026 1.026 0 0 1-1.422 0l-7.258-7.071h-74.579l-13.07 12.737c-.197.19-.455.286-.712.286M238.47 139.352c-.258 0-.516-.099-.714-.295L225.12 126.39h-55.2a1.01 1.01 0 1 1 0-2.021h55.618c.268 0 .524.107.713.297l12.933 12.961a1.011 1.011 0 1 1-.714 1.726" mask="url(#f)"/>
            <path fill="#8FCDF9" d="M172.172 128.863c-.347 0-.683-.175-.873-.49a.979.979 0 0 1 .365-1.35l21.442-12.26c.155-.087.33-.134.507-.134h22.337a.998.998 0 0 1 1.007.987.997.997 0 0 1-1.007.987h-22.065l-21.207 12.126a1.02 1.02 0 0 1-.506.134M195.69 158.832h-25.033a1 1 0 0 1-.995-1.005 1 1 0 0 1 .995-1.005h24.622l19.23-19.423a.989.989 0 0 1 1.406 0 1.013 1.013 0 0 1 0 1.42l-19.52 19.72a.997.997 0 0 1-.704.293M203.883 173.816H169.92c-.556 0-1.008-.44-1.008-.98 0-.542.452-.982 1.008-.982h33.55l11.775-11.243a1.027 1.027 0 0 1 1.425.014.963.963 0 0 1-.014 1.386l-12.066 11.524c-.188.18-.442.28-.706.28" mask="url(#f)"/>
            <path fill="#8FCDF9" d="M227.893 173.816h-45.961a.994.994 0 0 1-1.01-.98c0-.542.45-.982 1.01-.982h45.548l11.785-11.243a1.028 1.028 0 0 1 1.427.014.962.962 0 0 1-.014 1.386L228.6 173.535c-.188.18-.442.28-.707.28M225.15 199.289h-68.748a.992.992 0 0 1-1.004-.981.992.992 0 0 1 1.004-.982h68.333l13.03-12.734a1.021 1.021 0 0 1 1.42 0 .966.966 0 0 1 0 1.387l-13.324 13.023a1.023 1.023 0 0 1-.71.287" mask="url(#f)"/>
            <path fill="#8FCDF9" d="M202.624 199.289H133.85c-.267 0-.522-.104-.71-.287l-11.23-10.97a.966.966 0 0 1 0-1.387 1.018 1.018 0 0 1 1.42 0l10.936 10.681h67.942l13.035-12.734a1.022 1.022 0 0 1 1.42 0 .966.966 0 0 1 0 1.387l-13.328 13.023a1.024 1.024 0 0 1-.711.287M101.347 169.32h53.3v-53.193h-53.3z" mask="url(#f)"/>
            <path fill="#49A3E2" d="M213.203 205.283H74.588c-6.368 0-11.528-5.169-11.528-11.547v-53.823l24.048-32.027 126.095 97.397z" mask="url(#f)"/>
            <path fill="#F2F2F7" d="M126.381 144.86a53.608 53.608 0 0 1-7.597 10.13c-10.087 10.567-23.966 16.397-38.196 16.574-9.358.124-18.87-2.2-27.556-7.228a52.844 52.844 0 0 1-4.835-3.155 53.032 53.032 0 0 1-13.556-14.457 53.697 53.697 0 0 1-8.266-32.038c.492-8.045 2.817-16.098 7.144-23.543a53.427 53.427 0 0 1 15.546-16.961 52.798 52.798 0 0 1 4.766-2.978 53.909 53.909 0 0 1 18.716-6.251 53.568 53.568 0 0 1 15.465.08 53.57 53.57 0 0 1 18.854 6.632c25.643 14.835 34.38 47.605 19.515 73.196" mask="url(#f)"/>
            <path fill="#458EFB" d="M139.894 144.597l39.527 22.55-7.017 11.913-39.527-22.55z" mask="url(#f)"/>
            <path fill="#458EFB" d="M178.637 156.883l75.19 43.4c6.393 3.687 8.57 11.836 4.865 18.2l-2.412 4.142c-3.7 6.355-11.883 8.522-18.274 4.833l-75.191-43.398c-6.393-3.69-8.562-11.832-4.86-18.187l2.41-4.141c3.707-6.365 11.88-8.539 18.272-4.85" mask="url(#f)"/>
            <path fill="#4086E0" d="M178.433 156.89l22.008 12.87c-6.334-3.704-14.434-1.522-18.106 4.866l-2.39 4.157c-3.666 6.38-1.516 14.554 4.816 18.258l-22.007-12.868c-6.334-3.703-8.483-11.878-4.816-18.258l2.388-4.157c3.674-6.39 11.772-8.572 18.107-4.868" mask="url(#f)"/>
            <path fill="#226AB4" d="M178.702 156.891l75.131 43.606c6.388 3.705 8.563 11.892 4.86 18.287l-1.294 2.232-98.247-57.02 1.292-2.233c3.705-6.395 11.87-8.578 18.258-4.872M139.826 144.597l11.068 6.53a70.748 70.748 0 0 1-3.183 6.278 70.24 70.24 0 0 1-3.767 5.922l-11.067-6.528 6.95-12.202z" mask="url(#f)"/>
            <path fill="#4086E0" d="M128.281 145.787a56.424 56.424 0 0 1-7.976 10.64c-10.593 11.083-25.166 17.207-40.092 17.383-9.832.14-19.807-2.294-28.933-7.57a56.258 56.258 0 0 1-5.075-3.318 51.776 51.776 0 0 1-4.916-4.041 57.694 57.694 0 0 0 29.144 7.41c15.44-.194 30.49-6.512 41.438-17.964a59.796 59.796 0 0 0 8.241-10.994c11.07-19.075 10.061-41.822-.674-59.416 17.58 17.576 21.914 45.37 8.843 67.87" mask="url(#f)"/>
            <path fill="#458EFB" d="M124.67 143.87a51.678 51.678 0 0 1-7.316 9.755c-9.714 10.177-23.082 15.793-36.79 15.963-9.012.12-18.172-2.118-26.538-6.96a51.182 51.182 0 0 1-4.657-3.04 51.16 51.16 0 0 1-9.587-9.1 50.206 50.206 0 0 1-1.956-2.579 48.918 48.918 0 0 1-1.513-2.244 51.73 51.73 0 0 1-7.96-30.859 51.272 51.272 0 0 1 6.879-22.673 51.464 51.464 0 0 1 14.974-16.337 51.121 51.121 0 0 1 4.59-2.867 50.34 50.34 0 0 1 4.735-2.32 51.84 51.84 0 0 1 13.29-3.701 51.61 51.61 0 0 1 10.603-.386 51.58 51.58 0 0 1 22.451 6.853c24.697 14.286 33.111 45.849 18.796 70.494m-9.523-86.463c-33.532-19.4-76.475-7.998-95.913 25.469-19.438 33.464-8.014 76.32 25.52 95.72 33.532 19.399 76.474 7.997 95.913-25.47 19.438-33.464 8.013-76.32-25.52-95.72" mask="url(#f)"/>
        </g>
    </g>
</svg>
