<svg xmlns="http://www.w3.org/2000/svg" xmlns:xlink="http://www.w3.org/1999/xlink" width="216" height="136" viewBox="0 0 216 136">
    <defs>
        <path id="a" d="M0 135.405h150.598V0H0z"/>
    </defs>
    <g fill="none" fill-rule="evenodd">
        <path fill="#FFF" fill-rule="nonzero" d="M0 14.407h173.952V58.78H0zM23.04 76.644H216v44.373H23.04z" opacity=".75"/>
        <g transform="translate(41)">
            <path fill="#FFF" d="M107.305 3.811v127.784c0 2.098-1.711 3.81-3.809 3.81H3.81a3.817 3.817 0 0 1-3.808-3.81V3.81C0 1.712 1.71.001 3.809.001h99.687a3.817 3.817 0 0 1 3.809 3.81"/>
            <path fill="#131415" d="M107.305 3.811v16.5H0V3.81C0 1.712 1.71.001 3.809.001h99.687a3.817 3.817 0 0 1 3.809 3.81"/>
            <path fill="#FFF" d="M11.6 10.156a2.9 2.9 0 1 1-5.8 0 2.901 2.901 0 0 1 2.9-2.902c1.602 0 2.9 1.3 2.9 2.902M22.234 10.156a2.9 2.9 0 1 1-5.8 0 2.901 2.901 0 0 1 2.9-2.902c1.602 0 2.9 1.3 2.9 2.902M33.835 10.156a2.9 2.9 0 1 1-5.8 0 2.901 2.901 0 0 1 2.899-2.902c1.602 0 2.9 1.3 2.9 2.902"/>
            <mask id="b" fill="#fff">
                <use xlink:href="#a"/>
            </mask>
            <path fill="#DDD" d="M14.984 38.687H92.32V30.95H14.984z" mask="url(#b)" opacity=".5"/>
            <path fill="#FFF" d="M14.984 53.268H92.32v-7.737H14.984zM14.984 67.848H92.32V60.11H14.984zM14.984 82.429H92.32v-7.737H14.984z" mask="url(#b)"/>
            <path fill="#DDD" d="M14.984 97.01H92.32v-7.738H14.984zM14.984 111.59H92.32v-7.738H14.984zM14.984 126.17H92.32v-7.737H14.984z" mask="url(#b)" opacity=".5"/>
            <path fill="#8FCDF9" d="M68.901 114.858h56.44v-5.975h-56.44z" mask="url(#b)"/>
            <path fill="#7B8083" d="M144.481 117.958H42.265a6.119 6.119 0 0 1-6.117-6.12v-62.38c0-3.379 2.74-6.118 6.117-6.118H144.48a6.117 6.117 0 0 1 6.116 6.119v62.379c0 3.38-2.738 6.12-6.116 6.12" mask="url(#b)"/>
            <path fill="#383B3D" d="M93.943 100.798h6.798V64.973h-6.798z" mask="url(#b)"/>
            <path fill="#131415" d="M46.572 100.798h6.798V64.973h-6.798z" mask="url(#b)"/>
            <path fill="#383B3D" d="M55.754 62.589H91.56v-6.801H55.754zM55.754 109.984H91.56v-6.803H55.754zM139.609 52.594a2.682 2.682 0 1 1-2.682-2.683c1.481 0 2.682 1.2 2.682 2.683" mask="url(#b)"/>
            <path fill="#8FCDF9" d="M47.669 52.594a2.682 2.682 0 1 1-2.682-2.683c1.481 0 2.682 1.2 2.682 2.683" mask="url(#b)"/>
            <path fill="#383B3D" d="M139.609 66.008a2.682 2.682 0 1 1-2.682-2.683c1.481 0 2.682 1.2 2.682 2.683M139.609 79.422a2.682 2.682 0 1 1-2.682-2.683c1.481 0 2.682 1.201 2.682 2.683M139.609 92.836a2.682 2.682 0 1 1-2.682-2.683c1.481 0 2.682 1.201 2.682 2.683M139.609 106.251a2.682 2.682 0 1 1-2.682-2.683c1.481 0 2.682 1.2 2.682 2.683M126.492 52.594a2.682 2.682 0 1 1-5.364 0 2.682 2.682 0 1 1 5.364 0M126.492 66.008a2.682 2.682 0 1 1-5.364 0 2.682 2.682 0 1 1 5.364 0M126.492 79.422a2.682 2.682 0 1 1-5.364 0 2.682 2.682 0 1 1 5.364 0M126.492 92.836a2.682 2.682 0 1 1-5.364 0 2.682 2.682 0 1 1 5.364 0" mask="url(#b)"/>
            <path fill="#8FCDF9" d="M126.492 106.251a2.682 2.682 0 1 1-5.364 0 2.682 2.682 0 1 1 5.364 0" mask="url(#b)"/>
            <path fill="#383B3D" d="M136.927 66.584a.574.574 0 0 1-.429-.191l-5.794-6.452H89.588a.576.576 0 1 1 0-1.153h41.373c.163 0 .32.07.428.192l5.966 6.643a.575.575 0 0 1-.428.961M68.91 56.884a.578.578 0 0 1-.408-.984l7.655-7.657a.575.575 0 0 1 .406-.168h43.179a.58.58 0 0 1 .407.168l4.323 4.327a.576.576 0 0 1-.814.815l-4.156-4.158h-42.7l-7.484 7.488a.578.578 0 0 1-.407.169M136.927 79.999a.578.578 0 0 1-.408-.169l-7.22-7.224H97.76a.576.576 0 1 1 0-1.152h31.778c.153 0 .3.06.408.17l7.388 7.39a.578.578 0 0 1-.407.985" mask="url(#b)"/>
            <path fill="#383B3D" d="M98.782 73.738a.578.578 0 0 1-.29-1.074l12.258-7.155a.586.586 0 0 1 .29-.078h12.77a.576.576 0 0 1 0 1.152h-12.614L99.071 73.66a.574.574 0 0 1-.289.078M112.509 91.305H98.016a.576.576 0 0 1 0-1.152h14.254l11.133-11.139a.576.576 0 0 1 .815.815l-11.301 11.308a.58.58 0 0 1-.408.168M116.914 100.056h-19.41a.576.576 0 0 1 0-1.152h19.174l6.729-6.607a.575.575 0 1 1 .806.823l-6.895 6.771a.573.573 0 0 1-.404.165" mask="url(#b)"/>
            <path fill="#383B3D" d="M130.705 100.056h-26.24a.576.576 0 1 1 0-1.152h26.004l6.729-6.607a.575.575 0 1 1 .806.823l-6.895 6.771a.573.573 0 0 1-.404.165M129.283 114.475h-39.44a.576.576 0 1 1 0-1.153h39.202l7.475-7.479a.576.576 0 0 1 .814.815l-7.643 7.649a.58.58 0 0 1-.408.168" mask="url(#b)"/>
            <path fill="#383B3D" d="M116.514 114.475h-39.44a.58.58 0 0 1-.407-.168l-6.44-6.443a.577.577 0 0 1 .815-.815l6.27 6.273h38.963l7.476-7.479a.576.576 0 0 1 .814.815l-7.643 7.649a.58.58 0 0 1-.408.168M58.396 97.303h30.521V66.768h-30.52z" mask="url(#b)"/>
            <path fill="#131415" d="M122.524 117.958H42.78a6.633 6.633 0 0 1-6.632-6.636v-30.93l13.834-18.405 72.542 55.97z" mask="url(#b)" opacity=".098"/>
            <path fill="#FFF" d="M72.464 83.151a30.83 30.83 0 0 1-4.359 5.826c-5.787 6.079-13.75 9.433-21.916 9.534a30.605 30.605 0 0 1-15.811-4.157 30.313 30.313 0 0 1-2.774-1.815 30.461 30.461 0 0 1-7.778-8.316 30.938 30.938 0 0 1-4.742-18.43 30.657 30.657 0 0 1 4.098-13.541 30.71 30.71 0 0 1 8.92-9.757 30.265 30.265 0 0 1 2.734-1.712 30.872 30.872 0 0 1 10.739-3.596 30.66 30.66 0 0 1 8.874.046 30.687 30.687 0 0 1 10.818 3.815C75.98 49.58 80.994 68.43 72.464 83.15" mask="url(#b)"/>
            <path fill="#212324" d="M80.216 83.028l22.568 13.088-4.007 6.916L76.21 89.943z" mask="url(#b)"/>
            <path fill="#131415" d="M102.49 90.101l43.128 25.015a7.677 7.677 0 0 1 2.79 10.49l-1.383 2.388a7.668 7.668 0 0 1-10.482 2.785l-43.13-25.013a7.67 7.67 0 0 1-2.787-10.483l1.382-2.387c2.127-3.668 6.814-4.921 10.481-2.795" mask="url(#b)"/>
            <path fill="#212324" d="M102.49 90.101l43.128 25.015a7.677 7.677 0 0 1 2.79 10.49l-.743 1.281-56.398-32.71.741-1.28c2.127-3.67 6.814-4.922 10.481-2.796" mask="url(#b)"/>
            <path fill="#131415" d="M80.216 83.028l6.381 3.7a39.836 39.836 0 0 1-1.835 3.559 39.722 39.722 0 0 1-2.172 3.356l-6.38-3.7 4.006-6.915z" mask="url(#b)"/>
            <path fill="#5E6367" d="M73.564 83.7a32.528 32.528 0 0 1-4.58 6.126c-6.083 6.381-14.451 9.907-23.022 10.008a32.097 32.097 0 0 1-16.614-4.359 31.974 31.974 0 0 1-2.914-1.91 29.909 29.909 0 0 1-2.824-2.326 33.066 33.066 0 0 0 16.736 4.266c8.866-.111 17.507-3.749 23.793-10.342a34.317 34.317 0 0 0 4.733-6.33c6.356-10.983 5.778-24.08-.386-34.209 10.093 10.12 12.582 26.121 5.078 39.076" mask="url(#b)"/>
            <path fill="#131415" d="M71.557 82.624a29.806 29.806 0 0 1-4.21 5.628c-5.59 5.871-13.283 9.111-21.171 9.21a29.556 29.556 0 0 1-15.272-4.016 29.606 29.606 0 0 1-2.68-1.753 29.47 29.47 0 0 1-5.516-5.25 28.957 28.957 0 0 1-1.126-1.488 28.224 28.224 0 0 1-.87-1.294 29.9 29.9 0 0 1-4.58-17.803 29.632 29.632 0 0 1 3.957-13.08 29.668 29.668 0 0 1 8.617-9.424c.853-.6 1.736-1.151 2.642-1.654a29.787 29.787 0 0 1 10.372-3.474 29.626 29.626 0 0 1 19.022 3.731c14.21 8.242 19.052 26.45 10.815 40.667m-5.48-49.88C46.78 21.555 22.07 28.132 10.884 47.438c-11.186 19.305-4.612 44.029 14.685 55.22 19.296 11.191 44.007 4.613 55.193-14.693 11.186-19.305 4.611-44.028-14.685-55.22" mask="url(#b)"/>
        </g>
    </g>
</svg>
