<svg xmlns="http://www.w3.org/2000/svg" xmlns:xlink="http://www.w3.org/1999/xlink" width="216" height="136" viewBox="0 0 216 136">
    <defs>
        <path id="a" d="M0 .164h107.551v135.404H0z"/>
        <path id="c" d="M0 .167h107.551v20.422H0z"/>
        <path id="e" d="M0 136h150.912V.432H0z"/>
    </defs>
    <g fill="none" fill-rule="evenodd">
        <path fill="#FFF" fill-rule="nonzero" d="M0 14.407h173.952V58.78H0zM23.04 76.644H216v44.373H23.04z" opacity=".75"/>
        <g transform="translate(40.896)">
            <mask id="b" fill="#fff">
                <use xlink:href="#a"/>
            </mask>
            <path fill="#F3F3F3" d="M107.551 3.974v127.783a3.821 3.821 0 0 1-3.817 3.81H3.818A3.821 3.821 0 0 1 0 131.758V3.974A3.821 3.821 0 0 1 3.818.164h99.916a3.821 3.821 0 0 1 3.817 3.81" mask="url(#b)"/>
            <mask id="d" fill="#fff">
                <use xlink:href="#c"/>
            </mask>
            <path fill="#458EFB" d="M107.551 3.998V20.59H0V3.999C0 1.887 1.714.166 3.818.166h99.916c2.103 0 3.817 1.72 3.817 3.831" mask="url(#d)"/>
            <path fill="#FFF" d="M11.675 10.578a2.808 2.808 0 0 1-2.811 2.806 2.808 2.808 0 0 1-2.81-2.806 2.809 2.809 0 0 1 2.81-2.807 2.809 2.809 0 0 1 2.811 2.807M22.053 10.578a2.808 2.808 0 0 1-2.811 2.806 2.808 2.808 0 0 1-2.81-2.806 2.809 2.809 0 0 1 2.81-2.807 2.809 2.809 0 0 1 2.811 2.807M33.728 10.578a2.808 2.808 0 0 1-2.811 2.806 2.808 2.808 0 0 1-2.81-2.806 2.809 2.809 0 0 1 2.81-2.807 2.809 2.809 0 0 1 2.811 2.807"/>
            <mask id="f" fill="#fff">
                <use xlink:href="#e"/>
            </mask>
            <path fill="#FFF" d="M15.134 38.857h77.402v-7.771H15.134zM15.134 53.537h77.402v-7.772H15.134zM15.134 68.216h77.402v-7.772H15.134zM15.134 82.895h77.402v-7.771H15.134zM15.134 97.575h77.402v-7.772H15.134zM15.134 111.822h77.402v-7.771H15.134zM15.134 126.502h77.402v-7.772H15.134z" mask="url(#f)"/>
            <path fill="#565656" fill-opacity=".1" d="M107.67 114.536v17.652a3.825 3.825 0 0 1-3.82 3.812H3.822A3.825 3.825 0 0 1 0 132.188V65.12l8.533-12.015 99.138 61.43z" mask="url(#f)"/>
            <path fill="#8FCDF9" d="M69.186 115.276h56.646v-6.044H69.186z" mask="url(#f)"/>
            <path fill="#77B7EC" d="M144.787 118.298H42.447a6.125 6.125 0 0 1-6.124-6.126v-62.44a6.125 6.125 0 0 1 6.124-6.126h102.34a6.125 6.125 0 0 1 6.125 6.125v62.441a6.125 6.125 0 0 1-6.125 6.126" mask="url(#f)"/>
            <path fill="#8FCDF9" d="M94.266 101.029h6.919V65.194h-6.92zM46.7 101.029h6.92V65.194H46.7zM55.781 63.035h35.89v-6.908h-35.89zM55.781 110.527h35.89v-6.908h-35.89zM140.102 53.105a2.592 2.592 0 0 1-2.595 2.59 2.592 2.592 0 0 1-2.594-2.59 2.592 2.592 0 0 1 2.594-2.59 2.592 2.592 0 0 1 2.595 2.59M47.565 53.105a2.592 2.592 0 0 1-2.595 2.59 2.592 2.592 0 0 1-2.594-2.59 2.592 2.592 0 0 1 2.594-2.59 2.592 2.592 0 0 1 2.595 2.59M140.102 66.489a2.592 2.592 0 0 1-2.595 2.59 2.592 2.592 0 0 1-2.594-2.59 2.592 2.592 0 0 1 2.594-2.59 2.592 2.592 0 0 1 2.595 2.59M140.102 79.873a2.592 2.592 0 0 1-2.595 2.59 2.592 2.592 0 0 1-2.594-2.59 2.592 2.592 0 0 1 2.594-2.59 2.592 2.592 0 0 1 2.595 2.59M140.102 93.257a2.592 2.592 0 0 1-2.595 2.59 2.592 2.592 0 0 1-2.594-2.59 2.592 2.592 0 0 1 2.594-2.59 2.592 2.592 0 0 1 2.595 2.59M140.102 106.641a2.592 2.592 0 0 1-2.595 2.59 2.592 2.592 0 0 1-2.594-2.59 2.592 2.592 0 0 1 2.594-2.59 2.592 2.592 0 0 1 2.595 2.59M126.697 53.105a2.592 2.592 0 0 1-2.595 2.59 2.592 2.592 0 0 1-2.594-2.59 2.592 2.592 0 0 1 2.594-2.59 2.592 2.592 0 0 1 2.595 2.59M126.697 66.489a2.592 2.592 0 0 1-2.595 2.59 2.592 2.592 0 0 1-2.594-2.59 2.592 2.592 0 0 1 2.594-2.59 2.592 2.592 0 0 1 2.595 2.59M126.697 79.873a2.592 2.592 0 0 1-2.595 2.59 2.592 2.592 0 0 1-2.594-2.59 2.592 2.592 0 0 1 2.594-2.59 2.592 2.592 0 0 1 2.595 2.59M126.697 93.257a2.592 2.592 0 0 1-2.595 2.59 2.592 2.592 0 0 1-2.594-2.59 2.592 2.592 0 0 1 2.594-2.59 2.592 2.592 0 0 1 2.595 2.59M126.697 106.641a2.592 2.592 0 0 1-2.595 2.59 2.592 2.592 0 0 1-2.594-2.59 2.592 2.592 0 0 1 2.594-2.59 2.592 2.592 0 0 1 2.595 2.59" mask="url(#f)"/>
            <path fill="#8FCDF9" d="M137.364 66.92a.574.574 0 0 1-.428-.19l-5.787-6.432H90.085a.574.574 0 1 1 0-1.149h41.32c.164 0 .32.07.428.19l5.959 6.623a.573.573 0 0 1-.428.959M68.9 56.99a.59.59 0 0 1-.41-.164.557.557 0 0 1 0-.8l7.7-7.505a.587.587 0 0 1 .41-.165h43.438c.153 0 .3.06.41.165l4.349 4.24a.553.553 0 0 1 0 .8.59.59 0 0 1-.82 0l-4.18-4.076H76.84l-7.529 7.34a.59.59 0 0 1-.41.165M137.359 80.305a.582.582 0 0 1-.411-.17l-7.279-7.3H97.874a.582.582 0 1 1 0-1.165h32.036a.58.58 0 0 1 .41.171l7.45 7.47a.582.582 0 1 1-.411.995" mask="url(#f)"/>
            <path fill="#8FCDF9" d="M99.171 74.26a.586.586 0 0 1-.503-.282.564.564 0 0 1 .21-.778l12.35-7.065a.6.6 0 0 1 .293-.078h12.866c.32 0 .58.255.58.57 0 .314-.26.568-.58.568h-12.709l-12.216 6.988a.588.588 0 0 1-.291.077M112.718 91.53h-14.42a.576.576 0 0 1-.573-.579c0-.32.257-.58.573-.58h14.183l11.076-11.192a.57.57 0 0 1 .81 0 .584.584 0 0 1 0 .819L113.124 91.36a.574.574 0 0 1-.406.17M117.437 100.165H97.873a.573.573 0 0 1-.58-.565c0-.312.26-.565.58-.565H117.2l6.782-6.48a.591.591 0 0 1 .82.008.555.555 0 0 1-.008.8l-6.95 6.64a.586.586 0 0 1-.406.162" mask="url(#f)"/>
            <path fill="#8FCDF9" d="M131.267 100.165h-26.474a.573.573 0 0 1-.582-.565c0-.312.26-.565.582-.565h26.235l6.789-6.48a.592.592 0 0 1 .822.008.555.555 0 0 1-.009.8l-6.957 6.64a.587.587 0 0 1-.406.162M129.687 114.844h-39.6a.571.571 0 0 1-.578-.565c0-.312.258-.565.579-.565h39.36l7.505-7.34a.588.588 0 0 1 .817 0 .557.557 0 0 1 0 .8l-7.674 7.505a.59.59 0 0 1-.41.165" mask="url(#f)"/>
            <path fill="#8FCDF9" d="M116.711 114.844H77.098a.59.59 0 0 1-.41-.165l-6.468-6.322a.557.557 0 0 1 0-.8.586.586 0 0 1 .818 0l6.3 6.157h39.134l7.508-7.34a.588.588 0 0 1 .818 0 .557.557 0 0 1 0 .8l-7.677 7.505a.59.59 0 0 1-.41.165M58.376 97.575h30.701V66.92H58.376z" mask="url(#f)"/>
            <path fill="#49A3E2" d="M122.805 118.298H42.963c-3.668 0-6.64-2.978-6.64-6.653V80.628l13.85-18.457 72.632 56.127z" mask="url(#f)"/>
            <path fill="#F2F2F7" d="M72.796 83.48a30.892 30.892 0 0 1-4.376 5.836c-5.81 6.09-13.805 9.45-22.002 9.551a30.772 30.772 0 0 1-15.872-4.165 30.437 30.437 0 0 1-2.784-1.818 30.553 30.553 0 0 1-7.809-8.331 30.955 30.955 0 0 1-4.76-18.463 30.67 30.67 0 0 1 4.114-13.567 30.784 30.784 0 0 1 8.954-9.774 30.41 30.41 0 0 1 2.746-1.716 31.04 31.04 0 0 1 10.78-3.603 30.84 30.84 0 0 1 8.908.047 30.847 30.847 0 0 1 10.86 3.822c14.77 8.549 19.803 27.433 11.24 42.18" mask="url(#f)"/>
            <path fill="#458EFB" d="M80.58 83.327l22.767 12.995-4.043 6.865-22.767-12.994z" mask="url(#f)"/>
            <path fill="#458EFB" d="M102.895 90.407l43.31 25.01c3.682 2.125 4.936 6.821 2.802 10.489l-1.39 2.386c-2.13 3.663-6.845 4.912-10.526 2.786l-43.31-25.01c-3.682-2.126-4.931-6.818-2.8-10.48l1.39-2.387c2.135-3.667 6.842-4.92 10.524-2.794" mask="url(#f)"/>
            <path fill="#4086E0" d="M102.777 90.411l12.677 7.417c-3.649-2.135-8.314-.877-10.429 2.804l-1.377 2.396c-2.111 3.676-.873 8.387 2.774 10.521l-12.675-7.415c-3.65-2.135-4.887-6.845-2.775-10.522l1.376-2.396c2.116-3.682 6.78-4.94 10.43-2.805" mask="url(#f)"/>
            <path fill="#226AB4" d="M102.932 90.412l43.276 25.129c3.68 2.135 4.932 6.853 2.8 10.538l-.746 1.286-56.59-32.86.744-1.285c2.134-3.686 6.837-4.944 10.516-2.808M80.54 83.327l6.375 3.763a40.778 40.778 0 0 1-1.833 3.618 40.48 40.48 0 0 1-2.17 3.413l-6.375-3.762 4.003-7.032z" mask="url(#f)"/>
            <path fill="#4086E0" d="M73.89 84.013a32.514 32.514 0 0 1-4.594 6.131c-6.102 6.387-14.496 9.916-23.093 10.018a32.254 32.254 0 0 1-16.666-4.363 32.403 32.403 0 0 1-2.923-1.912 29.826 29.826 0 0 1-2.831-2.329 33.22 33.22 0 0 0 16.787 4.27c8.893-.111 17.562-3.752 23.868-10.351a34.457 34.457 0 0 0 4.747-6.336c6.376-10.992 5.795-24.1-.389-34.24 10.127 10.13 12.623 26.145 5.094 39.112" mask="url(#f)"/>
            <path fill="#458EFB" d="M71.81 82.908a29.78 29.78 0 0 1-4.214 5.622C62 94.394 54.3 97.63 46.406 97.729a29.63 29.63 0 0 1-15.287-4.012 29.48 29.48 0 0 1-2.682-1.75 29.474 29.474 0 0 1-5.522-5.245c-.394-.485-.768-.98-1.127-1.486a28.19 28.19 0 0 1-.872-1.293 29.822 29.822 0 0 1-4.584-17.783 29.557 29.557 0 0 1 3.962-13.067 29.653 29.653 0 0 1 8.625-9.414 29.444 29.444 0 0 1 2.644-1.652 29.85 29.85 0 0 1 10.382-3.47 29.714 29.714 0 0 1 8.58.046 29.7 29.7 0 0 1 10.459 3.68C75.21 50.518 80.056 68.706 71.81 82.909M66.325 33.08c-19.314-11.179-44.05-4.608-55.246 14.677-11.196 19.285-4.616 43.981 14.7 55.16 19.314 11.18 44.05 4.61 55.246-14.676 11.196-19.285 4.615-43.981-14.7-55.16" mask="url(#f)"/>
        </g>
    </g>
</svg>
