<svg xmlns="http://www.w3.org/2000/svg" xmlns:xlink="http://www.w3.org/1999/xlink" width="205" height="148" viewBox="0 0 205 148">
    <defs>
        <path id="a" d="M.12 65.393C.12 101.074 29.05 130 64.746 130c35.694 0 64.634-28.926 64.634-64.607S100.44.786 64.746.786C29.05.786.12 29.712.12 65.393z"/>
        <path id="c" d="M25.591.94L.519 8.318 36.6 37.91l22.807 42.889c15.228-5.905 27.713-16.86 30.722-26.966 3.718-12.492-3.144-29.88-15.281-34.782L30.496 1.145A7.324 7.324 0 0 0 25.591.94z"/>
        <path id="e" d="M2.912 17.15C-2.534 30.512 3.926 45.741 17.34 51.166c13.414 5.424 28.701-1.01 34.148-14.371 5.445-13.362-1.014-28.59-14.427-34.016A26.238 26.238 0 0 0 27.209.855C16.856.855 7.047 7.006 2.912 17.15z"/>
        <path id="g" d="M.277 13.379a3.737 3.737 0 0 0 2.068 4.875l56.729 22.928 6.706-16.444L5.57.402.277 13.379z"/>
        <path id="i" d="M16.952.872L.57 5.714c-.012 0-.03.046-.03.082 0 .049.006.075.059.1l6.504 2.642a.523.523 0 0 0 .184.048c.158.026.318.026.475.012.05 0 .086-.012.123-.023.036 0 .073-.013.11-.026l7.128-2.114L23.8 3.868c.256-.074.268-.429.024-.527L17.869.922a1.363 1.363 0 0 0-.528-.105c-.132 0-.264.019-.389.055z"/>
        <path id="k" d="M16.952.872L.57 5.714c-.012 0-.03.046-.03.082 0 .049.006.075.059.1l6.504 2.642a.523.523 0 0 0 .184.048c.158.026.318.026.475.012.05 0 .086-.012.123-.023.036 0 .073-.013.11-.026l7.128-2.114L23.8 3.868c.256-.074.268-.429.024-.527L17.869.922a1.36 1.36 0 0 0-.527-.104c-.134 0-.265.019-.39.054z"/>
        <path id="m" d="M.149.858C.11.866.08.912.08.95c0 .054.019.074.098.109.684.304 6.549 2.891 6.549 2.891.06.027.125.057.194.08a.79.79 0 0 0 .405.016c.05-.009.166-.037.204-.053l7.27-2.345L.228.86.155.857.149.858z"/>
        <path id="o" d="M.149.858C.11.866.08.912.08.95c0 .054.019.074.098.109.684.304 6.549 2.891 6.549 2.891.06.027.125.057.194.08a.79.79 0 0 0 .405.016c.05-.009.166-.037.204-.053l7.27-2.345L.228.86.155.858H.149z"/>
        <path id="q" d="M7.931 1.008C2.016 2.897-1.256 9.227.637 15.123c1.531 4.76 5.971 7.803 10.737 7.803 1.136 0 2.292-.173 3.429-.536a11.175 11.175 0 0 0 6.582-5.553 11.118 11.118 0 0 0 .713-8.561C20.567 3.515 16.131.473 11.359.474c-1.135 0-2.29.172-3.428.534zm-1.04 12.121a4.686 4.686 0 0 1 4.473-6.113c1.988 0 3.842 1.269 4.48 3.256a4.63 4.63 0 0 1-.298 3.57 4.65 4.65 0 0 1-2.745 2.316 4.706 4.706 0 0 1-5.91-3.029z"/>
        <path id="s" d="M11.36.474c-1.136 0-2.291.172-3.429.534C2.016 2.897-1.256 9.227.637 15.123c1.531 4.76 5.971 7.803 10.737 7.803 1.136 0 2.292-.173 3.429-.536a11.175 11.175 0 0 0 6.582-5.553 11.118 11.118 0 0 0 .713-8.561C20.568 3.517 16.132.474 11.362.474h-.002zM6.891 13.129a4.686 4.686 0 0 1 4.473-6.113c1.988 0 3.842 1.269 4.48 3.256a4.63 4.63 0 0 1-.298 3.57 4.65 4.65 0 0 1-2.745 2.316 4.706 4.706 0 0 1-5.91-3.029z"/>
        <path id="u" d="M.76 11.195L6.74.657.76 11.195z"/>
        <path id="w" d="M6.596 1.085L.581 11.699a1.553 1.553 0 0 0 .618 2.13 1.607 1.607 0 0 0 2.166-.605L9.378 2.611A1.552 1.552 0 0 0 8.762.48a1.598 1.598 0 0 0-.773-.199 1.6 1.6 0 0 0-1.393.804z"/>
        <path id="y" d="M1.534 8.82L1.266.573l.268 8.247z"/>
        <path id="A" d="M2.135.202C1.225.24.52.961.561 1.811l.381 7.911c.04.827.769 1.473 1.647 1.473l.076-.001c.909-.038 1.614-.76 1.574-1.61l-.382-7.91C3.818.859 3.093.199 2.247.199c-.037 0-.075 0-.112.003z"/>
        <path id="C" d="M.82 4.319L8.64.654.82 4.319z"/>
        <path id="E" d="M8.785.428l-7.474 3.47C.54 4.256.222 5.138.598 5.868c.27.521.821.826 1.396.826.228 0 .46-.05.681-.15l7.474-3.472c.77-.356 1.09-1.238.712-1.968-.269-.523-.82-.825-1.396-.825-.228 0-.46.048-.68.149z"/>
    </defs>
    <g fill="none" fill-rule="evenodd">
        <path fill="#FFF" fill-rule="nonzero" d="M105 30h77v42h-77zM80 85h77v42H80zM190 30h15v42h-15z" opacity=".75"/>
        <path fill="#131415" d="M139.38 83.393c0 35.681-28.939 64.607-64.634 64.607-35.697 0-64.626-28.926-64.626-64.607 0-35.68 28.93-64.607 64.626-64.607 35.695 0 64.634 28.926 64.634 64.607"/>
        <g transform="translate(10 18)">
            <mask id="b" fill="#fff">
                <use xlink:href="#a"/>
            </mask>
            <path fill="#131415" d="M-1211 348H575v-615h-1786z" mask="url(#b)"/>
            <path fill="#131415" d="M-4.88 135h139.26V-4.214H-4.88z" mask="url(#b)"/>
        </g>
        <g transform="translate(5 42)">
            <mask id="d" fill="#fff">
                <use xlink:href="#c"/>
            </mask>
            <path fill="#C1C1C1" d="M-4.48 85.799H96.14V-4.387H-4.48z" mask="url(#d)"/>
        </g>
        <g transform="translate(28 72)">
            <mask id="f" fill="#fff">
                <use xlink:href="#e"/>
            </mask>
            <path fill="#686C6D" d="M-4.02 58.09h62.44V-4.145H-4.02z" mask="url(#f)"/>
        </g>
        <g transform="translate(0 50)">
            <mask id="h" fill="#fff">
                <use xlink:href="#g"/>
            </mask>
            <path fill="#686C6D" d="M-5 46.182h75.78v-50.78H-5z" mask="url(#h)"/>
        </g>
        <path fill="#DCDCDC" d="M68.8 59.867l-8.677 2.567-7.128 2.114a.315.315 0 0 1-.111.026.363.363 0 0 1-.122.023 1.937 1.937 0 0 1-.475-.01.51.51 0 0 1-.184-.05l-6.504-2.64c-.053-.027-.059-.052-.059-.1 0-.037.018-.084.031-.084l16.381-4.84c.293-.087.623-.074.917.05l5.955 2.418c.244.098.232.452-.024.526"/>
        <g transform="translate(45 56)">
            <mask id="j" fill="#fff">
                <use xlink:href="#i"/>
            </mask>
            <path fill="#DCDCDC" d="M-1246 310H540v-615h-1786z" mask="url(#j)"/>
        </g>
        <g transform="translate(45 56)">
            <mask id="l" fill="#fff">
                <use xlink:href="#k"/>
            </mask>
            <path fill="#DCDCDC" d="M-4.46 13.607H29V-4.182H-4.46z" mask="url(#l)"/>
        </g>
        <path fill="#686C6D" d="M59.8 62.648l-7.27 2.346a1.493 1.493 0 0 1-.205.052.776.776 0 0 1-.404-.016c-.069-.023-.133-.052-.194-.08l-6.55-2.89c-.077-.035-.097-.055-.097-.11 0-.038.031-.084.069-.092.013-.001.079.003.079.003l14.572.787z"/>
        <g transform="translate(45 61)">
            <mask id="n" fill="#fff">
                <use xlink:href="#m"/>
            </mask>
            <path fill="#686C6D" d="M-1246 305H540v-615h-1786z" mask="url(#n)"/>
        </g>
        <g transform="translate(45 61)">
            <mask id="p" fill="#fff">
                <use xlink:href="#o"/>
            </mask>
            <path fill="#686C6D" d="M-4.92 9.066H19.8V-4.142H-4.92z" mask="url(#p)"/>
        </g>
        <path fill="#C1C1C1" d="M96.364 100.016c-.475 0-.957.072-1.43.224a4.684 4.684 0 0 0-3.043 5.889c.79 2.457 3.44 3.818 5.91 3.03a4.658 4.658 0 0 0 2.745-2.316 4.633 4.633 0 0 0 .297-3.571c-.638-1.987-2.49-3.256-4.48-3.256m.011 15.91c-4.766 0-9.206-3.042-10.736-7.803-1.895-5.896 1.377-12.226 7.292-14.114 5.923-1.886 12.273 1.374 14.167 7.267a11.117 11.117 0 0 1-.712 8.562 11.175 11.175 0 0 1-6.582 5.552 11.275 11.275 0 0 1-3.428.536"/>
        <g transform="translate(85 93)">
            <mask id="r" fill="#fff">
                <use xlink:href="#q"/>
            </mask>
            <path fill="#C1C1C1" d="M-1286 273H500v-615h-1786z" mask="url(#r)"/>
        </g>
        <g transform="translate(85 93)">
            <mask id="t" fill="#fff">
                <use xlink:href="#s"/>
            </mask>
            <path fill="#C1C1C1" d="M-4.9 27.926h32.54V-4.526H-4.9z" mask="url(#t)"/>
        </g>
        <path fill="#383B3D" d="M160.955 34.145c0 18.84-15.379 34.112-34.35 34.112-18.973 0-34.353-15.272-34.353-34.112 0-18.839 15.38-34.11 34.352-34.11 18.972 0 34.351 15.271 34.351 34.11"/>
        <path fill="#DCDCDC" d="M121.9 48.111h11.04c0 3.042-2.473 5.5-5.517 5.5-3.05 0-5.523-2.458-5.523-5.5M145.82 43.296v.353h-.006c0 1.019-.408 1.56-1.077 1.847-.668.289-1.59.324-2.61.324h-29.88c-2.034 0-3.687-.133-3.687-2.171v-.353c0-1.461.858-2.719 2.096-3.31l1.176-10.099c0-7.394 5.226-13.566 12.2-15.02v-3.922a3.156 3.156 0 0 1 3.157-3.155 3.156 3.156 0 0 1 3.16 3.155v3.922c6.965 1.454 12.2 7.626 12.2 15.02l1.168 10.099c1.238.598 2.103 1.849 2.103 3.31"/>
        <g transform="translate(71 36)">
            <mask id="v" fill="#fff">
                <use xlink:href="#u"/>
            </mask>
            <path fill="#BBD6F4" d="M-4.24 16.195h15.98V-4.344H-4.24z" mask="url(#v)"/>
        </g>
        <g transform="translate(70 35)">
            <mask id="x" fill="#fff">
                <use xlink:href="#w"/>
            </mask>
            <path fill="#FFF" d="M-4.62 19.028h19.2V-4.718h-19.2z" mask="url(#x)"/>
        </g>
        <g transform="translate(63 37)">
            <mask id="z" fill="#fff">
                <use xlink:href="#y"/>
            </mask>
            <path fill="#BBD6F4" d="M-3.734 13.821H6.535V-4.427H-3.734z" mask="url(#z)"/>
        </g>
        <g transform="translate(62 36)">
            <mask id="B" fill="#fff">
                <use xlink:href="#A"/>
            </mask>
            <path fill="#FFF" d="M-4.44 16.195H9.24V-4.802H-4.44z" mask="url(#B)"/>
        </g>
        <g transform="translate(76 47)">
            <mask id="D" fill="#fff">
                <use xlink:href="#C"/>
            </mask>
            <path fill="#BBD6F4" d="M-4.18 9.319h17.82V-4.347H-4.18z" mask="url(#D)"/>
        </g>
        <g transform="translate(75 46)">
            <mask id="F" fill="#fff">
                <use xlink:href="#E"/>
            </mask>
            <path fill="#FFF" d="M-4.56 11.693h20.58V-4.722H-4.56z" mask="url(#F)"/>
        </g>
    </g>
</svg>
