<svg xmlns="http://www.w3.org/2000/svg" xmlns:xlink="http://www.w3.org/1999/xlink" width="205" height="148" viewBox="0 0 205 148">
    <defs>
        <path id="a" d="M.252.034h68.703v68.223H.252z"/>
    </defs>
    <g fill="none" fill-rule="evenodd">
        <path fill="#FFF" fill-rule="nonzero" d="M105 30h77v42h-77zM80 85h77v42H80zM190 30h15v42h-15z" opacity=".75"/>
        <path fill="#133C86" d="M139.38 83.393c0 35.681-28.94 64.607-64.634 64.607-35.697 0-64.626-28.926-64.626-64.607 0-35.68 28.93-64.607 64.626-64.607 35.695 0 64.634 28.926 64.634 64.607"/>
        <path fill="#BCD7F5" d="M5.52 50.318l25.072-7.379a7.33 7.33 0 0 1 4.905.206l44.35 17.906c12.138 4.901 19 22.29 15.282 34.781-3.008 10.107-15.494 21.063-30.721 26.967L41.6 79.909 5.52 50.319z"/>
        <path fill="#4B7AC7" d="M79.488 108.795c-5.447 13.36-20.734 19.794-34.148 14.37-13.414-5.424-19.874-20.653-14.427-34.015C36.358 75.79 51.646 69.355 65.06 74.78c13.414 5.426 19.873 20.654 14.428 34.016"/>
        <path fill="#4B7AC7" d="M2.345 68.253l56.729 22.93 6.706-16.446L5.57 50.402.277 63.38a3.737 3.737 0 0 0 2.068 4.874M68.8 59.867l-8.677 2.568-7.128 2.114a.327.327 0 0 1-.11.025.363.363 0 0 1-.123.024 1.988 1.988 0 0 1-.475-.011c-.061 0-.122-.025-.184-.05l-6.504-2.64c-.053-.026-.059-.052-.059-.101 0-.036.018-.082.03-.082l16.383-4.841c.292-.086.622-.074.916.049l5.956 2.419c.243.098.231.453-.025.526"/>
        <path fill="#1A50AB" d="M59.8 62.648l-7.27 2.345a1.555 1.555 0 0 1-.205.053.783.783 0 0 1-.404-.016c-.07-.023-.133-.053-.194-.08l-6.55-2.89c-.077-.036-.097-.056-.097-.11 0-.038.03-.084.07-.092.013-.001.078.003.078.003l14.572.787z"/>
        <path fill="#BCD7F5" d="M96.363 100.016a4.69 4.69 0 0 0-1.43.223 4.684 4.684 0 0 0-3.041 5.89c.789 2.457 3.438 3.818 5.908 3.03a4.652 4.652 0 0 0 2.746-2.316c.576-1.112.68-2.38.298-3.572-.638-1.986-2.491-3.255-4.48-3.255m.01 15.91c-4.767 0-9.206-3.042-10.736-7.803-1.895-5.896 1.378-12.226 7.293-14.115 5.923-1.885 12.273 1.375 14.167 7.268a11.118 11.118 0 0 1-.713 8.562 11.174 11.174 0 0 1-6.582 5.551 11.246 11.246 0 0 1-3.428.537"/>
        <g transform="translate(92)">
            <mask id="b" fill="#fff">
                <use xlink:href="#a"/>
            </mask>
            <path fill="#4B7AC7" d="M68.955 34.145c0 18.84-15.38 34.112-34.35 34.112C15.632 68.257.251 52.985.251 34.145c0-18.839 15.38-34.11 34.352-34.11 18.972 0 34.351 15.271 34.351 34.11" mask="url(#b)"/>
        </g>
        <path fill="#BCD7F5" d="M121.9 48.111h11.04c0 3.042-2.473 5.499-5.516 5.499-3.051 0-5.524-2.457-5.524-5.499M145.82 43.296v.353h-.006c0 1.019-.408 1.56-1.077 1.847-.668.289-1.59.324-2.61.324h-29.881c-2.033 0-3.686-.133-3.686-2.171v-.353c0-1.46.858-2.72 2.097-3.31l1.175-10.1c0-7.393 5.227-13.565 12.199-15.019v-3.922a3.157 3.157 0 0 1 3.158-3.156 3.157 3.157 0 0 1 3.16 3.156v3.922c6.965 1.454 12.2 7.626 12.2 15.02l1.168 10.1c1.238.597 2.103 1.848 2.103 3.31M77.74 36.656l-5.98 10.539"/>
        <path fill="#FFF" d="M71.972 49.028a1.61 1.61 0 0 1-.774-.199 1.553 1.553 0 0 1-.617-2.13l6.015-10.613a1.608 1.608 0 0 1 2.167-.606 1.552 1.552 0 0 1 .615 2.13l-6.013 10.614a1.599 1.599 0 0 1-1.393.804"/>
        <path fill="#BCD7F5" d="M64.266 37.573l.268 8.247"/>
        <path fill="#FFF" d="M64.589 47.195c-.877 0-1.606-.645-1.647-1.473l-.38-7.91c-.042-.851.664-1.572 1.573-1.61.893-.061 1.681.62 1.722 1.471l.381 7.911c.04.85-.664 1.572-1.573 1.61l-.076.001"/>
        <path fill="#BCD7F5" d="M84.64 47.653l-7.82 3.666"/>
        <path fill="#FFF" d="M76.994 52.693c-.574 0-1.127-.304-1.396-.825-.376-.73-.058-1.613.712-1.97l7.476-3.47c.77-.356 1.7-.055 2.075.675.378.73.058 1.613-.712 1.97l-7.474 3.47c-.22.102-.452.15-.681.15"/>
    </g>
</svg>
