<svg xmlns="http://www.w3.org/2000/svg" xmlns:xlink="http://www.w3.org/1999/xlink" width="445" height="323" viewBox="0 0 445 323">
    <defs>
        <path id="a" d="M.548.075h149.354v148.892H.548z"/>
    </defs>
    <g fill="none" fill-rule="evenodd">
        <path fill="#FFF" fill-rule="nonzero" d="M228 66h167v92H228zM174 185h167v92H174zM413 66h32v92h-32z" opacity=".7"/>
        <path fill="#133C86" d="M303 182c0 77.87-62.911 141-140.508 141C84.89 323 22 259.87 22 182S84.89 41 162.492 41C240.089 41 303 104.13 303 182"/>
        <path fill="#BCD7F5" d="M12 109.815l54.503-16.103c3.5-1.086 7.27-.925 10.664.45l96.414 39.077c26.386 10.697 41.305 48.646 33.221 75.908-6.54 22.057-33.682 45.968-66.785 58.853l-49.582-93.602L12 109.815z"/>
        <path fill="#4B7AC7" d="M172.8 237.438c-11.84 29.158-45.074 43.2-74.234 31.362-29.161-11.838-43.205-45.074-31.365-74.235 11.838-29.161 45.074-43.203 74.235-31.365 29.16 11.841 43.202 45.077 31.364 74.238"/>
        <path fill="#4B7AC7" d="M5.097 148.959L128.422 199 143 163.109 12.108 110 .602 138.32a8.167 8.167 0 0 0 4.495 10.639M149.565 130.656l-18.863 5.604-15.496 4.613a.71.71 0 0 1-.24.056.786.786 0 0 1-.265.051c-.344.03-.69.03-1.033-.024-.134 0-.267-.053-.4-.107l-14.14-5.764c-.115-.057-.128-.113-.128-.22 0-.078.04-.18.067-.18l35.613-10.564a3.003 3.003 0 0 1 1.991.107l12.948 5.28c.53.214.503.988-.054 1.148"/>
        <path fill="#1A50AB" d="M130 136.725l-15.804 5.119a3.37 3.37 0 0 1-.445.114c-.22.038-.512.085-.88-.035-.15-.05-.289-.114-.42-.173 0 0-12.752-5.647-14.24-6.31-.168-.076-.211-.12-.211-.237 0-.085.067-.185.15-.202.03-.003.172.005.172.005L130 136.725z"/>
        <path fill="#BCD7F5" d="M209.486 218.277c-1.03 0-2.078.158-3.108.488-5.365 1.716-8.334 7.482-6.614 12.853 1.715 5.363 7.476 8.334 12.846 6.613a10.123 10.123 0 0 0 5.968-5.054 10.143 10.143 0 0 0 .648-7.794c-1.387-4.336-5.416-7.106-9.74-7.106M209.51 253c-10.363 0-20.014-6.64-23.341-17.03-4.119-12.866 2.996-26.682 15.855-30.803 12.875-4.114 26.68 3 30.798 15.861a24.35 24.35 0 0 1-1.55 18.685c-2.997 5.821-8.077 10.124-14.308 12.116A24.36 24.36 0 0 1 209.51 253"/>
        <g transform="translate(200)">
            <mask id="b" fill="#fff">
                <use xlink:href="#a"/>
            </mask>
            <path fill="#4B7AC7" d="M149.903 74.52c0 41.117-33.434 74.447-74.676 74.447-41.243 0-74.679-33.33-74.679-74.447C.548 33.405 33.984.075 75.227.075c41.242 0 74.676 33.33 74.676 74.445" mask="url(#b)"/>
        </g>
        <path fill="#BCD7F5" d="M265 105h24c0 6.637-5.375 12-11.992 12-6.633 0-12.008-5.363-12.008-12M317 94.491v.769h-.013c0 2.224-.887 3.406-2.34 4.033-1.454.63-3.458.707-5.676.707h-64.958c-4.42 0-8.013-.292-8.013-4.74v-.769a8.005 8.005 0 0 1 4.558-7.224l2.554-22.041c0-16.136 11.363-29.606 26.52-32.779v-8.56c0-3.806 3.075-6.887 6.867-6.887 3.794 0 6.869 3.081 6.869 6.886v8.561c15.14 3.173 26.52 16.643 26.52 32.779l2.54 22.041c2.691 1.305 4.572 4.035 4.572 7.224M169 80l-13 23"/>
        <path fill="#FFF" d="M156.46 107c-.57 0-1.149-.14-1.68-.433a3.396 3.396 0 0 1-1.342-4.65l13.075-23.162c.93-1.647 3.042-2.242 4.71-1.322a3.394 3.394 0 0 1 1.339 4.65l-13.072 23.162a3.473 3.473 0 0 1-3.03 1.755"/>
        <path fill="#BCD7F5" d="M139.708 82l.584 18"/>
        <path fill="#FFF" d="M140.41 103c-1.906 0-3.491-1.408-3.58-3.214l-.826-17.265c-.091-1.856 1.443-3.43 3.42-3.513 1.941-.133 3.655 1.355 3.743 3.212l.83 17.265c.087 1.856-1.444 3.43-3.422 3.512-.054.003-.11.003-.164.003"/>
        <path fill="#BCD7F5" d="M184 104l-17 8"/>
        <path fill="#FFF" d="M167.378 115c-1.249 0-2.449-.664-3.034-1.802-.818-1.594-.126-3.519 1.547-4.298l16.252-7.574c1.673-.776 3.694-.12 4.512 1.474.82 1.594.126 3.519-1.548 4.298l-16.248 7.574a3.523 3.523 0 0 1-1.481.328"/>
    </g>
</svg>
